<svg width="48" height="48" viewBox="0 0 48 48" fill="none" xmlns="http://www.w3.org/2000/svg">
<g clip-path="url(#clip0_89_1058)">
<path d="M9.83203 15.2812C12.8369 15.2812 15.2812 12.8369 15.2812 9.83203C15.2812 6.82716 12.8369 4.38281 9.83203 4.38281C6.82716 4.38281 4.38281 6.82716 4.38281 9.83203C4.38281 12.8369 6.82716 15.2812 9.83203 15.2812ZM9.83203 8.01563C10.8335 8.01563 11.6484 8.83052 11.6484 9.83203C11.6484 10.8335 10.8335 11.6484 9.83203 11.6484C8.83052 11.6484 8.01563 10.8335 8.01563 9.83203C8.01563 8.83052 8.83052 8.01563 9.83203 8.01563ZM15.2812 39.0761V45.4336C15.2812 46.4369 14.4681 47.25 13.4648 47.25C12.4616 47.25 11.6484 46.4369 11.6484 45.4336V39.0761C11.6484 38.0729 12.4616 37.2597 13.4648 37.2597C14.4681 37.2597 15.2812 38.0729 15.2812 39.0761ZM11.4668 18.8687C11.4668 19.8719 10.6537 20.6851 9.65039 20.6851C4.38281 20.6851 4.38281 23.1592 4.38281 24.0908V31.8105C4.38281 32.6637 4.79008 33.4783 5.47265 33.9903C7.06485 35.1844 8.01563 37.0859 8.01563 39.0761V45.4336C8.01563 46.4369 7.20249 47.25 6.19921 47.25C5.19593 47.25 4.38281 46.4369 4.38281 45.4336V39.0761C4.38281 38.2229 3.97555 37.4084 3.29297 36.8965C1.70077 35.7024 0.75 33.8008 0.75 31.8105V24.0908C0.75 21.6355 1.75825 19.6952 3.66548 18.4805C5.15336 17.5327 7.16703 17.0523 9.65039 17.0523C10.6537 17.0523 11.4668 17.8653 11.4668 18.8687ZM38.168 15.2812C41.1728 15.2812 43.6172 12.8369 43.6172 9.83203C43.6172 6.82716 41.1728 4.38281 38.168 4.38281C35.1631 4.38281 32.7188 6.82716 32.7188 9.83203C32.7188 12.8369 35.1631 15.2812 38.168 15.2812ZM38.168 8.01563C39.1695 8.01563 39.9844 8.83052 39.9844 9.83203C39.9844 10.8335 39.1695 11.6484 38.168 11.6484C37.1664 11.6484 36.3516 10.8335 36.3516 9.83203C36.3516 8.83052 37.1664 8.01563 38.168 8.01563ZM36.3516 39.0761V45.4336C36.3516 46.4369 35.5384 47.25 34.5352 47.25C33.5319 47.25 32.7188 46.4369 32.7188 45.4336V39.0761C32.7188 38.0729 33.5319 37.2597 34.5352 37.2597C35.5384 37.2597 36.3516 38.0729 36.3516 39.0761ZM47.25 24.0908V31.8105C47.25 33.8008 46.2992 35.7024 44.7071 36.8965C44.0244 37.4084 43.6172 38.2229 43.6172 39.0761V45.4336C43.6172 46.4369 42.804 47.25 41.8008 47.25C40.7975 47.25 39.9844 46.4369 39.9844 45.4336V39.0761C39.9844 37.0859 40.9352 35.1844 42.5273 33.9903C43.2099 33.4783 43.6172 32.6637 43.6172 31.8105V24.0908C43.6172 23.1592 43.6172 20.6851 38.3496 20.6851C37.3463 20.6851 36.5332 19.8719 36.5332 18.8687C36.5332 17.8653 37.3463 17.0523 38.3496 17.0523C40.8329 17.0523 42.8467 17.5327 44.3345 18.4805C46.2417 19.6952 47.25 21.6355 47.25 24.0908Z" fill="#686868"/>
<path d="M24.0003 11.6484C27.0052 11.6484 29.4496 9.20409 29.4496 6.19921C29.4496 3.19435 27.0052 0.75 24.0003 0.75C20.9955 0.75 18.5511 3.19435 18.5511 6.19921C18.5511 9.20409 20.9955 11.6484 24.0003 11.6484ZM24.0003 4.38281C25.0019 4.38281 25.8167 5.19771 25.8167 6.19921C25.8167 7.20072 25.0019 8.01563 24.0003 8.01563C22.9988 8.01563 22.1839 7.20072 22.1839 6.19921C22.1839 5.19771 22.9988 4.38281 24.0003 4.38281ZM33.9905 29.6393C33.9905 31.8595 32.8077 33.9484 30.9041 35.0907L30.7728 35.1695C29.9565 35.6595 29.4496 36.5545 29.4496 37.506V45.4336C29.4496 46.4369 28.6364 47.25 27.6332 47.25C26.6299 47.25 25.8167 46.4369 25.8167 45.4336V37.506C25.8167 35.2859 26.9995 33.1969 28.9032 32.0547L29.0345 31.9759C29.8508 31.4863 30.3577 30.5908 30.3577 29.6393V21.5479C30.3577 17.7948 26.8757 17.0068 23.9549 17.0068C21.0341 17.0068 17.5521 17.7948 17.5521 21.5479V29.6131C17.5521 30.5745 18.0668 31.4743 18.8952 31.9617L19.0496 32.0525C20.9831 33.1899 22.1839 35.2893 22.1839 37.5323V45.4336C22.1839 46.4369 21.3708 47.25 20.3675 47.25C19.3643 47.25 18.5511 46.4369 18.5511 45.4336V37.5323C18.5511 36.5708 18.0364 35.6711 17.208 35.184L17.0536 35.0932C15.1201 33.9559 13.9193 31.856 13.9193 29.6131V21.5479C13.9193 18.8116 15.024 16.606 17.1143 15.1699C18.8243 13.9948 21.1899 13.374 23.9549 13.374C26.72 13.374 29.0856 13.9948 30.7955 15.1699C32.8859 16.606 33.9905 18.8116 33.9905 21.5479V29.6393Z" fill="#FE7333"/>
</g>
<defs>
<clipPath id="clip0_89_1058">
<rect width="48" height="48" fill="white"/>
</clipPath>
</defs>
</svg>
