<svg width="18" height="18" viewBox="0 0 18 18" fill="none" xmlns="http://www.w3.org/2000/svg">
<path d="M14.58 9.74955C14.415 9.74955 14.2425 9.69705 14.0775 9.65955C13.7433 9.5859 13.415 9.48817 13.095 9.36705C12.747 9.24045 12.3645 9.24705 12.0212 9.3855C11.6778 9.52395 11.3978 9.7845 11.235 10.1171L11.07 10.4545C10.3395 10.0482 9.6682 9.54345 9.07495 8.95455C8.48605 8.3613 7.9813 7.69005 7.57495 6.95953L7.88995 6.74953C8.2225 6.58672 8.48305 6.30668 8.6215 5.9633C8.75995 5.61992 8.76655 5.23747 8.63995 4.88953C8.52085 4.56885 8.42313 4.24063 8.34745 3.90703C8.30995 3.74203 8.27995 3.56953 8.25745 3.39703C8.1664 2.86875 7.88965 2.39034 7.47717 2.04796C7.06467 1.70559 6.54348 1.52174 6.00745 1.52953H3.75745C3.43423 1.5265 3.11414 1.59314 2.81899 1.72493C2.52383 1.85672 2.26054 2.05056 2.04703 2.29324C1.83352 2.53594 1.67481 2.82178 1.5817 3.13132C1.48858 3.44086 1.46326 3.76683 1.50745 4.08703C1.90701 7.22907 3.34198 10.1485 5.58569 12.384C7.82943 14.6196 10.754 16.0439 13.8975 16.4321H14.1825C14.7355 16.4329 15.2695 16.2299 15.6825 15.8621C15.9198 15.6498 16.1093 15.3897 16.2386 15.0988C16.3678 14.8079 16.434 14.4929 16.4325 14.1746V11.9246C16.4233 11.4036 16.2336 10.9019 15.8957 10.5052C15.5579 10.1087 15.0928 9.8415 14.58 9.74955ZM14.955 14.2495C14.9548 14.356 14.932 14.4613 14.8881 14.5582C14.8441 14.6552 14.78 14.7418 14.7 14.812C14.6164 14.8848 14.5185 14.9391 14.4125 14.9714C14.3065 15.0038 14.1949 15.0133 14.085 14.9995C11.2761 14.6394 8.6671 13.3544 6.66949 11.3473C4.67185 9.34013 3.39926 6.72504 3.05245 3.91453C3.04052 3.80467 3.05098 3.69353 3.0832 3.58783C3.11543 3.48212 3.16876 3.38405 3.23995 3.29954C3.31024 3.21953 3.39675 3.15541 3.49374 3.11145C3.59073 3.06748 3.69597 3.04467 3.80245 3.04453H6.05245C6.22687 3.04066 6.39717 3.09769 6.53406 3.20584C6.67095 3.31398 6.76586 3.46646 6.80245 3.63703C6.83245 3.84203 6.86995 4.04453 6.91495 4.24453C7.00159 4.63989 7.1169 5.02842 7.25995 5.40703L6.20995 5.89453C6.12018 5.93572 6.03942 5.99425 5.97232 6.06673C5.90522 6.13921 5.8531 6.22424 5.81896 6.31693C5.78481 6.40961 5.76931 6.50813 5.77334 6.60682C5.77737 6.70552 5.80086 6.80244 5.84245 6.89203C6.92185 9.20407 8.78035 11.0626 11.0925 12.142C11.2751 12.217 11.4798 12.217 11.6625 12.142C11.756 12.1086 11.8419 12.0568 11.9154 11.99C11.9887 11.923 12.0481 11.8421 12.09 11.7521L12.555 10.702C12.9427 10.8407 13.3384 10.9559 13.74 11.047C13.94 11.092 14.1425 11.1295 14.3475 11.1595C14.518 11.1961 14.6705 11.291 14.7786 11.4279C14.8868 11.5648 14.9439 11.7351 14.94 11.9095L14.955 14.2495Z" fill="#686868"/>
</svg>
