<svg width="44" height="59" viewBox="0 0 44 59" fill="none" xmlns="http://www.w3.org/2000/svg">
<mask id="path-1-outside-1_127_37987" maskUnits="userSpaceOnUse" x="-0.253296" y="-0.170898" width="44" height="59" fill="black">
<rect fill="white" x="-0.253296" y="-0.170898" width="44" height="59"/>
<path fill-rule="evenodd" clip-rule="evenodd" d="M20.6669 5.24411L22.6537 5.47353L24.7503 4.987L25.6447 6.16042L26.4736 7.34904L27.7611 8.43123L28.852 9.55905L29.1125 11.57L29.1552 12.9411L29.853 14.1601L31.075 15.2575L33.3437 18.1835L34.6296 21.3375L34.6285 21.3385L35.2393 21.8871L36.44 22.299L39.1673 25.1185L41.0003 26.7646L38.5532 28.7134L40.2978 31.761L40.4928 33.7872L40.6878 35.8134L40.8844 35.7678L41.6051 35.6005L42.0195 36.1948L40.5339 37.2301L37.5612 41.3723L38.2772 47.4205L39.6485 53.3166L38.0532 55.0677L35.8256 55.5847L34.2744 56.6351L32.702 57L30.3465 53.4037L28.8213 48.9243L26.5084 46.6991L24.4362 43.7275L25.1143 42.1892L25.7481 41.3516L26.9717 40.3772L28.4121 40.043L28.4115 40.0426L26.9701 40.3771L25.7466 41.3515L24.7212 40.2085L23.8481 39.7206L23.5647 39.0959L22.9324 37.8617L21.5794 36.7947L20.6621 37.0075L20.6408 36.322L20.2922 35.7129L17.8477 35.59L15.7953 35.3758L15.425 34.0807L13.6805 31.0331L14.27 30.8963L14.2693 30.8958L13.6796 31.0327L12.0005 27.9699L9.62212 25.7599L9.62302 25.7588L5.1063 22.6649L1.74665 18.6111L3.60402 16.7991L5.52692 14.9719L7.03229 16.694L8.3853 17.761L10.4392 15.9034L10.2214 15.2635L11.2696 15.0203L12.6227 16.0872L13.9315 17.855L14.8487 17.6421L15.8528 18.0996L15.7431 18.8154L15.7437 18.8152L15.8534 18.0993L14.8493 17.6418L13.9321 17.8546L12.6233 16.0869L11.2703 15.0199L10.5953 12.4146L10.9229 12.3386L11.3373 12.9329L12.2333 12.0345L12.9113 10.4962L12.2348 9.96272L12.3232 8.56125L11.2765 6.7327L11.3435 4.64569L11.8905 3.1378L13.0257 3.56486L14.3574 3.94632L14.5326 3.21518L14.5555 1.82891L16.0182 2.17996L17.4367 3.23174L18.0477 3.78046L18.7029 3.62842L18.7897 4.29873L19.0731 4.92345L19.707 4.08588L20.5587 3.88823L20.9076 4.49774L20.6669 5.24411ZM14.2365 19.1652L14.2362 19.1653L13.2747 20.0788L13.6892 20.6732L14.4099 20.5059L14.0381 21.2827L13.5566 22.7754L12.4428 23.0338L11.7221 23.2011L11.7221 23.2011L12.4409 23.0343L13.5548 22.7758L15.0617 22.4262L16.9175 22.686L17.3975 23.2651L17.4188 23.9506L19.558 24.8352L20.9994 24.5007L22.549 25.5221L23.422 26.01L23.7496 25.9339L23.378 26.7104L23.3803 26.7099L23.7521 25.9331L23.4245 26.0091L22.5514 25.5212L21.0019 24.4999L19.5605 24.8344L17.4212 23.9498L17.3999 23.2643L16.92 22.6852L15.0641 22.4253L13.5572 22.775L14.0387 21.2823L14.4105 20.5056L13.6898 20.6728L13.2754 20.0785L14.2365 19.1652ZM15.0122 31.4146L15.0114 31.414L16.3658 30.4093L17.6549 29.4197L17.6556 29.4203L16.3667 30.4098L15.0122 31.4146ZM18.8777 30.5176L18.877 30.5168L19.4452 29.6947L20.1004 29.5427L20.101 29.5432L19.4461 29.6952L18.8777 30.5176ZM20.7777 30.0767L20.7771 30.0761L21.5631 29.8937L22.3935 29.0106L22.3938 29.0086L22.3944 29.011L21.564 29.8942L20.7777 30.0767ZM22.7235 26.8632L22.7217 26.8687L22.7226 26.8627L22.7255 26.8621L24.6678 27.7921L25.3865 29.6955L25.3849 29.6968L24.6662 27.7934L22.7235 26.8632ZM27.5044 27.8259L27.918 28.4189L28.5945 28.9524L29.1186 28.8308L29.7738 28.6788L29.7753 28.6784L29.7753 28.6783L29.1215 28.83L28.5973 28.9516L27.9208 28.4181L27.5064 27.8238L27.5044 27.8259ZM28.5131 26.2099L29.4935 25.9824L30.7384 25.6935L30.7383 25.6929L29.4948 25.9814L28.512 26.2095L28.5131 26.2099ZM31.0022 23.561L32.0716 24.0032L32.0726 24.0021L31.0033 23.56L31.0022 23.561ZM30.3848 29.2275L30.1016 28.6032L30.103 28.6029L30.3864 29.2276L30.6042 29.8676L31.673 30.3095L31.6723 30.3097L30.6027 29.8674L30.3848 29.2275ZM32.4798 30.8128L32.524 30.1126L32.5256 30.1122L32.4814 30.8129L32.5682 31.4827L32.5667 31.4831L32.4798 30.8128ZM35.4266 32.2004L34.7945 30.9666L34.7958 30.9663L35.4282 32.2005L35.5363 33.5564L34.2473 34.546L32.7617 35.5812L32.105 37.8051L31.7545 39.2674L30.7062 39.5106L29.7234 39.7387L29.3958 39.8147L29.2861 40.5306L29.2847 40.5298L29.3943 39.8146L29.7219 39.7386L30.7046 39.5105L31.7529 39.2672L32.1034 37.805L32.7601 35.5811L34.2457 34.5459L35.5347 33.5563L35.4266 32.2004ZM22.192 35.8174L21.8648 35.3483L22.8475 35.1202L22.192 35.8174ZM26.9758 31.2086L27.0647 30.6884L25.4714 30.3678L25.4717 30.3681L26.9758 31.2086ZM24.7949 29.8346L24.7944 29.8342L25.3835 29.6975L23.7916 29.3773L23.595 29.4229L23.5947 29.423L23.9435 30.0322L24.7949 29.8346Z"/>
</mask>
<path fill-rule="evenodd" clip-rule="evenodd" d="M20.6669 5.24411L22.6537 5.47353L24.7503 4.987L25.6447 6.16042L26.4736 7.34904L27.7611 8.43123L28.852 9.55905L29.1125 11.57L29.1552 12.9411L29.853 14.1601L31.075 15.2575L33.3437 18.1835L34.6296 21.3375L34.6285 21.3385L35.2393 21.8871L36.44 22.299L39.1673 25.1185L41.0003 26.7646L38.5532 28.7134L40.2978 31.761L40.4928 33.7872L40.6878 35.8134L40.8844 35.7678L41.6051 35.6005L42.0195 36.1948L40.5339 37.2301L37.5612 41.3723L38.2772 47.4205L39.6485 53.3166L38.0532 55.0677L35.8256 55.5847L34.2744 56.6351L32.702 57L30.3465 53.4037L28.8213 48.9243L26.5084 46.6991L24.4362 43.7275L25.1143 42.1892L25.7481 41.3516L26.9717 40.3772L28.4121 40.043L28.4115 40.0426L26.9701 40.3771L25.7466 41.3515L24.7212 40.2085L23.8481 39.7206L23.5647 39.0959L22.9324 37.8617L21.5794 36.7947L20.6621 37.0075L20.6408 36.322L20.2922 35.7129L17.8477 35.59L15.7953 35.3758L15.425 34.0807L13.6805 31.0331L14.27 30.8963L14.2693 30.8958L13.6796 31.0327L12.0005 27.9699L9.62212 25.7599L9.62302 25.7588L5.1063 22.6649L1.74665 18.6111L3.60402 16.7991L5.52692 14.9719L7.03229 16.694L8.3853 17.761L10.4392 15.9034L10.2214 15.2635L11.2696 15.0203L12.6227 16.0872L13.9315 17.855L14.8487 17.6421L15.8528 18.0996L15.7431 18.8154L15.7437 18.8152L15.8534 18.0993L14.8493 17.6418L13.9321 17.8546L12.6233 16.0869L11.2703 15.0199L10.5953 12.4146L10.9229 12.3386L11.3373 12.9329L12.2333 12.0345L12.9113 10.4962L12.2348 9.96272L12.3232 8.56125L11.2765 6.7327L11.3435 4.64569L11.8905 3.1378L13.0257 3.56486L14.3574 3.94632L14.5326 3.21518L14.5555 1.82891L16.0182 2.17996L17.4367 3.23174L18.0477 3.78046L18.7029 3.62842L18.7897 4.29873L19.0731 4.92345L19.707 4.08588L20.5587 3.88823L20.9076 4.49774L20.6669 5.24411ZM14.2365 19.1652L14.2362 19.1653L13.2747 20.0788L13.6892 20.6732L14.4099 20.5059L14.0381 21.2827L13.5566 22.7754L12.4428 23.0338L11.7221 23.2011L11.7221 23.2011L12.4409 23.0343L13.5548 22.7758L15.0617 22.4262L16.9175 22.686L17.3975 23.2651L17.4188 23.9506L19.558 24.8352L20.9994 24.5007L22.549 25.5221L23.422 26.01L23.7496 25.9339L23.378 26.7104L23.3803 26.7099L23.7521 25.9331L23.4245 26.0091L22.5514 25.5212L21.0019 24.4999L19.5605 24.8344L17.4212 23.9498L17.3999 23.2643L16.92 22.6852L15.0641 22.4253L13.5572 22.775L14.0387 21.2823L14.4105 20.5056L13.6898 20.6728L13.2754 20.0785L14.2365 19.1652ZM15.0122 31.4146L15.0114 31.414L16.3658 30.4093L17.6549 29.4197L17.6556 29.4203L16.3667 30.4098L15.0122 31.4146ZM18.8777 30.5176L18.877 30.5168L19.4452 29.6947L20.1004 29.5427L20.101 29.5432L19.4461 29.6952L18.8777 30.5176ZM20.7777 30.0767L20.7771 30.0761L21.5631 29.8937L22.3935 29.0106L22.3938 29.0086L22.3944 29.011L21.564 29.8942L20.7777 30.0767ZM22.7235 26.8632L22.7217 26.8687L22.7226 26.8627L22.7255 26.8621L24.6678 27.7921L25.3865 29.6955L25.3849 29.6968L24.6662 27.7934L22.7235 26.8632ZM27.5044 27.8259L27.918 28.4189L28.5945 28.9524L29.1186 28.8308L29.7738 28.6788L29.7753 28.6784L29.7753 28.6783L29.1215 28.83L28.5973 28.9516L27.9208 28.4181L27.5064 27.8238L27.5044 27.8259ZM28.5131 26.2099L29.4935 25.9824L30.7384 25.6935L30.7383 25.6929L29.4948 25.9814L28.512 26.2095L28.5131 26.2099ZM31.0022 23.561L32.0716 24.0032L32.0726 24.0021L31.0033 23.56L31.0022 23.561ZM30.3848 29.2275L30.1016 28.6032L30.103 28.6029L30.3864 29.2276L30.6042 29.8676L31.673 30.3095L31.6723 30.3097L30.6027 29.8674L30.3848 29.2275ZM32.4798 30.8128L32.524 30.1126L32.5256 30.1122L32.4814 30.8129L32.5682 31.4827L32.5667 31.4831L32.4798 30.8128ZM35.4266 32.2004L34.7945 30.9666L34.7958 30.9663L35.4282 32.2005L35.5363 33.5564L34.2473 34.546L32.7617 35.5812L32.105 37.8051L31.7545 39.2674L30.7062 39.5106L29.7234 39.7387L29.3958 39.8147L29.2861 40.5306L29.2847 40.5298L29.3943 39.8146L29.7219 39.7386L30.7046 39.5105L31.7529 39.2672L32.1034 37.805L32.7601 35.5811L34.2457 34.5459L35.5347 33.5563L35.4266 32.2004ZM22.192 35.8174L21.8648 35.3483L22.8475 35.1202L22.192 35.8174ZM26.9758 31.2086L27.0647 30.6884L25.4714 30.3678L25.4717 30.3681L26.9758 31.2086ZM24.7949 29.8346L24.7944 29.8342L25.3835 29.6975L23.7916 29.3773L23.595 29.4229L23.5947 29.423L23.9435 30.0322L24.7949 29.8346Z" fill="#FE7333"/>
<path d="M22.6537 5.47353L22.4817 6.96362C22.6525 6.98334 22.8254 6.97356 22.9928 6.9347L22.6537 5.47353ZM20.6669 5.24411L19.2393 4.78364C19.1014 5.21125 19.1624 5.67816 19.4056 6.05597C19.6488 6.43377 20.0485 6.68267 20.4948 6.73421L20.6669 5.24411ZM24.7503 4.987L25.9433 4.07771C25.5856 3.60844 24.986 3.39245 24.4113 3.52583L24.7503 4.987ZM25.6447 6.16042L26.8751 5.30243C26.863 5.28506 26.8505 5.26796 26.8377 5.25113L25.6447 6.16042ZM26.4736 7.34904L25.2432 8.20703C25.3185 8.315 25.4076 8.41259 25.5084 8.49728L26.4736 7.34904ZM27.7611 8.43123L28.8392 7.38834C28.8034 7.3513 28.7657 7.31614 28.7262 7.28298L27.7611 8.43123ZM28.852 9.55905L30.3396 9.36634C30.2981 9.04628 30.1545 8.74813 29.9301 8.51617L28.852 9.55905ZM29.1125 11.57L30.6118 11.5234C30.6103 11.4745 30.6064 11.4258 30.6001 11.3773L29.1125 11.57ZM29.1552 12.9411L27.6559 12.9877C27.6635 13.2332 27.7313 13.4731 27.8534 13.6863L29.1552 12.9411ZM29.853 14.1601L28.5512 14.9053C28.6306 15.0441 28.7318 15.1693 28.8507 15.2761L29.853 14.1601ZM31.075 15.2575L32.2604 14.3384C32.2053 14.2674 32.144 14.2015 32.0772 14.1415L31.075 15.2575ZM33.3437 18.1835L34.7327 17.6172C34.6812 17.4908 34.6127 17.3721 34.5291 17.2643L33.3437 18.1835ZM34.6296 21.3375L35.6353 22.4504C36.1037 22.0271 36.257 21.3558 36.0186 20.7712L34.6296 21.3375ZM34.6285 21.3385L33.6228 20.2256C33.3075 20.5105 33.1278 20.9158 33.1285 21.3408C33.1291 21.7658 33.31 22.1706 33.6262 22.4546L34.6285 21.3385ZM35.2393 21.8871L34.2371 23.0032C34.3869 23.1377 34.5622 23.2406 34.7526 23.306L35.2393 21.8871ZM36.44 22.299L37.5181 21.2561C37.3534 21.0859 37.1508 20.957 36.9267 20.8802L36.44 22.299ZM39.1673 25.1185L38.0892 26.1614C38.1136 26.1867 38.1389 26.2111 38.1651 26.2345L39.1673 25.1185ZM41.0003 26.7646L41.9348 27.938C42.2799 27.6631 42.4866 27.2501 42.4996 26.809C42.5127 26.3679 42.3309 25.9434 42.0025 25.6486L41.0003 26.7646ZM38.5532 28.7134L37.6188 27.5401C37.0396 28.0013 36.8836 28.8161 37.2515 29.4586L38.5532 28.7134ZM40.2978 31.761L41.7909 31.6173C41.7705 31.4055 41.7053 31.2004 41.5996 31.0158L40.2978 31.761ZM40.4928 33.7872L41.9859 33.6435L41.9859 33.6435L40.4928 33.7872ZM40.6878 35.8134L39.1947 35.9571C39.2361 36.3874 39.4612 36.7788 39.8121 37.0312C40.1631 37.2836 40.6058 37.3723 41.0269 37.2746L40.6878 35.8134ZM40.8844 35.7678L41.2234 37.229L41.2235 37.2289L40.8844 35.7678ZM41.6051 35.6005L42.8355 34.7425C42.4848 34.2396 41.8633 34.0008 41.266 34.1394L41.6051 35.6005ZM42.0195 36.1948L42.8771 37.4255C43.2036 37.198 43.4263 36.8501 43.4962 36.4584C43.5661 36.0667 43.4775 35.6632 43.2499 35.3368L42.0195 36.1948ZM40.5339 37.2301L39.6763 35.9994C39.5366 36.0967 39.4145 36.2171 39.3153 36.3555L40.5339 37.2301ZM37.5612 41.3723L36.3425 40.4977C36.1242 40.8019 36.0276 41.1768 36.0716 41.5487L37.5612 41.3723ZM38.2772 47.4205L36.7876 47.5968C36.7941 47.6518 36.8037 47.7063 36.8162 47.7602L38.2772 47.4205ZM39.6485 53.3166L40.7573 54.3268C41.0896 53.9621 41.2212 53.4573 41.1095 52.9768L39.6485 53.3166ZM38.0532 55.0677L38.3922 56.5289C38.6886 56.4601 38.9571 56.3028 39.162 56.0779L38.0532 55.0677ZM35.8256 55.5847L35.4865 54.1235C35.3071 54.1651 35.1369 54.2394 34.9844 54.3427L35.8256 55.5847ZM34.2744 56.6351L34.6135 58.0963C34.7929 58.0547 34.9631 57.9804 35.1155 57.8771L34.2744 56.6351ZM32.702 57L31.4472 57.8219C31.7919 58.3481 32.4283 58.6034 33.0411 58.4612L32.702 57ZM30.3465 53.4037L28.9265 53.8872C28.9671 54.0065 29.0226 54.1202 29.0917 54.2256L30.3465 53.4037ZM28.8213 48.9243L30.2413 48.4408C30.1641 48.2142 30.0338 48.0093 29.8613 47.8433L28.8213 48.9243ZM26.5084 46.6991L25.278 47.5571C25.334 47.6374 25.3978 47.7121 25.4684 47.78L26.5084 46.6991ZM24.4362 43.7275L23.0637 43.1225C22.8525 43.6016 22.9064 44.1561 23.2058 44.5855L24.4362 43.7275ZM25.1143 42.1892L23.9182 41.284C23.8479 41.3769 23.7887 41.4776 23.7417 41.5842L25.1143 42.1892ZM25.7481 41.3516L24.8137 40.1783C24.7156 40.2564 24.6277 40.3465 24.5521 40.4465L25.7481 41.3516ZM26.9717 40.3772L26.6326 38.9161C26.4152 38.9665 26.2118 39.0648 26.0372 39.2039L26.9717 40.3772ZM28.4121 40.043L28.7512 41.5042C29.3552 41.364 29.8107 40.8666 29.8974 40.2526C29.984 39.6386 29.684 39.0346 29.1423 38.7327L28.4121 40.043ZM28.4115 40.0426L29.1417 38.7324C28.8164 38.5511 28.4352 38.4973 28.0724 38.5815L28.4115 40.0426ZM26.9701 40.3771L26.631 38.9159C26.4136 38.9664 26.2102 39.0647 26.0356 39.2038L26.9701 40.3771ZM25.7466 41.3515L24.63 42.3532C25.1604 42.9444 26.0597 43.0197 26.681 42.5249L25.7466 41.3515ZM24.7212 40.2085L25.8377 39.2068C25.7273 39.0837 25.5972 38.9798 25.4529 38.8991L24.7212 40.2085ZM23.8481 39.7206L22.4821 40.3403C22.6144 40.6321 22.8367 40.8738 23.1164 41.03L23.8481 39.7206ZM23.5647 39.0959L24.9307 38.4762C24.9209 38.4546 24.9106 38.4331 24.8997 38.412L23.5647 39.0959ZM22.9324 37.8617L24.2674 37.1777C24.1691 36.9858 24.0305 36.8174 23.8612 36.6838L22.9324 37.8617ZM21.5794 36.7947L22.5082 35.6168C22.1505 35.3348 21.684 35.2305 21.2403 35.3335L21.5794 36.7947ZM20.6621 37.0075L19.1629 37.0542C19.1768 37.5032 19.3913 37.9223 19.7474 38.1963C20.1034 38.4703 20.5636 38.5702 21.0012 38.4687L20.6621 37.0075ZM20.6408 36.322L22.1401 36.2754C22.1324 36.0298 22.0646 35.7899 21.9426 35.5768L20.6408 36.322ZM20.2922 35.7129L21.5939 34.9677C21.3401 34.5242 20.8779 34.2405 20.3675 34.2148L20.2922 35.7129ZM17.8477 35.59L17.6919 37.0819C17.7187 37.0847 17.7455 37.0867 17.7723 37.0881L17.8477 35.59ZM15.7953 35.3758L14.3531 35.7881C14.5214 36.3768 15.0306 36.8041 15.6396 36.8677L15.7953 35.3758ZM15.425 34.0807L16.8673 33.6684C16.834 33.5522 16.7869 33.4404 16.7268 33.3355L15.425 34.0807ZM13.6805 31.0331L13.3414 29.572C12.8794 29.6792 12.4953 29.9986 12.3056 30.4332C12.116 30.8679 12.1431 31.3667 12.3787 31.7783L13.6805 31.0331ZM14.27 30.8963L14.6091 32.3575C15.1863 32.2235 15.6306 31.7623 15.7428 31.1804C15.8551 30.5986 15.6142 30.0052 15.1282 29.6661L14.27 30.8963ZM14.2693 30.8958L15.1275 29.6656C14.7791 29.4226 14.344 29.3386 13.9302 29.4347L14.2693 30.8958ZM13.6796 31.0327L12.3643 31.7537C12.6875 32.3434 13.3637 32.6458 14.0187 32.4938L13.6796 31.0327ZM12.0005 27.9699L13.3159 27.2488C13.2386 27.1079 13.1393 26.9804 13.0216 26.871L12.0005 27.9699ZM9.62212 25.7599L8.46232 24.8086C7.95977 25.4213 8.02054 26.3193 8.60107 26.8587L9.62212 25.7599ZM9.62302 25.7588L10.7828 26.71C11.0494 26.385 11.1673 25.9631 11.108 25.547C11.0487 25.1309 10.8175 24.7588 10.4707 24.5213L9.62302 25.7588ZM5.1063 22.6649L3.95139 23.622C4.04028 23.7293 4.14369 23.8236 4.25862 23.9024L5.1063 22.6649ZM1.74665 18.6111L0.699189 17.5374C0.13988 18.083 0.0931248 18.9666 0.591727 19.5682L1.74665 18.6111ZM3.60402 16.7991L2.57077 15.7117C2.56601 15.7162 2.56127 15.7208 2.55657 15.7254L3.60402 16.7991ZM5.52692 14.9719L6.65627 13.9847C6.38733 13.6771 6.00452 13.4924 5.59633 13.4735C5.18813 13.4546 4.78989 13.6031 4.49367 13.8845L5.52692 14.9719ZM7.03229 16.694L5.90294 17.6812C5.96376 17.7508 6.03089 17.8146 6.10345 17.8719L7.03229 16.694ZM8.3853 17.761L7.45646 18.9389C8.03105 19.392 8.84873 19.3644 9.39145 18.8735L8.3853 17.761ZM10.4392 15.9034L11.4454 17.0159C11.8895 16.6143 12.0522 15.9869 11.8592 15.42L10.4392 15.9034ZM10.2214 15.2635L9.88229 13.8023C9.46934 13.8982 9.11623 14.1642 8.91028 14.5348C8.70433 14.9053 8.66477 15.3457 8.8014 15.747L10.2214 15.2635ZM11.2696 15.0203L12.1985 13.8424C11.8408 13.5604 11.3743 13.4561 10.9306 13.5591L11.2696 15.0203ZM12.6227 16.0872L13.8282 15.1947C13.749 15.0877 13.656 14.9918 13.5515 14.9094L12.6227 16.0872ZM13.9315 17.855L12.7259 18.7476C13.0816 19.2279 13.6884 19.4513 14.2705 19.3162L13.9315 17.855ZM14.8487 17.6421L15.4706 16.2771C15.1697 16.14 14.8318 16.1062 14.5097 16.181L14.8487 17.6421ZM15.8528 18.0996L17.3355 18.3268C17.4372 17.6632 17.0856 17.0129 16.4747 16.7346L15.8528 18.0996ZM15.7431 18.8154L14.2604 18.5882C14.1851 19.0801 14.3586 19.5774 14.7237 19.9157C15.0888 20.254 15.5979 20.3891 16.0827 20.2764L15.7431 18.8154ZM15.7437 18.8152L16.0833 20.2763C16.6808 20.1374 17.1335 19.6488 17.2264 19.0424L15.7437 18.8152ZM15.8534 18.0993L17.3361 18.3265C17.4378 17.6629 17.0862 17.0126 16.4753 16.7343L15.8534 18.0993ZM14.8493 17.6418L15.4712 16.2768C15.1703 16.1397 14.8324 16.1059 14.5103 16.1806L14.8493 17.6418ZM13.9321 17.8546L12.7266 18.7472C13.0822 19.2275 13.689 19.4509 14.2712 19.3158L13.9321 17.8546ZM12.6233 16.0869L13.8288 15.1943C13.7496 15.0874 13.6566 14.9915 13.5521 14.9091L12.6233 16.0869ZM11.2703 15.0199L9.8182 15.3961C9.90038 15.7133 10.0841 15.9949 10.3414 16.1978L11.2703 15.0199ZM10.5953 12.4146L10.2562 10.9534C9.86225 11.0449 9.52189 11.2915 9.31234 11.6375C9.10279 11.9834 9.04182 12.3993 9.14325 12.7908L10.5953 12.4146ZM10.9229 12.3386L12.1533 11.4806C11.8026 10.9777 11.1811 10.7388 10.5838 10.8774L10.9229 12.3386ZM11.3373 12.9329L10.1069 13.7909C10.3611 14.1553 10.7636 14.3883 11.2062 14.4272C11.6487 14.466 12.0857 14.3067 12.3994 13.9921L11.3373 12.9329ZM12.2333 12.0345L13.2954 13.0937C13.426 12.9628 13.5312 12.8088 13.6058 12.6395L12.2333 12.0345ZM12.9113 10.4962L14.2839 11.1012C14.5598 10.4753 14.3773 9.74197 13.8402 9.3184L12.9113 10.4962ZM12.2348 9.96272L10.7378 9.86831C10.7068 10.36 10.9192 10.8355 11.306 11.1405L12.2348 9.96272ZM12.3232 8.56125L13.8202 8.65567C13.8387 8.36272 13.7708 8.07079 13.625 7.81605L12.3232 8.56125ZM11.2765 6.7327L9.77723 6.68452C9.76831 6.96216 9.83666 7.23682 9.97466 7.4779L11.2765 6.7327ZM11.3435 4.64569L9.93344 4.13416C9.87947 4.28294 9.84938 4.43933 9.8443 4.59751L11.3435 4.64569ZM11.8905 3.1378L12.4187 1.73387C12.0435 1.5927 11.6274 1.60761 11.2632 1.77527C10.8991 1.94293 10.6172 2.24939 10.4805 2.62626L11.8905 3.1378ZM13.0257 3.56486L12.4975 4.96879C12.5353 4.98303 12.5737 4.99573 12.6126 5.00687L13.0257 3.56486ZM14.3574 3.94632L13.9443 5.38833C14.3377 5.50101 14.76 5.44809 15.1135 5.24182C15.4669 5.03556 15.7207 4.69386 15.8161 4.29592L14.3574 3.94632ZM14.5326 3.21518L15.9913 3.56478C16.0168 3.45832 16.0306 3.34938 16.0324 3.23993L14.5326 3.21518ZM14.5555 1.82891L14.9055 0.370327C14.463 0.264126 13.9962 0.364557 13.6365 0.643349C13.2768 0.922141 13.0632 1.34915 13.0557 1.80416L14.5555 1.82891ZM16.0182 2.17996L16.9116 0.975039C16.7494 0.854776 16.5646 0.768497 16.3682 0.721376L16.0182 2.17996ZM17.4367 3.23174L18.439 2.11574C18.4041 2.08441 18.3678 2.05474 18.3301 2.02682L17.4367 3.23174ZM18.0477 3.78046L17.0454 4.89647C17.4095 5.22341 17.9101 5.35224 18.3868 5.24163L18.0477 3.78046ZM18.7029 3.62842L20.1904 3.43571C20.136 3.01555 19.9064 2.63801 19.5585 2.39635C19.2105 2.1547 18.7765 2.07148 18.3638 2.16725L18.7029 3.62842ZM18.7897 4.29873L17.3021 4.49144C17.3213 4.63901 17.3622 4.7829 17.4237 4.91841L18.7897 4.29873ZM19.0731 4.92345L17.7071 5.54312C17.9256 6.02469 18.3814 6.35566 18.907 6.41422C19.4325 6.47278 19.9501 6.25029 20.2692 5.82863L19.0731 4.92345ZM19.707 4.08588L19.3679 2.6247C19.026 2.70405 18.7227 2.9008 18.5109 3.18069L19.707 4.08588ZM20.5587 3.88823L21.8605 3.14302C21.5315 2.56835 20.8647 2.27737 20.2196 2.42705L20.5587 3.88823ZM20.9076 4.49774L22.3352 4.95821C22.4648 4.55652 22.4191 4.11883 22.2094 3.75254L20.9076 4.49774ZM14.2362 19.1653L13.8992 17.7036C13.6378 17.7639 13.3974 17.8931 13.2029 18.0779L14.2362 19.1653ZM14.2365 19.1652L15.2698 20.2526C15.76 19.7868 15.8779 19.0506 15.5577 18.455C15.2376 17.8594 14.5585 17.5516 13.8995 17.7035L14.2365 19.1652ZM13.2747 20.0788L12.2415 18.9915C11.7041 19.5021 11.6203 20.3288 12.0444 20.9368L13.2747 20.0788ZM13.6892 20.6732L12.4588 21.5312C12.8095 22.0341 13.431 22.2729 14.0283 22.1343L13.6892 20.6732ZM14.4099 20.5059L15.7629 21.1535C16.0118 20.6335 15.9406 20.0168 15.5798 19.5672C15.219 19.1175 14.6324 18.9144 14.0708 19.0447L14.4099 20.5059ZM14.0381 21.2827L12.6851 20.6351C12.6561 20.6957 12.6312 20.7582 12.6105 20.8222L14.0381 21.2827ZM13.5566 22.7754L13.8957 24.2366C14.4091 24.1174 14.8224 23.7375 14.9842 23.2359L13.5566 22.7754ZM12.4428 23.0338L12.7819 24.495L12.7819 24.495L12.4428 23.0338ZM11.7221 23.2011L11.383 21.7399C11.0601 21.8148 10.7711 21.9947 10.5612 22.2512L11.7221 23.2011ZM11.7221 23.2011L10.5611 22.2513C10.1546 22.7481 10.1093 23.4485 10.4484 23.9935C10.7875 24.5385 11.4358 24.8074 12.0611 24.6623L11.7221 23.2011ZM12.4409 23.0343L12.78 24.4955L12.78 24.4955L12.4409 23.0343ZM13.5548 22.7758L13.2157 21.3147L13.2157 21.3147L13.5548 22.7758ZM15.0617 22.4262L15.2696 20.9406C15.0873 20.9151 14.9019 20.9234 14.7226 20.965L15.0617 22.4262ZM16.9175 22.686L18.0724 21.7288C17.8337 21.4408 17.496 21.2523 17.1255 21.2005L16.9175 22.686ZM17.3975 23.2651L18.8967 23.2185C18.8864 22.8851 18.7652 22.5647 18.5524 22.3079L17.3975 23.2651ZM17.4188 23.9506L15.9195 23.9972C15.9378 24.5871 16.3003 25.1113 16.8456 25.3368L17.4188 23.9506ZM19.558 24.8352L18.9848 26.2214C19.2737 26.3408 19.5926 26.367 19.8971 26.2964L19.558 24.8352ZM20.9994 24.5007L21.8249 23.2483C21.4817 23.0221 21.0607 22.9466 20.6603 23.0395L20.9994 24.5007ZM22.549 25.5221L21.7235 26.7745C21.754 26.7946 21.7853 26.8136 21.8172 26.8315L22.549 25.5221ZM23.422 26.01L22.6903 27.3194C23.0159 27.5014 23.3977 27.5555 23.7611 27.4711L23.422 26.01ZM23.7496 25.9339L25.1026 26.5815C25.3515 26.0615 25.2804 25.4449 24.9196 24.9952C24.5587 24.5455 23.9721 24.3424 23.4105 24.4728L23.7496 25.9339ZM23.378 26.7104L22.025 26.0628C21.776 26.5829 21.8472 27.1996 22.2081 27.6492C22.569 28.0989 23.1557 28.3019 23.7173 28.1715L23.378 26.7104ZM23.3803 26.7099L23.7196 28.171C24.1635 28.0679 24.5365 27.7686 24.7333 27.3575L23.3803 26.7099ZM23.7521 25.9331L25.1051 26.5807C25.354 26.0607 25.2828 25.444 24.922 24.9944C24.5612 24.5447 23.9746 24.3416 23.413 24.4719L23.7521 25.9331ZM23.4245 26.0091L22.6927 27.3185C23.0184 27.5005 23.4002 27.5546 23.7635 27.4703L23.4245 26.0091ZM22.5514 25.5212L21.7259 26.7737C21.7565 26.7938 21.7877 26.8128 21.8197 26.8307L22.5514 25.5212ZM21.0019 24.4999L21.8274 23.2475C21.4842 23.0212 21.0632 22.9458 20.6628 23.0387L21.0019 24.4999ZM19.5605 24.8344L18.9873 26.2205C19.2761 26.34 19.5951 26.3662 19.8995 26.2955L19.5605 24.8344ZM17.4212 23.9498L15.9219 23.9964C15.9403 24.5862 16.3027 25.1105 16.848 25.336L17.4212 23.9498ZM17.3999 23.2643L18.8992 23.2176C18.8888 22.8843 18.7676 22.5639 18.5548 22.3071L17.3999 23.2643ZM16.92 22.6852L18.0749 21.728C17.8362 21.4399 17.4984 21.2515 17.1279 21.1996L16.92 22.6852ZM15.0641 22.4253L15.2721 20.9398C15.0898 20.9143 14.9044 20.9225 14.7251 20.9642L15.0641 22.4253ZM13.5572 22.775L12.1296 22.3145C11.9638 22.8287 12.0873 23.3924 12.4529 23.7902C12.8186 24.188 13.37 24.3583 13.8963 24.2362L13.5572 22.775ZM14.0387 21.2823L12.6857 20.6347C12.6567 20.6953 12.6318 20.7579 12.6111 20.8218L14.0387 21.2823ZM14.4105 20.5056L15.7635 21.1532C16.0124 20.6331 15.9412 20.0165 15.5804 19.5668C15.2196 19.1172 14.633 18.9141 14.0714 19.0444L14.4105 20.5056ZM13.6898 20.6728L12.4594 21.5308C12.8101 22.0337 13.4316 22.2726 14.0289 22.134L13.6898 20.6728ZM13.2754 20.0785L12.2421 18.9911C11.7047 19.5018 11.6209 20.3284 12.045 20.9365L13.2754 20.0785ZM15.0114 31.414L14.1177 30.2093C13.7303 30.4967 13.5047 30.953 13.5115 31.4354C13.5184 31.9177 13.7568 32.3674 14.1523 32.6437L15.0114 31.414ZM15.0122 31.4146L14.1531 32.6442C14.6819 33.0137 15.3877 33.0036 15.9058 32.6193L15.0122 31.4146ZM16.3658 30.4093L17.2595 31.614C17.2661 31.6091 17.2727 31.6041 17.2793 31.5991L16.3658 30.4093ZM17.6549 29.4197L18.584 28.2421C18.045 27.8168 17.2861 27.8118 16.7415 28.2299L17.6549 29.4197ZM17.6556 29.4203L18.569 30.6101C18.9361 30.3283 19.1525 29.8929 19.1556 29.4302C19.1586 28.9675 18.948 28.5293 18.5847 28.2427L17.6556 29.4203ZM16.3667 30.4098L17.2604 31.6145C17.267 31.6096 17.2736 31.6046 17.2801 31.5996L16.3667 30.4098ZM18.877 30.5168L17.643 29.664C17.2363 30.2525 17.3018 31.0463 17.7994 31.5602L18.877 30.5168ZM18.8777 30.5176L17.8 31.5609C18.1125 31.8837 18.5532 32.0494 19.001 32.0125C19.4487 31.9756 19.8563 31.7399 20.1117 31.3704L18.8777 30.5176ZM19.4452 29.6947L19.1061 28.2336C18.7425 28.3179 18.4234 28.5348 18.2112 28.8419L19.4452 29.6947ZM20.1004 29.5427L21.0307 28.3661C20.6729 28.0831 20.2057 27.9784 19.7613 28.0815L20.1004 29.5427ZM20.101 29.5432L20.4401 31.0044C21.0015 30.8741 21.4386 30.4337 21.5647 29.8713C21.6908 29.3089 21.4835 28.724 21.0314 28.3666L20.101 29.5432ZM19.4461 29.6952L19.107 28.234C18.7434 28.3184 18.4243 28.5353 18.2121 28.8424L19.4461 29.6952ZM20.7771 30.0761L20.438 28.615C19.8763 28.7453 19.4391 29.1861 19.3132 29.7488C19.1874 30.3115 19.3953 30.8965 19.848 31.2537L20.7771 30.0761ZM20.7777 30.0767L19.8486 31.2542C20.2063 31.5365 20.673 31.6408 21.1168 31.5378L20.7777 30.0767ZM21.5631 29.8937L21.9022 31.3549C22.1907 31.288 22.453 31.1371 22.6559 30.9212L21.5631 29.8937ZM22.3935 29.0106L23.4863 30.0381C23.6943 29.8169 23.8302 29.5378 23.8762 29.2378L22.3935 29.0106ZM22.3938 29.0086L23.8548 28.6688C23.6919 27.9685 23.055 27.4822 22.3365 27.5097C21.618 27.5372 21.02 28.0706 20.9111 28.7814L22.3938 29.0086ZM22.3944 29.011L23.4872 30.0385C23.8309 29.673 23.969 29.1599 23.8554 28.6712L22.3944 29.011ZM21.564 29.8942L21.903 31.3554C22.1916 31.2884 22.4539 31.1375 22.6568 30.9217L21.564 29.8942ZM22.7217 26.8687L21.2391 26.6414C21.1205 27.4143 21.6157 28.1486 22.3766 28.3285C23.1376 28.5084 23.9091 28.0735 24.1493 27.3294L22.7217 26.8687ZM22.7235 26.8632L23.3713 25.5103C22.9809 25.3233 22.5287 25.3142 22.131 25.4852C21.7333 25.6562 21.4289 25.9906 21.296 26.4026L22.7235 26.8632ZM22.7226 26.8627L22.3837 25.4015C21.786 25.5402 21.333 26.0289 21.24 26.6354L22.7226 26.8627ZM22.7255 26.8621L23.3733 25.5092C23.0662 25.3621 22.7182 25.3239 22.3865 25.4009L22.7255 26.8621ZM24.6678 27.7921L26.0711 27.2622C25.9346 26.9008 25.664 26.606 25.3155 26.4391L24.6678 27.7921ZM25.3865 29.6955L26.3 30.8853C26.8244 30.4827 27.0234 29.7842 26.7898 29.1657L25.3865 29.6955ZM25.3849 29.6968L23.9816 30.2266C24.1493 30.6708 24.5174 31.0093 24.974 31.1394C25.4306 31.2695 25.9218 31.1757 26.2984 30.8866L25.3849 29.6968ZM24.6662 27.7934L26.0695 27.2635C25.933 26.9021 25.6624 26.6073 25.314 26.4404L24.6662 27.7934ZM27.918 28.4189L26.6876 29.2769C26.7718 29.3978 26.8734 29.5055 26.9891 29.5968L27.918 28.4189ZM27.5044 27.8259L26.4112 26.7988C25.9256 27.3157 25.8683 28.1021 26.274 28.6839L27.5044 27.8259ZM28.5945 28.9524L27.6656 30.1302C28.0233 30.4123 28.4898 30.5166 28.9335 30.4136L28.5945 28.9524ZM29.1186 28.8308L29.4577 30.292L29.4577 30.292L29.1186 28.8308ZM29.7738 28.6788L29.4351 27.2175L29.4347 27.2176L29.7738 28.6788ZM29.7753 28.6784L30.1141 30.1397C30.8306 29.9736 31.3209 29.3125 31.272 28.5786L29.7753 28.6784ZM29.7753 28.6783L31.272 28.5785C31.2427 28.1395 31.0222 27.7355 30.6688 27.4734C30.3155 27.2113 29.8648 27.1176 29.4363 27.2171L29.7753 28.6783ZM29.1215 28.83L28.7824 27.3688L28.7824 27.3688L29.1215 28.83ZM28.5973 28.9516L27.6685 30.1294C28.0262 30.4115 28.4926 30.5158 28.9364 30.4128L28.5973 28.9516ZM27.9208 28.4181L26.6904 29.2761C26.7747 29.397 26.8763 29.5047 26.992 29.596L27.9208 28.4181ZM27.5064 27.8238L28.7368 26.9658C28.4782 26.595 28.0661 26.3606 27.6152 26.3278C27.1644 26.295 26.7227 26.4673 26.4132 26.7967L27.5064 27.8238ZM29.4935 25.9824L29.1545 24.5212L29.1545 24.5212L29.4935 25.9824ZM28.5131 26.2099L27.9859 27.6142C28.2627 27.7181 28.5641 27.7379 28.8522 27.6711L28.5131 26.2099ZM30.7384 25.6935L31.0774 27.1547C31.8281 26.9805 32.3247 26.2659 32.226 25.5016L30.7384 25.6935ZM30.7383 25.6929L32.226 25.5009C32.1717 25.0806 31.9422 24.7029 31.5942 24.461C31.2461 24.2192 30.812 24.1359 30.3992 24.2317L30.7383 25.6929ZM29.4948 25.9814L29.1557 24.5203L29.1557 24.5203L29.4948 25.9814ZM28.512 26.2095L28.1729 24.7483C27.5288 24.8978 27.0586 25.4514 27.0152 26.1112C26.9719 26.771 27.3658 27.3814 27.9848 27.6138L28.512 26.2095ZM32.0716 24.0032L31.4984 25.3894C32.0909 25.6343 32.7736 25.4757 33.1973 24.9946L32.0716 24.0032ZM31.0022 23.561L29.91 22.5329C29.572 22.892 29.4321 23.3942 29.5358 23.8763C29.6394 24.3584 29.9734 24.7588 30.4291 24.9472L31.0022 23.561ZM32.0726 24.0021L33.1982 24.9935C33.5184 24.63 33.6433 24.1343 33.5336 23.6626C33.424 23.1908 33.0933 22.801 32.6457 22.6159L32.0726 24.0021ZM31.0033 23.56L31.5764 22.1738C31.0008 21.9358 30.3379 22.0783 29.911 22.5318L31.0033 23.56ZM30.1016 28.6032L29.7624 27.1421C29.3245 27.2437 28.9554 27.5364 28.7565 27.9394C28.5575 28.3425 28.5499 28.8136 28.7356 29.2229L30.1016 28.6032ZM30.3848 29.2275L31.8047 28.744C31.789 28.6977 31.771 28.6523 31.7508 28.6078L30.3848 29.2275ZM30.103 28.6029L31.469 27.9832C31.1737 27.3322 30.46 26.9801 29.7637 27.1418L30.103 28.6029ZM30.3864 29.2276L31.8063 28.7442C31.7906 28.6979 31.7726 28.6524 31.7524 28.6079L30.3864 29.2276ZM30.6042 29.8676L29.1843 30.351C29.3235 30.7598 29.632 31.0887 30.0311 31.2537L30.6042 29.8676ZM31.673 30.3095L32.0114 31.7708C32.6468 31.6237 33.1144 31.0828 33.168 30.4328C33.2216 29.7827 32.849 29.1726 32.2462 28.9233L31.673 30.3095ZM31.6723 30.3097L31.0991 31.6958C31.3877 31.8152 31.7064 31.8415 32.0106 31.771L31.6723 30.3097ZM30.6027 29.8674L29.1827 30.3509C29.3219 30.7596 29.6304 31.0886 30.0295 31.2536L30.6027 29.8674ZM32.524 30.1126L32.1847 28.6514C31.5393 28.8013 31.0687 29.3569 31.0269 30.0181L32.524 30.1126ZM32.4798 30.8128L30.9828 30.7183C30.9767 30.8141 30.9799 30.9103 30.9922 31.0055L32.4798 30.8128ZM32.5256 30.1122L34.0226 30.2066C34.0524 29.7334 33.8569 29.274 33.4951 28.9676C33.1334 28.6612 32.6481 28.5438 32.1863 28.6511L32.5256 30.1122ZM32.4814 30.8129L30.9844 30.7185C30.9783 30.8143 30.9815 30.9104 30.9938 31.0056L32.4814 30.8129ZM32.5682 31.4827L32.9081 32.9437C33.6586 32.7691 34.1547 32.0542 34.0557 31.29L32.5682 31.4827ZM32.5667 31.4831L31.0791 31.6758C31.1335 32.0961 31.3633 32.4738 31.7115 32.7154C32.0597 32.9571 32.4938 33.0401 32.9066 32.9441L32.5667 31.4831ZM34.7945 30.9666L34.4552 29.5055C34.0052 29.61 33.6285 29.916 33.4339 30.3351C33.2394 30.7541 33.2489 31.2394 33.4595 31.6506L34.7945 30.9666ZM35.4266 32.2004L36.9218 32.0811C36.9061 31.8842 36.8517 31.6923 36.7616 31.5165L35.4266 32.2004ZM34.7958 30.9663L36.1308 30.2824C35.8171 29.6699 35.1269 29.3495 34.4566 29.5052L34.7958 30.9663ZM35.4282 32.2005L36.9234 32.0813C36.9077 31.8843 36.8532 31.6924 36.7632 31.5166L35.4282 32.2005ZM35.5363 33.5564L36.4497 34.7462C36.853 34.4366 37.072 33.9439 37.0316 33.4371L35.5363 33.5564ZM34.2473 34.546L35.1049 35.7767C35.1238 35.7635 35.1424 35.7499 35.1607 35.7358L34.2473 34.546ZM32.7617 35.5812L31.9041 34.3505C31.6245 34.5454 31.4196 34.8296 31.3231 35.1564L32.7617 35.5812ZM32.105 37.8051L30.6664 37.3802C30.659 37.4051 30.6523 37.4302 30.6463 37.4555L32.105 37.8051ZM31.7545 39.2674L32.0936 40.7285C32.6472 40.6001 33.0807 40.1697 33.2132 39.617L31.7545 39.2674ZM30.7062 39.5106L31.0453 40.9718L31.0453 40.9718L30.7062 39.5106ZM29.7234 39.7387L30.0625 41.1999L30.0625 41.1999L29.7234 39.7387ZM29.3958 39.8147L29.0568 38.3535C28.4591 38.4922 28.0061 38.981 27.9132 39.5875L29.3958 39.8147ZM29.2861 40.5306L28.5552 41.8405C28.9844 42.08 29.5037 42.094 29.9452 41.8781C30.3867 41.6622 30.6944 41.2437 30.7688 40.7579L29.2861 40.5306ZM29.2847 40.5298L27.802 40.3026C27.7071 40.9217 28.0068 41.5345 28.5537 41.8397L29.2847 40.5298ZM29.3943 39.8146L29.0552 38.3534C28.4575 38.4921 28.0045 38.9809 27.9116 39.5874L29.3943 39.8146ZM29.7219 39.7386L29.3828 38.2774L29.3828 38.2774L29.7219 39.7386ZM30.7046 39.5105L31.0437 40.9717L31.0437 40.9717L30.7046 39.5105ZM31.7529 39.2672L32.092 40.7284C32.6457 40.5999 33.0791 40.1696 33.2116 39.6168L31.7529 39.2672ZM32.1034 37.805L30.6648 37.3801C30.6574 37.405 30.6507 37.4301 30.6447 37.4553L32.1034 37.805ZM32.7601 35.5811L31.9025 34.3504C31.6229 34.5452 31.418 34.8295 31.3215 35.1563L32.7601 35.5811ZM34.2457 34.5459L35.1033 35.7765C35.1222 35.7634 35.1408 35.7497 35.1591 35.7357L34.2457 34.5459ZM35.5347 33.5563L36.4482 34.7461C36.8514 34.4365 37.0704 33.9437 37.03 33.437L35.5347 33.5563ZM21.8648 35.3483L21.5257 33.8871C21.0408 33.9996 20.6433 34.3455 20.4647 34.8102C20.2861 35.2749 20.3497 35.7979 20.6344 36.2063L21.8648 35.3483ZM22.192 35.8174L20.9616 36.6754C21.2201 37.0462 21.632 37.2806 22.0828 37.3134C22.5336 37.3463 22.9752 37.1742 23.2848 36.8449L22.192 35.8174ZM22.8475 35.1202L23.9403 36.1477C24.3931 35.6662 24.4773 34.9451 24.1477 34.3722C23.818 33.7993 23.1523 33.5097 22.5084 33.6591L22.8475 35.1202ZM27.0647 30.6884L28.5433 30.941C28.6799 30.1413 28.1559 29.3779 27.3605 29.2179L27.0647 30.6884ZM26.9758 31.2086L26.2441 32.518C26.6693 32.7556 27.1834 32.772 27.6229 32.5619C28.0623 32.3518 28.3724 31.9413 28.4544 31.4612L26.9758 31.2086ZM25.4714 30.3678L25.7673 28.8973C25.0874 28.7605 24.4024 29.1076 24.1106 29.7367C23.8189 30.3659 23.9964 31.113 24.54 31.5436L25.4714 30.3678ZM25.4717 30.3681L24.5403 31.5438C24.6031 31.5937 24.6699 31.6383 24.74 31.6775L25.4717 30.3681ZM24.7944 29.8342L24.4553 28.3731C23.8937 28.5034 23.4565 28.9441 23.3306 29.5067C23.2047 30.0693 23.4124 30.6543 23.8649 31.0116L24.7944 29.8342ZM24.7949 29.8346L25.134 31.2958C25.6956 31.1655 26.1328 30.7248 26.2587 30.1622C26.3846 29.5996 26.1769 29.0146 25.7244 28.6573L24.7949 29.8346ZM25.3835 29.6975L25.7226 31.1587C26.4104 30.9991 26.8937 30.3814 26.8833 29.6754C26.8729 28.9694 26.3715 28.3663 25.6793 28.227L25.3835 29.6975ZM23.7916 29.3773L24.0874 27.9067C23.8776 27.8645 23.6611 27.8677 23.4525 27.9161L23.7916 29.3773ZM23.595 29.4229L23.256 27.9617L23.2553 27.9619L23.595 29.4229ZM23.5947 29.423L23.2549 27.962C22.7931 28.0694 22.4092 28.3888 22.2197 28.8234C22.0302 29.258 22.0573 29.7567 22.2929 30.1682L23.5947 29.423ZM23.9435 30.0322L22.6417 30.7774C22.9706 31.3521 23.6375 31.6431 24.2825 31.4934L23.9435 30.0322ZM22.8258 3.98343L20.8389 3.75401L20.4948 6.73421L22.4817 6.96362L22.8258 3.98343ZM24.4113 3.52583L22.3147 4.01235L22.9928 6.9347L25.0894 6.44818L24.4113 3.52583ZM26.8377 5.25113L25.9433 4.07771L23.5573 5.89629L24.4517 7.06971L26.8377 5.25113ZM27.704 6.49104L26.8751 5.30243L24.4143 7.01841L25.2432 8.20703L27.704 6.49104ZM28.7262 7.28298L27.4387 6.20079L25.5084 8.49728L26.7959 9.57948L28.7262 7.28298ZM29.9301 8.51617L28.8392 7.38834L26.6829 9.47411L27.7738 10.6019L29.9301 8.51617ZM30.6001 11.3773L30.3396 9.36634L27.3644 9.75177L27.6249 11.7627L30.6001 11.3773ZM30.6544 12.8945L30.6118 11.5234L27.6132 11.6167L27.6559 12.9877L30.6544 12.8945ZM31.1548 13.4149L30.457 12.1959L27.8534 13.6863L28.5512 14.9053L31.1548 13.4149ZM32.0772 14.1415L30.8552 13.0441L28.8507 15.2761L30.0727 16.3736L32.0772 14.1415ZM34.5291 17.2643L32.2604 14.3384L29.8896 16.1767L32.1583 19.1026L34.5291 17.2643ZM36.0186 20.7712L34.7327 17.6172L31.9547 18.7498L33.2406 21.9038L36.0186 20.7712ZM35.6341 22.4515L35.6353 22.4504L33.624 20.2245L33.6228 20.2256L35.6341 22.4515ZM36.2416 20.7711L35.6307 20.2225L33.6262 22.4546L34.2371 23.0032L36.2416 20.7711ZM36.9267 20.8802L35.7261 20.4683L34.7526 23.306L35.9533 23.7178L36.9267 20.8802ZM40.2455 24.0756L37.5181 21.2561L35.3619 23.3419L38.0892 26.1614L40.2455 24.0756ZM42.0025 25.6486L40.1696 24.0025L38.1651 26.2345L39.998 27.8806L42.0025 25.6486ZM39.4877 29.8868L41.9348 27.938L40.0658 25.5912L37.6188 27.5401L39.4877 29.8868ZM41.5996 31.0158L39.855 27.9682L37.2515 29.4586L38.996 32.5062L41.5996 31.0158ZM41.9859 33.6435L41.7909 31.6173L38.8047 31.9047L38.9997 33.9309L41.9859 33.6435ZM42.1809 35.6697L41.9859 33.6435L38.9997 33.9309L39.1947 35.9571L42.1809 35.6697ZM40.5453 34.3066L40.3488 34.3522L41.0269 37.2746L41.2234 37.229L40.5453 34.3066ZM41.266 34.1394L40.5453 34.3066L41.2235 37.2289L41.9442 37.0617L41.266 34.1394ZM43.2499 35.3368L42.8355 34.7425L40.3747 36.4585L40.7891 37.0528L43.2499 35.3368ZM41.3915 38.4607L42.8771 37.4255L41.1619 34.9642L39.6763 35.9994L41.3915 38.4607ZM38.7798 42.2469L41.7526 38.1046L39.3153 36.3555L36.3425 40.4977L38.7798 42.2469ZM39.7668 47.2441L39.0508 41.196L36.0716 41.5487L36.7876 47.5968L39.7668 47.2441ZM41.1095 52.9768L39.7382 47.0807L36.8162 47.7602L38.1875 53.6564L41.1095 52.9768ZM39.162 56.0779L40.7573 54.3268L38.5396 52.3064L36.9443 54.0576L39.162 56.0779ZM36.1646 57.0459L38.3922 56.5289L37.7141 53.6066L35.4865 54.1235L36.1646 57.0459ZM35.1155 57.8771L36.6667 56.8267L34.9844 54.3427L33.4333 55.3931L35.1155 57.8771ZM33.0411 58.4612L34.6135 58.0963L33.9354 55.1739L32.3629 55.5388L33.0411 58.4612ZM29.0917 54.2256L31.4472 57.8219L33.9568 56.1781L31.6012 52.5818L29.0917 54.2256ZM27.4014 49.4077L28.9265 53.8872L31.7664 52.9203L30.2413 48.4408L27.4014 49.4077ZM25.4684 47.78L27.7813 50.0052L29.8613 47.8433L27.5484 45.6181L25.4684 47.78ZM23.2058 44.5855L25.278 47.5571L27.7388 45.8411L25.6666 42.8695L23.2058 44.5855ZM23.7417 41.5842L23.0637 43.1225L25.8088 44.3325L26.4869 42.7942L23.7417 41.5842ZM24.5521 40.4465L23.9182 41.284L26.3104 43.0944L26.9442 42.2568L24.5521 40.4465ZM26.0372 39.2039L24.8137 40.1783L26.6826 42.525L27.9061 41.5506L26.0372 39.2039ZM28.073 38.5818L26.6326 38.9161L27.3107 41.8384L28.7512 41.5042L28.073 38.5818ZM27.6813 41.3529L27.6819 41.3533L29.1423 38.7327L29.1417 38.7324L27.6813 41.3529ZM27.3092 41.8383L28.7506 41.5038L28.0724 38.5815L26.631 38.9159L27.3092 41.8383ZM26.681 42.5249L27.9046 41.5505L26.0356 39.2038L24.8121 40.1782L26.681 42.5249ZM23.6046 41.2102L24.63 42.3532L26.8631 40.3498L25.8377 39.2068L23.6046 41.2102ZM23.1164 41.03L23.9894 41.5179L25.4529 38.8991L24.5798 38.4112L23.1164 41.03ZM22.1987 39.7156L22.4821 40.3403L25.2141 39.1009L24.9307 38.4762L22.1987 39.7156ZM21.5974 38.5456L22.2297 39.7798L24.8997 38.412L24.2674 37.1777L21.5974 38.5456ZM20.6505 37.9725L22.0036 39.0395L23.8612 36.6838L22.5082 35.6168L20.6505 37.9725ZM21.0012 38.4687L21.9185 38.2558L21.2403 35.3335L20.3231 35.5463L21.0012 38.4687ZM19.1415 36.3686L19.1629 37.0542L22.1614 36.9609L22.1401 36.2754L19.1415 36.3686ZM18.9904 36.4581L19.339 37.0672L21.9426 35.5768L21.5939 34.9677L18.9904 36.4581ZM17.7723 37.0881L20.2168 37.211L20.3675 34.2148L17.923 34.0919L17.7723 37.0881ZM15.6396 36.8677L17.6919 37.0819L18.0034 34.0981L15.951 33.8839L15.6396 36.8677ZM13.9828 34.493L14.3531 35.7881L17.2375 34.9635L16.8673 33.6684L13.9828 34.493ZM12.3787 31.7783L14.1232 34.8259L16.7268 33.3355L14.9823 30.2879L12.3787 31.7783ZM13.9309 29.4352L13.3414 29.572L14.0195 32.4943L14.6091 32.3575L13.9309 29.4352ZM13.411 32.1261L13.4118 32.1266L15.1282 29.6661L15.1275 29.6656L13.411 32.1261ZM14.0187 32.4938L14.6083 32.357L13.9302 29.4347L13.3405 29.5715L14.0187 32.4938ZM10.6852 28.691L12.3643 31.7537L14.9949 30.3116L13.3159 27.2488L10.6852 28.691ZM8.60107 26.8587L10.9795 29.0687L13.0216 26.871L10.6432 24.661L8.60107 26.8587ZM8.46323 24.8075L8.46232 24.8086L10.7819 26.7111L10.7828 26.71L8.46323 24.8075ZM4.25862 23.9024L8.77534 26.9963L10.4707 24.5213L5.95399 21.4273L4.25862 23.9024ZM0.591727 19.5682L3.95139 23.622L6.26122 21.7077L2.90156 17.6539L0.591727 19.5682ZM2.55657 15.7254L0.699189 17.5374L2.7941 19.6848L4.65148 17.8728L2.55657 15.7254ZM4.49367 13.8845L2.57077 15.7117L4.63728 17.8865L6.56017 16.0593L4.49367 13.8845ZM8.16164 15.7068L6.65627 13.9847L4.39757 15.9591L5.90294 17.6812L8.16164 15.7068ZM9.31414 16.5832L7.96113 15.5162L6.10345 17.8719L7.45646 18.9389L9.31414 16.5832ZM9.43308 14.7909L7.37915 16.6485L9.39145 18.8735L11.4454 17.0159L9.43308 14.7909ZM8.8014 15.747L9.01928 16.3869L11.8592 15.42L11.6413 14.7801L8.8014 15.747ZM10.9306 13.5591L9.88229 13.8023L10.5604 16.7247L11.6087 16.4814L10.9306 13.5591ZM13.5515 14.9094L12.1985 13.8424L10.3408 16.1981L11.6938 17.2651L13.5515 14.9094ZM15.137 16.9624L13.8282 15.1947L11.4171 16.9798L12.7259 18.7476L15.137 16.9624ZM14.5097 16.181L13.5924 16.3938L14.2705 19.3162L15.1878 19.1033L14.5097 16.181ZM16.4747 16.7346L15.4706 16.2771L14.2268 19.0071L15.2309 19.4646L16.4747 16.7346ZM17.2258 19.0426L17.3355 18.3268L14.3701 17.8724L14.2604 18.5882L17.2258 19.0426ZM15.4042 17.3542L15.4036 17.3543L16.0827 20.2764L16.0833 20.2763L15.4042 17.3542ZM14.3707 17.8721L14.261 18.588L17.2264 19.0424L17.3361 18.3265L14.3707 17.8721ZM14.2274 19.0068L15.2315 19.4643L16.4753 16.7343L15.4712 16.2768L14.2274 19.0068ZM14.2712 19.3158L15.1884 19.103L14.5103 16.1806L13.593 16.3935L14.2712 19.3158ZM11.4177 16.9795L12.7266 18.7472L15.1376 16.9621L13.8288 15.1943L11.4177 16.9795ZM10.3414 16.1978L11.6944 17.2647L13.5521 14.9091L12.1991 13.8421L10.3414 16.1978ZM9.14325 12.7908L9.8182 15.3961L12.7223 14.6437L12.0474 12.0384L9.14325 12.7908ZM10.5838 10.8774L10.2562 10.9534L10.9344 13.8758L11.262 13.7998L10.5838 10.8774ZM12.5677 12.0749L12.1533 11.4806L9.69251 13.1966L10.1069 13.7909L12.5677 12.0749ZM11.1712 10.9753L10.2752 11.8737L12.3994 13.9921L13.2954 13.0937L11.1712 10.9753ZM11.5387 9.89121L10.8607 11.4295L13.6058 12.6395L14.2839 11.1012L11.5387 9.89121ZM11.306 11.1405L11.9825 11.674L13.8402 9.3184L13.1636 8.7849L11.306 11.1405ZM10.8262 8.46684L10.7378 9.86831L13.7318 10.0571L13.8202 8.65567L10.8262 8.46684ZM9.97466 7.4779L11.0214 9.30646L13.625 7.81605L12.5783 5.98749L9.97466 7.4779ZM9.8443 4.59751L9.77723 6.68452L12.7757 6.78088L12.8428 4.69387L9.8443 4.59751ZM10.4805 2.62626L9.93344 4.13416L12.7536 5.15723L13.3006 3.64933L10.4805 2.62626ZM13.5539 2.16094L12.4187 1.73387L11.3623 4.54172L12.4975 4.96879L13.5539 2.16094ZM14.7704 2.50431L13.4387 2.12286L12.6126 5.00687L13.9443 5.38833L14.7704 2.50431ZM13.0739 2.86558L12.8987 3.59672L15.8161 4.29592L15.9913 3.56478L13.0739 2.86558ZM13.0557 1.80416L13.0328 3.19043L16.0324 3.23993L16.0553 1.85366L13.0557 1.80416ZM16.3682 0.721376L14.9055 0.370327L14.2054 3.28749L15.6681 3.63854L16.3682 0.721376ZM18.3301 2.02682L16.9116 0.975039L15.1248 3.38488L16.5433 4.43666L18.3301 2.02682ZM19.05 2.66445L18.439 2.11574L16.4344 4.34775L17.0454 4.89647L19.05 2.66445ZM18.3638 2.16725L17.7086 2.31929L18.3868 5.24163L19.042 5.0896L18.3638 2.16725ZM20.2773 4.10602L20.1904 3.43571L17.2153 3.82114L17.3021 4.49144L20.2773 4.10602ZM20.4391 4.30377L20.1557 3.67905L17.4237 4.91841L17.7071 5.54312L20.4391 4.30377ZM18.5109 3.18069L17.877 4.01826L20.2692 5.82863L20.9031 4.99106L18.5109 3.18069ZM20.2196 2.42705L19.3679 2.6247L20.046 5.54705L20.8978 5.3494L20.2196 2.42705ZM22.2094 3.75254L21.8605 3.14302L19.2569 4.63343L19.6058 5.24294L22.2094 3.75254ZM22.0945 5.70457L22.3352 4.95821L19.48 4.03727L19.2393 4.78364L22.0945 5.70457ZM14.5732 20.6269L14.5735 20.6268L13.8995 17.7035L13.8992 17.7036L14.5732 20.6269ZM14.308 21.1662L15.2694 20.2526L13.2029 18.0779L12.2415 18.9915L14.308 21.1662ZM14.9196 19.8152L14.5051 19.2209L12.0444 20.9368L12.4588 21.5312L14.9196 19.8152ZM14.0708 19.0447L13.3501 19.212L14.0283 22.1343L14.7489 21.9671L14.0708 19.0447ZM15.3911 21.9303L15.7629 21.1535L13.0569 19.8583L12.6851 20.6351L15.3911 21.9303ZM14.9842 23.2359L15.4657 21.7432L12.6105 20.8222L12.129 22.3149L14.9842 23.2359ZM12.7819 24.495L13.8957 24.2366L13.2175 21.3142L12.1037 21.5727L12.7819 24.495ZM12.0612 24.6623L12.7819 24.495L12.1037 21.5727L11.383 21.7399L12.0612 24.6623ZM12.883 24.151L12.883 24.1509L10.5612 22.2512L10.5611 22.2513L12.883 24.151ZM12.1019 21.5731L11.383 21.74L12.0611 24.6623L12.78 24.4955L12.1019 21.5731ZM13.2157 21.3147L12.1019 21.5731L12.78 24.4955L13.8938 24.237L13.2157 21.3147ZM14.7226 20.965L13.2157 21.3147L13.8938 24.237L15.4007 23.8873L14.7226 20.965ZM17.1255 21.2005L15.2696 20.9406L14.8537 23.9117L16.7095 24.1715L17.1255 21.2005ZM18.5524 22.3079L18.0724 21.7288L15.7626 23.6431L16.2425 24.2223L18.5524 22.3079ZM18.918 23.904L18.8967 23.2185L15.8982 23.3117L15.9195 23.9972L18.918 23.904ZM20.1312 23.449L17.992 22.5644L16.8456 25.3368L18.9848 26.2214L20.1312 23.449ZM20.6603 23.0395L19.2189 23.374L19.8971 26.2964L21.3385 25.9619L20.6603 23.0395ZM23.3745 24.2697L21.8249 23.2483L20.1739 25.7531L21.7235 26.7745L23.3745 24.2697ZM24.1538 24.7005L23.2807 24.2127L21.8172 26.8315L22.6903 27.3194L24.1538 24.7005ZM23.4105 24.4728L23.083 24.5488L23.7611 27.4711L24.0887 27.3951L23.4105 24.4728ZM24.731 27.358L25.1026 26.5815L22.3966 25.2863L22.025 26.0628L24.731 27.358ZM23.041 25.2487L23.0387 25.2493L23.7173 28.1715L23.7196 28.171L23.041 25.2487ZM22.3991 25.2855L22.0273 26.0623L24.7333 27.3575L25.1051 26.5807L22.3991 25.2855ZM23.7635 27.4703L24.0911 27.3943L23.413 24.4719L23.0854 24.548L23.7635 27.4703ZM21.8197 26.8307L22.6927 27.3185L24.1562 24.6997L23.2832 24.2118L21.8197 26.8307ZM20.1763 25.7523L21.7259 26.7737L23.3769 24.2688L21.8274 23.2475L20.1763 25.7523ZM19.8995 26.2955L21.3409 25.961L20.6628 23.0387L19.2214 23.3732L19.8995 26.2955ZM16.848 25.336L18.9873 26.2205L20.1336 23.4482L17.9944 22.5636L16.848 25.336ZM15.9006 23.3109L15.9219 23.9964L18.9205 23.9032L18.8992 23.2176L15.9006 23.3109ZM15.765 23.6423L16.245 24.2214L18.5548 22.3071L18.0749 21.728L15.765 23.6423ZM14.8561 23.9108L16.712 24.1707L17.1279 21.1996L15.2721 20.9398L14.8561 23.9108ZM13.8963 24.2362L15.4032 23.8865L14.7251 20.9642L13.2181 21.3138L13.8963 24.2362ZM12.6111 20.8218L12.1296 22.3145L14.9848 23.2355L15.4663 21.7428L12.6111 20.8218ZM13.0575 19.858L12.6857 20.6347L15.3917 21.9299L15.7635 21.1532L13.0575 19.858ZM14.0289 22.134L14.7496 21.9667L14.0714 19.0444L13.3507 19.2116L14.0289 22.134ZM12.045 20.9365L12.4594 21.5308L14.9202 19.8148L14.5057 19.2205L12.045 20.9365ZM13.2033 18.0778L12.2421 18.9911L14.3086 21.1659L15.2698 20.2526L13.2033 18.0778ZM14.1523 32.6437L14.1531 32.6442L15.8712 30.185L15.8705 30.1844L14.1523 32.6437ZM15.4722 29.2046L14.1177 30.2093L15.905 32.6188L17.2595 31.614L15.4722 29.2046ZM16.7415 28.2299L15.4524 29.2195L17.2793 31.5991L18.5683 30.6095L16.7415 28.2299ZM18.5847 28.2427L18.584 28.2421L16.7258 30.5973L16.7265 30.5979L18.5847 28.2427ZM17.2801 31.5996L18.569 30.6101L16.7422 28.2305L15.4533 29.22L17.2801 31.5996ZM15.9058 32.6193L17.2604 31.6145L15.473 29.205L14.1185 30.2099L15.9058 32.6193ZM17.7994 31.5602L17.8 31.5609L19.9554 29.4742L19.9547 29.4735L17.7994 31.5602ZM18.2112 28.8419L17.643 29.664L20.111 31.3697L20.6792 30.5475L18.2112 28.8419ZM19.7613 28.0815L19.1061 28.2336L19.7843 31.1559L20.4394 31.0039L19.7613 28.0815ZM21.0314 28.3666L21.0307 28.3661L19.17 30.7193L19.1707 30.7198L21.0314 28.3666ZM19.7851 31.1564L20.4401 31.0044L19.762 28.082L19.107 28.234L19.7851 31.1564ZM20.1117 31.3704L20.68 30.548L18.2121 28.8424L17.6437 29.6648L20.1117 31.3704ZM19.848 31.2537L19.8486 31.2542L21.7069 28.8991L21.7062 28.8985L19.848 31.2537ZM21.224 28.4326L20.438 28.615L21.1162 31.5373L21.9022 31.3549L21.224 28.4326ZM21.3007 27.983L20.4703 28.8662L22.6559 30.9212L23.4863 30.0381L21.3007 27.983ZM20.9111 28.7814L20.9108 28.7833L23.8762 29.2378L23.8765 29.2358L20.9111 28.7814ZM23.8554 28.6712L23.8548 28.6688L20.9328 29.3484L20.9334 29.3508L23.8554 28.6712ZM22.6568 30.9217L23.4872 30.0385L21.3016 27.9835L20.4712 28.8667L22.6568 30.9217ZM21.1168 31.5378L21.903 31.3554L21.2249 28.433L20.4387 28.6155L21.1168 31.5378ZM24.1493 27.3294L24.151 27.3238L21.296 26.4026L21.2942 26.4081L24.1493 27.3294ZM21.24 26.6354L21.2391 26.6414L24.2044 27.0961L24.2053 27.0901L21.24 26.6354ZM22.3865 25.4009L22.3837 25.4015L23.0616 28.3239L23.0644 28.3233L22.3865 25.4009ZM25.3155 26.4391L23.3733 25.5092L22.0777 28.215L24.02 29.145L25.3155 26.4391ZM26.7898 29.1657L26.0711 27.2622L23.2645 28.3219L23.9832 30.2254L26.7898 29.1657ZM26.2984 30.8866L26.3 30.8853L24.473 28.5058L24.4714 28.507L26.2984 30.8866ZM23.2629 28.3232L23.9816 30.2266L26.7882 29.1669L26.0695 27.2635L23.2629 28.3232ZM22.0757 28.2161L24.0184 29.1463L25.314 26.4404L23.3713 25.5103L22.0757 28.2161ZM29.1483 27.5609L28.7348 26.9679L26.274 28.6839L26.6876 29.2769L29.1483 27.5609ZM29.5233 27.7746L28.8468 27.2411L26.9891 29.5968L27.6656 30.1302L29.5233 27.7746ZM28.7795 27.3696L28.2554 27.4913L28.9335 30.4136L29.4577 30.292L28.7795 27.3696ZM29.4347 27.2176L28.7795 27.3696L29.4577 30.292L30.1129 30.1399L29.4347 27.2176ZM29.4366 27.2171L29.4351 27.2175L30.1125 30.14L30.1141 30.1397L29.4366 27.2171ZM28.2786 28.778L28.2787 28.7782L31.272 28.5786L31.272 28.5785L28.2786 28.778ZM29.4605 30.2912L30.1144 30.1394L29.4363 27.2171L28.7824 27.3688L29.4605 30.2912ZM28.9364 30.4128L29.4605 30.2912L28.7824 27.3688L28.2582 27.4905L28.9364 30.4128ZM26.992 29.596L27.6685 30.1294L29.5261 27.7738L28.8496 27.2403L26.992 29.596ZM26.276 28.6818L26.6904 29.2761L29.1512 27.5601L28.7368 26.9658L26.276 28.6818ZM28.5976 28.853L28.5996 28.8509L26.4132 26.7967L26.4112 26.7988L28.5976 28.853ZM29.1545 24.5212L28.174 24.7487L28.8522 27.6711L29.8326 27.4436L29.1545 24.5212ZM30.3993 24.2324L29.1545 24.5212L29.8326 27.4436L31.0774 27.1547L30.3993 24.2324ZM29.2506 25.8848L29.2507 25.8855L32.226 25.5016L32.226 25.5009L29.2506 25.8848ZM29.8339 27.4426L31.0774 27.1541L30.3992 24.2317L29.1557 24.5203L29.8339 27.4426ZM28.8511 27.6707L29.8339 27.4426L29.1557 24.5203L28.1729 24.7483L28.8511 27.6707ZM29.0403 24.8056L29.0392 24.8052L27.9848 27.6138L27.9859 27.6142L29.0403 24.8056ZM32.6448 22.617L31.5754 22.1748L30.4291 24.9472L31.4984 25.3894L32.6448 22.617ZM30.9469 23.0107L30.9459 23.0118L33.1973 24.9946L33.1982 24.9935L30.9469 23.0107ZM30.4301 24.9461L31.4994 25.3883L32.6457 22.6159L31.5764 22.1738L30.4301 24.9461ZM32.0945 24.5891L32.0955 24.5881L29.911 22.5318L29.91 22.5329L32.0945 24.5891ZM28.7356 29.2229L29.0188 29.8471L31.7508 28.6078L31.4676 27.9835L28.7356 29.2229ZM29.7637 27.1418L29.7624 27.1421L30.4408 30.0644L30.4422 30.064L29.7637 27.1418ZM31.7524 28.6079L31.469 27.9832L28.7369 29.2226L29.0203 29.8473L31.7524 28.6079ZM32.0242 29.3841L31.8063 28.7442L28.9664 29.7111L29.1843 30.351L32.0242 29.3841ZM32.2462 28.9233L31.1774 28.4814L30.0311 31.2537L31.0999 31.6957L32.2462 28.9233ZM32.0106 31.771L32.0114 31.7708L31.3347 28.8482L31.3339 28.8483L32.0106 31.771ZM30.0295 31.2536L31.0991 31.6958L32.2454 28.9235L31.1758 28.4812L30.0295 31.2536ZM28.9648 29.7109L29.1827 30.3509L32.0226 29.384L31.8047 28.744L28.9648 29.7109ZM31.0269 30.0181L30.9828 30.7183L33.9768 30.9072L34.021 30.207L31.0269 30.0181ZM32.1863 28.6511L32.1847 28.6514L32.8633 31.5737L32.8649 31.5733L32.1863 28.6511ZM33.9784 30.9073L34.0226 30.2066L31.0286 30.0178L30.9844 30.7185L33.9784 30.9073ZM34.0557 31.29L33.969 30.6202L30.9938 31.0056L31.0806 31.6755L34.0557 31.29ZM32.9066 32.9441L32.9081 32.9437L32.2282 30.0218L32.2267 30.0221L32.9066 32.9441ZM30.9922 31.0055L31.0791 31.6758L34.0542 31.2904L33.9674 30.62L30.9922 31.0055ZM33.4595 31.6506L34.0916 32.8843L36.7616 31.5165L36.1295 30.2827L33.4595 31.6506ZM34.4566 29.5052L34.4552 29.5055L35.1338 32.4278L35.1351 32.4274L34.4566 29.5052ZM36.7632 31.5166L36.1308 30.2824L33.4608 31.6503L34.0932 32.8845L36.7632 31.5166ZM37.0316 33.4371L36.9234 32.0813L33.9329 32.3198L34.0411 33.6757L37.0316 33.4371ZM35.1607 35.7358L36.4497 34.7462L34.6229 32.3666L33.3338 33.3562L35.1607 35.7358ZM33.6193 36.8119L35.1049 35.7767L33.3897 33.3153L31.9041 34.3505L33.6193 36.8119ZM33.5435 38.2299L34.2003 36.0061L31.3231 35.1564L30.6664 37.3802L33.5435 38.2299ZM33.2132 39.617L33.5636 38.1547L30.6463 37.4555L30.2958 38.9178L33.2132 39.617ZM31.0453 40.9718L32.0936 40.7285L31.4154 37.8062L30.3671 38.0495L31.0453 40.9718ZM30.0625 41.1999L31.0453 40.9718L30.3671 38.0495L29.3844 38.2775L30.0625 41.1999ZM29.7349 41.2759L30.0625 41.1999L29.3844 38.2775L29.0568 38.3535L29.7349 41.2759ZM30.7688 40.7579L30.8785 40.0419L27.9132 39.5875L27.8034 40.3034L30.7688 40.7579ZM28.5537 41.8397L28.5552 41.8405L30.0171 39.2208L30.0156 39.22L28.5537 41.8397ZM27.9116 39.5874L27.802 40.3026L30.7674 40.757L30.877 40.0418L27.9116 39.5874ZM29.3828 38.2774L29.0552 38.3534L29.7333 41.2757L30.0609 41.1997L29.3828 38.2774ZM30.3656 38.0493L29.3828 38.2774L30.0609 41.1997L31.0437 40.9717L30.3656 38.0493ZM31.4138 37.8061L30.3656 38.0493L31.0437 40.9717L32.092 40.7284L31.4138 37.8061ZM30.6447 37.4553L30.2942 38.9176L33.2116 39.6168L33.5621 38.1546L30.6447 37.4553ZM31.3215 35.1563L30.6648 37.3801L33.542 38.2298L34.1987 36.0059L31.3215 35.1563ZM33.3881 33.3152L31.9025 34.3504L33.6177 36.8118L35.1033 35.7765L33.3881 33.3152ZM34.6213 32.3664L33.3323 33.3561L35.1591 35.7357L36.4482 34.7461L34.6213 32.3664ZM33.9313 32.3197L34.0395 33.6755L37.03 33.437L36.9218 32.0811L33.9313 32.3197ZM20.6344 36.2063L20.9616 36.6754L23.4224 34.9594L23.0952 34.4903L20.6344 36.2063ZM22.5084 33.6591L21.5257 33.8871L22.2039 36.8094L23.1866 36.5814L22.5084 33.6591ZM23.2848 36.8449L23.9403 36.1477L21.7547 34.0927L21.0992 34.7899L23.2848 36.8449ZM25.5861 30.4358L25.4972 30.956L28.4544 31.4612L28.5433 30.941L25.5861 30.4358ZM25.1755 31.8384L26.7688 32.1589L27.3605 29.2179L25.7673 28.8973L25.1755 31.8384ZM26.4031 29.1923L26.4029 29.1921L24.54 31.5436L24.5403 31.5438L26.4031 29.1923ZM27.7075 29.8992L26.2034 29.0587L24.74 31.6775L26.2441 32.518L27.7075 29.8992ZM23.8649 31.0116L23.8655 31.012L25.7244 28.6573L25.7239 28.6569L23.8649 31.0116ZM25.0444 28.2364L24.4553 28.3731L25.1335 31.2954L25.7226 31.1587L25.0444 28.2364ZM23.4957 30.8478L25.0876 31.1681L25.6793 28.227L24.0874 27.9067L23.4957 30.8478ZM23.9341 30.8841L24.1307 30.8385L23.4525 27.9161L23.256 27.9617L23.9341 30.8841ZM23.9345 30.884L23.9348 30.8839L23.2553 27.9619L23.2549 27.962L23.9345 30.884ZM25.2453 29.287L24.8965 28.6778L22.2929 30.1682L22.6417 30.7774L25.2453 29.287ZM24.4558 28.3735L23.6044 28.5711L24.2825 31.4934L25.134 31.2958L24.4558 28.3735Z" fill="#FE7333" mask="url(#path-1-outside-1_127_37987)"/>
</svg>
