<svg width="96" height="96" viewBox="0 0 96 96" fill="none" xmlns="http://www.w3.org/2000/svg">
<rect width="96" height="96" fill="#43B02A"/>
<path fill-rule="evenodd" clip-rule="evenodd" d="M83.4726 56.178L84 60.612H71.2068C69.0163 66.4867 65.2801 71.6608 60.3928 75.5877C55.0477 79.8004 48.231 82.4764 39.8195 83.4726L35.3859 84V71.2251C29.512 69.0306 24.3389 65.2922 20.4116 60.4037C16.1993 55.0581 13.5235 48.2408 12.5274 39.8285L12 35.3945H24.7867C26.9738 29.518 30.7106 24.3431 35.6006 20.4189C40.9459 16.2062 47.7624 13.5301 56.1739 12.5274L60.6077 12V24.7813C66.4835 26.9686 71.6579 30.7058 75.5819 35.5962C79.7941 40.9484 82.4765 47.7591 83.4726 56.178ZM43.3352 74.8389C47.7565 73.9473 51.9188 72.0663 55.5099 69.337L55.4773 69.3695C58.43 67.0079 60.8319 64.0303 62.5152 60.6446H48.485V52.7011H74.8267C73.9351 48.2793 72.0544 44.1166 69.3253 40.5252C66.966 37.5618 63.9888 35.1487 60.6011 33.4541V47.4726H52.6648V21.1481C48.243 22.0384 44.0804 23.9195 40.4901 26.65C37.5355 29.0098 35.1333 31.9878 33.4523 35.3749H47.4759V43.3251H21.1473C22.0312 47.748 23.9103 51.9118 26.6422 55.5008C29.007 58.4498 31.9864 60.8473 35.3729 62.5263V48.5079H43.3352V74.8389Z" fill="white"/>
</svg>
