<svg xmlns="http://www.w3.org/2000/svg" xmlns:xlink="http://www.w3.org/1999/xlink"><defs>
<clipPath id="clip0_89_1058">
<rect width="48" height="48" fill="white"/>
</clipPath>

<clipPath id="clip0_89_790">
<rect width="48" height="48" fill="white" transform="translate(0.5)"/>
</clipPath>

<clipPath id="clip0_89_1563">
<rect width="48" height="48" fill="white"/>
</clipPath>

<clipPath id="clip0_89_72">
<rect width="48" height="48" fill="white" transform="translate(0.5)"/>
</clipPath>
</defs><symbol id="burger-menu" viewBox="0 0 24 16"><g fill="none">
<path d="M24 16H0V13.3333H24V16ZM24 9.33333H0V6.66667H24V9.33333ZM24 2.66667H0V0H24V2.66667Z" fill="#292929"/>
</g></symbol><symbol id="clients" viewBox="0 0 48 48"><g fill="none">
<g clip-path="url(#clip0_89_1058)">
<path d="M9.83203 15.2812C12.8369 15.2812 15.2812 12.8369 15.2812 9.83203C15.2812 6.82716 12.8369 4.38281 9.83203 4.38281C6.82716 4.38281 4.38281 6.82716 4.38281 9.83203C4.38281 12.8369 6.82716 15.2812 9.83203 15.2812ZM9.83203 8.01563C10.8335 8.01563 11.6484 8.83052 11.6484 9.83203C11.6484 10.8335 10.8335 11.6484 9.83203 11.6484C8.83052 11.6484 8.01563 10.8335 8.01563 9.83203C8.01563 8.83052 8.83052 8.01563 9.83203 8.01563ZM15.2812 39.0761V45.4336C15.2812 46.4369 14.4681 47.25 13.4648 47.25C12.4616 47.25 11.6484 46.4369 11.6484 45.4336V39.0761C11.6484 38.0729 12.4616 37.2597 13.4648 37.2597C14.4681 37.2597 15.2812 38.0729 15.2812 39.0761ZM11.4668 18.8687C11.4668 19.8719 10.6537 20.6851 9.65039 20.6851C4.38281 20.6851 4.38281 23.1592 4.38281 24.0908V31.8105C4.38281 32.6637 4.79008 33.4783 5.47265 33.9903C7.06485 35.1844 8.01563 37.0859 8.01563 39.0761V45.4336C8.01563 46.4369 7.20249 47.25 6.19921 47.25C5.19593 47.25 4.38281 46.4369 4.38281 45.4336V39.0761C4.38281 38.2229 3.97555 37.4084 3.29297 36.8965C1.70077 35.7024 0.75 33.8008 0.75 31.8105V24.0908C0.75 21.6355 1.75825 19.6952 3.66548 18.4805C5.15336 17.5327 7.16703 17.0523 9.65039 17.0523C10.6537 17.0523 11.4668 17.8653 11.4668 18.8687ZM38.168 15.2812C41.1728 15.2812 43.6172 12.8369 43.6172 9.83203C43.6172 6.82716 41.1728 4.38281 38.168 4.38281C35.1631 4.38281 32.7188 6.82716 32.7188 9.83203C32.7188 12.8369 35.1631 15.2812 38.168 15.2812ZM38.168 8.01563C39.1695 8.01563 39.9844 8.83052 39.9844 9.83203C39.9844 10.8335 39.1695 11.6484 38.168 11.6484C37.1664 11.6484 36.3516 10.8335 36.3516 9.83203C36.3516 8.83052 37.1664 8.01563 38.168 8.01563ZM36.3516 39.0761V45.4336C36.3516 46.4369 35.5384 47.25 34.5352 47.25C33.5319 47.25 32.7188 46.4369 32.7188 45.4336V39.0761C32.7188 38.0729 33.5319 37.2597 34.5352 37.2597C35.5384 37.2597 36.3516 38.0729 36.3516 39.0761ZM47.25 24.0908V31.8105C47.25 33.8008 46.2992 35.7024 44.7071 36.8965C44.0244 37.4084 43.6172 38.2229 43.6172 39.0761V45.4336C43.6172 46.4369 42.804 47.25 41.8008 47.25C40.7975 47.25 39.9844 46.4369 39.9844 45.4336V39.0761C39.9844 37.0859 40.9352 35.1844 42.5273 33.9903C43.2099 33.4783 43.6172 32.6637 43.6172 31.8105V24.0908C43.6172 23.1592 43.6172 20.6851 38.3496 20.6851C37.3463 20.6851 36.5332 19.8719 36.5332 18.8687C36.5332 17.8653 37.3463 17.0523 38.3496 17.0523C40.8329 17.0523 42.8467 17.5327 44.3345 18.4805C46.2417 19.6952 47.25 21.6355 47.25 24.0908Z" fill="#686868"/>
<path d="M24.0003 11.6484C27.0052 11.6484 29.4496 9.20409 29.4496 6.19921C29.4496 3.19435 27.0052 0.75 24.0003 0.75C20.9955 0.75 18.5511 3.19435 18.5511 6.19921C18.5511 9.20409 20.9955 11.6484 24.0003 11.6484ZM24.0003 4.38281C25.0019 4.38281 25.8167 5.19771 25.8167 6.19921C25.8167 7.20072 25.0019 8.01563 24.0003 8.01563C22.9988 8.01563 22.1839 7.20072 22.1839 6.19921C22.1839 5.19771 22.9988 4.38281 24.0003 4.38281ZM33.9905 29.6393C33.9905 31.8595 32.8077 33.9484 30.9041 35.0907L30.7728 35.1695C29.9565 35.6595 29.4496 36.5545 29.4496 37.506V45.4336C29.4496 46.4369 28.6364 47.25 27.6332 47.25C26.6299 47.25 25.8167 46.4369 25.8167 45.4336V37.506C25.8167 35.2859 26.9995 33.1969 28.9032 32.0547L29.0345 31.9759C29.8508 31.4863 30.3577 30.5908 30.3577 29.6393V21.5479C30.3577 17.7948 26.8757 17.0068 23.9549 17.0068C21.0341 17.0068 17.5521 17.7948 17.5521 21.5479V29.6131C17.5521 30.5745 18.0668 31.4743 18.8952 31.9617L19.0496 32.0525C20.9831 33.1899 22.1839 35.2893 22.1839 37.5323V45.4336C22.1839 46.4369 21.3708 47.25 20.3675 47.25C19.3643 47.25 18.5511 46.4369 18.5511 45.4336V37.5323C18.5511 36.5708 18.0364 35.6711 17.208 35.184L17.0536 35.0932C15.1201 33.9559 13.9193 31.856 13.9193 29.6131V21.5479C13.9193 18.8116 15.024 16.606 17.1143 15.1699C18.8243 13.9948 21.1899 13.374 23.9549 13.374C26.72 13.374 29.0856 13.9948 30.7955 15.1699C32.8859 16.606 33.9905 18.8116 33.9905 21.5479V29.6393Z" fill="#FE7333"/>
</g>

</g></symbol><symbol id="close-menu" viewBox="0 0 20 20"><g fill="none">
<path d="M17.4534 0.666504L10.0001 8.11984L2.54675 0.666504L0.666748 2.5465L8.12008 9.99984L0.666748 17.4532L2.54675 19.3332L10.0001 11.8798L17.4534 19.3332L19.3334 17.4532L11.8801 9.99984L19.3334 2.5465L17.4534 0.666504Z" fill="#292929"/>
</g></symbol><symbol id="evacuation" viewBox="0 0 49 48"><g fill="none">
<g clip-path="url(#clip0_89_790)">
<path d="M48.4999 17.3436C48.4999 18.3791 47.6605 19.2186 46.6249 19.2186H44.7499V25.9685C44.7499 29.5507 42.2256 32.5543 38.8623 33.2939C38.1398 35.5668 36.0091 37.2184 33.5 37.2184C31.0555 37.2184 28.9703 35.651 28.1964 33.4684H26.8438C25.8083 33.4684 24.9688 32.629 24.9688 31.5934C24.9688 30.5579 25.8083 29.7184 26.8438 29.7184H29.7501C30.7856 29.7184 31.6251 30.5579 31.6251 31.5934C31.6251 32.6273 32.4662 33.4684 33.5 33.4684C34.5339 33.4684 35.375 32.6273 35.375 31.5934C35.375 30.5579 36.2145 29.7184 37.25 29.7184C39.3178 29.7184 40.9999 28.0362 40.9999 25.9685V16.9088L37.2344 8.6871C36.2488 6.53515 34.2773 4.95895 31.9607 4.47071C29.6912 3.99249 27.2125 3.74996 24.5939 3.74996C21.9056 3.74996 19.3507 4.00243 17.0001 4.50043C14.7001 4.98764 12.7394 6.5615 11.7552 8.7105L8.00032 16.9088V25.031C8.00032 26.0665 7.16086 26.9059 6.12531 26.9059C5.08976 26.9059 4.25033 26.0665 4.25033 25.031V19.2186H2.37535C1.3398 19.2186 0.500366 18.3791 0.500366 17.3436C0.500366 16.308 1.3398 15.4686 2.37535 15.4686H4.53532L8.34584 7.14902C9.82214 3.92565 12.7669 1.56411 16.2229 0.83193C18.8286 0.279841 21.645 0 24.5939 0C27.472 0 30.2107 0.269622 32.734 0.801368C36.2085 1.53365 39.1655 3.8978 40.6438 7.12559L44.4649 15.4686H46.6249C47.6605 15.4686 48.4999 16.308 48.4999 17.3436ZM35.4688 19.2186H13.5315C12.496 19.2186 11.6565 18.3791 11.6565 17.3436C11.6565 16.308 12.496 15.4686 13.5315 15.4686H35.4688C36.5044 15.4686 37.3438 16.308 37.3438 17.3436C37.3438 18.3791 36.5044 19.2186 35.4688 19.2186ZM34.9063 22.5935C33.6119 22.5935 32.5626 23.6428 32.5626 24.9373C32.5626 26.2316 33.6119 27.2809 34.9063 27.2809C36.2007 27.2809 37.25 26.2316 37.25 24.9373C37.25 23.6428 36.2007 22.5935 34.9063 22.5935Z" fill="#FE7333"/>
<path d="M28.5312 46.1246C28.5312 47.1601 27.6918 47.9996 26.6562 47.9996H24.4898C24.4859 47.9996 24.4818 48 24.4778 48C24.4735 48 24.4692 47.9996 24.4648 47.9996H3.96898C2.93342 47.9996 2.09399 47.1601 2.09399 46.1246C2.09399 45.089 2.93342 44.2496 3.96898 44.2496H4.82087L10.926 26.9515C11.5914 25.0661 13.3132 23.8479 15.3126 23.8479C17.312 23.8479 19.0338 25.0661 19.6992 26.9515L25.8042 44.2496H26.6562C27.6918 44.2496 28.5312 45.089 28.5312 46.1246ZM8.79753 44.2496H21.8277L16.163 28.1996C15.9714 27.6565 15.5046 27.5978 15.3126 27.5978C15.1207 27.5978 14.6538 27.6563 14.4622 28.1996L8.79753 44.2496Z" fill="#686868"/>
</g>

</g></symbol><symbol id="fast" viewBox="0 0 48 48"><g fill="none">
<g clip-path="url(#clip0_89_1563)">
<path fill-rule="evenodd" clip-rule="evenodd" d="M20.2432 44.2498H10.1109C8.05851 44.2498 6.38878 42.5676 6.38878 40.4999V7.49992C6.38878 5.43218 8.05851 3.74993 10.1109 3.74993H32.9914C35.0438 3.74993 36.7135 5.43218 36.7135 7.49992V17.9999C36.7135 19.0355 37.5466 19.8749 38.5745 19.8749C39.6023 19.8749 40.4355 19.0355 40.4355 17.9999V7.49992C40.4355 3.36443 37.0961 -6.10352e-05 32.9914 -6.10352e-05H10.1109C6.00614 -6.10352e-05 2.66669 3.36443 2.66669 7.49992V40.4999C2.66669 44.6354 6.00614 47.9998 10.1109 47.9998H20.2432C21.271 47.9998 22.1042 47.1604 22.1042 46.1248C22.1042 45.0893 21.271 44.2498 20.2432 44.2498ZM21.9181 18.7499C22.946 18.7499 23.7792 19.5893 23.7792 20.6249C23.7792 21.6604 22.946 22.4999 21.9181 22.4999H11.9616C10.9337 22.4999 10.1005 21.6604 10.1005 20.6249C10.1005 19.5893 10.9337 18.7499 11.9616 18.7499H21.9181ZM10.1005 28.1249C10.1005 27.0893 10.9337 26.2498 11.9616 26.2498H15.9628C16.9906 26.2498 17.8238 27.0893 17.8238 28.1249C17.8238 29.1604 16.9906 29.9999 15.9628 29.9999H11.9616C10.9337 29.9999 10.1005 29.1604 10.1005 28.1249ZM31.1303 11.2499C32.1582 11.2499 32.9914 12.0893 32.9914 13.1249C32.9914 14.1605 32.1582 14.9999 31.1303 14.9999H11.9616C10.9337 14.9999 10.1005 14.1605 10.1005 13.1249C10.1005 12.0893 10.9337 11.2499 11.9616 11.2499H31.1303Z" fill="#686868"/>
<path d="M34.2096 28.4635C35.0069 28.4635 35.6532 29.1114 35.6532 29.9109V34.2857C35.6532 34.7128 35.4648 35.1182 35.1386 35.3935L32.8257 37.3439C32.5551 37.572 32.2251 37.6834 31.8972 37.6834C31.4859 37.6834 31.0773 37.5081 30.7917 37.1677C30.2786 36.5557 30.3572 35.6429 30.9674 35.1283L32.766 33.6117V29.9109C32.766 29.1114 33.4121 28.4635 34.2096 28.4635ZM45.1088 22.7463C44.3114 22.7463 43.6652 23.3941 43.6652 24.1937V26.4207C41.3515 23.6141 37.8916 21.9428 34.1771 21.9428C27.389 21.9428 21.8667 27.4797 21.8667 34.2857C21.8667 41.0916 27.4037 46.6285 34.2096 46.6285C36.0693 46.6285 37.9076 46.2084 39.5723 45.4087C39.6005 45.396 39.6287 45.3835 39.6563 45.3694C39.664 45.3651 39.6716 45.3597 39.6792 45.3555C39.8735 45.2596 40.0663 45.1602 40.2555 45.0538C40.9514 44.6638 41.2001 43.7817 40.8106 43.084C40.4216 42.3864 39.5422 42.137 38.8463 42.5272C37.4385 43.3164 35.8353 43.7337 34.2096 43.7337C28.9956 43.7337 24.7539 39.4952 24.7539 34.2857C24.7539 29.076 28.981 24.8376 34.1771 24.8376C37.1377 24.8376 39.887 26.2248 41.6549 28.5359H39.4066C38.6091 28.5359 37.963 29.1838 37.963 29.9833C37.963 30.7827 38.6091 31.4307 39.4066 31.4307H42.2216C44.6097 31.4307 46.5524 29.4829 46.5524 27.0885V24.1937C46.5524 23.3941 45.9061 22.7463 45.1088 22.7463ZM44.0774 39.1687C43.4168 38.7212 42.5196 38.8956 42.0736 39.5585C41.6275 40.2215 41.8021 41.121 42.4627 41.5682C42.7102 41.7356 42.991 41.8158 43.269 41.8158C43.7331 41.8158 44.1876 41.5923 44.4671 41.1775C44.9122 40.5155 44.7386 39.6159 44.0774 39.1687ZM46.5025 34.6939C46.4932 34.6475 46.4816 34.602 46.4681 34.5565C46.4543 34.5115 46.4385 34.4666 46.4205 34.4234C46.4024 34.3798 46.3821 34.3362 46.3599 34.295C46.3373 34.2532 46.3136 34.2127 46.2876 34.1734C46.2617 34.1338 46.2327 34.0954 46.203 34.0591C46.1735 34.0222 46.141 33.9868 46.1078 33.9534C46.0748 33.9201 46.0392 33.8876 46.0025 33.8579C45.9665 33.8276 45.9273 33.7994 45.8884 33.7733C45.8495 33.7474 45.8083 33.7228 45.7672 33.701C45.7251 33.6784 45.6825 33.6584 45.6394 33.6402C45.5961 33.6222 45.5512 33.606 45.5066 33.5925C45.4609 33.5786 45.4147 33.567 45.3693 33.5577C45.3231 33.5484 45.2754 33.541 45.2287 33.5367C45.1348 33.5272 45.0394 33.5272 44.945 33.5367C44.8981 33.541 44.8511 33.5484 44.8049 33.5577C44.7586 33.567 44.7126 33.5786 44.6678 33.5925C44.6229 33.606 44.5784 33.6222 44.535 33.6402C44.4915 33.6584 44.4484 33.6784 44.4073 33.701C44.3652 33.7228 44.325 33.7474 44.2861 33.7733C44.2463 33.7994 44.208 33.8276 44.1718 33.8579C44.1352 33.8876 44.0997 33.9201 44.0664 33.9534C44.0326 33.9868 44.0007 34.0222 43.9705 34.0591C43.9409 34.0954 43.9127 34.1338 43.8868 34.1734C43.8608 34.2127 43.8363 34.2532 43.8146 34.295C43.7924 34.3362 43.772 34.3798 43.754 34.4234C43.736 34.4666 43.7202 34.5115 43.7063 34.5565C43.6929 34.602 43.681 34.6475 43.6717 34.6939C43.6623 34.7402 43.655 34.788 43.6508 34.8343C43.6457 34.8821 43.6435 34.93 43.6435 34.9768C43.6435 35.0238 43.6457 35.0716 43.6508 35.1193C43.655 35.1657 43.6623 35.2134 43.6717 35.2598C43.6812 35.3053 43.6929 35.3516 43.7063 35.3972C43.7202 35.4422 43.736 35.4871 43.754 35.5304C43.772 35.5739 43.7924 35.6175 43.8146 35.6587C43.8363 35.6997 43.8608 35.7409 43.8868 35.7802C43.9127 35.8199 43.9409 35.8583 43.9705 35.8945C44.0007 35.9315 44.0326 35.9668 44.0664 36.0002C44.0997 36.0335 44.1352 36.0661 44.1718 36.0958C44.208 36.1254 44.2463 36.1542 44.2861 36.1803C44.325 36.2063 44.3652 36.2308 44.4073 36.2526C44.4484 36.2753 44.4915 36.2953 44.535 36.3134C44.5784 36.3316 44.6229 36.3476 44.6678 36.3612C44.7126 36.375 44.7589 36.3866 44.8049 36.396C44.8511 36.4053 44.8981 36.4126 44.945 36.4169C44.9918 36.422 45.0402 36.4242 45.0871 36.4242C45.1341 36.4242 45.1818 36.422 45.2287 36.4169C45.2754 36.4126 45.3234 36.4053 45.3693 36.396C45.415 36.3866 45.4613 36.375 45.5066 36.3612C45.5512 36.3476 45.5961 36.3316 45.6394 36.3134C45.6825 36.2953 45.7251 36.2753 45.7672 36.2526C45.8083 36.2308 45.8495 36.2063 45.8884 36.1803C45.9273 36.1542 45.9665 36.1254 46.0025 36.0958C46.0392 36.0661 46.0748 36.0335 46.1078 36.0002C46.141 35.9668 46.1735 35.9315 46.203 35.8945C46.2327 35.8583 46.2617 35.8199 46.2876 35.7802C46.3136 35.7409 46.3373 35.6997 46.3599 35.6587C46.3821 35.6175 46.4024 35.5739 46.4205 35.5304C46.4385 35.4871 46.4543 35.4422 46.4681 35.3972C46.4816 35.3516 46.4932 35.3053 46.5025 35.2598C46.512 35.2134 46.5191 35.1657 46.5236 35.1193C46.5287 35.0716 46.5307 35.0238 46.5307 34.9768C46.5307 34.93 46.5287 34.8821 46.5236 34.8343C46.5191 34.788 46.5118 34.7402 46.5025 34.6939Z" fill="#FE7333"/>
</g>

</g></symbol><symbol id="log-in" viewBox="0 0 16 19"><g fill="none">
<path d="M3 5C3 2.23858 5.23858 0 8 0C10.7614 0 13 2.23858 13 5C13 7.76142 10.7614 10 8 10C5.23858 10 3 7.76142 3 5ZM8 8C9.65685 8 11 6.65685 11 5C11 3.34315 9.65685 2 8 2C6.34315 2 5 3.34315 5 5C5 6.65685 6.34315 8 8 8Z" fill="#292929"/>
<path d="M2.34315 13.3431C0.842855 14.8434 0 16.8783 0 19H2C2 17.4087 2.63214 15.8826 3.75736 14.7574C4.88258 13.6321 6.4087 13 8 13C9.5913 13 11.1174 13.6321 12.2426 14.7574C13.3679 15.8826 14 17.4087 14 19H16C16 16.8783 15.1571 14.8434 13.6569 13.3431C12.1566 11.8429 10.1217 11 8 11C5.87827 11 3.84344 11.8429 2.34315 13.3431Z" fill="#292929"/>
</g></symbol><symbol id="online" viewBox="0 0 49 48"><g fill="none">
<g clip-path="url(#clip0_89_72)">
<path d="M37.0442 39.9844C37.0442 43.9908 33.3776 47.25 28.8704 47.25H9.04883C4.54165 47.25 0.875 43.9908 0.875 39.9844V8.01563C0.875 4.00924 4.54165 0.75 9.04883 0.75H28.8704C33.3776 0.75 37.0442 4.00924 37.0442 8.01563C37.0442 9.01891 36.1293 9.83203 35.0007 9.83203C33.872 9.83203 32.9573 9.01891 32.9573 8.01563C32.9573 6.01261 31.1237 4.38281 28.8704 4.38281H9.04883C6.79544 4.38281 4.96192 6.01261 4.96192 8.01563V39.9844C4.96192 41.9873 6.79544 43.6172 9.04883 43.6172H28.8704C31.1237 43.6172 32.9573 41.9873 32.9573 39.9844C32.9573 38.9811 33.872 38.168 35.0007 38.168C36.1293 38.168 37.0442 38.9811 37.0442 39.9844ZM16.9162 38.9964C16.9162 39.9996 17.8309 40.8128 18.9596 40.8128C20.0884 40.8128 21.003 39.9996 21.003 38.9964C21.003 37.9931 20.0884 37.18 18.9596 37.18C17.8309 37.18 16.9162 37.9931 16.9162 38.9964ZM23.0465 9.02564C23.0465 8.02236 22.1318 7.20924 21.003 7.20924H16.9162C15.7874 7.20924 14.8727 8.02236 14.8727 9.02564C14.8727 10.0289 15.7874 10.8421 16.9162 10.8421H21.003C22.1318 10.8421 23.0465 10.0289 23.0465 9.02564Z" fill="#686868"/>
<path fill-rule="evenodd" clip-rule="evenodd" d="M25.2033 22.3442C27.7563 20.0749 31.2017 18.8194 34.9046 18.8092L34.9506 18.809C38.6685 18.809 42.1269 20.0637 44.6925 22.3442C45.0794 22.6882 45.5865 22.8601 46.0937 22.8601C46.6008 22.8601 47.1078 22.6882 47.4947 22.3442C48.2685 21.6564 48.2685 20.5412 47.4947 19.8534C44.1668 16.895 39.6929 15.2737 34.8923 15.2865C30.1355 15.2997 25.6994 16.9216 22.4012 19.8534C21.6273 20.5413 21.6273 21.6564 22.4012 22.3442C23.175 23.032 24.4296 23.0321 25.2033 22.3442ZM34.9976 32.8114C36.0918 32.8114 36.9791 32.0229 36.9791 31.0501C36.9791 30.0774 36.0918 29.2889 34.9976 29.2889C33.9032 29.2889 33.0161 30.0774 33.0161 31.0501C33.0161 32.0229 33.9032 32.8114 34.9976 32.8114ZM42.1431 27.1894C41.7563 27.5333 41.2491 27.7053 40.742 27.7053C40.2348 27.7053 39.728 27.5334 39.341 27.1893C38.1807 26.1581 36.6383 25.5901 34.9974 25.5901C33.3567 25.5901 31.8141 26.1581 30.654 27.1893C29.8802 27.8772 28.6257 27.8773 27.8519 27.1894C27.0779 26.5016 27.0779 25.3865 27.8519 24.6986C29.7605 23.002 32.2982 22.0676 34.9974 22.0676C37.6968 22.0676 40.2345 23.002 42.1431 24.6986C42.917 25.3865 42.917 26.5016 42.1431 27.1894Z" fill="#FE7333"/>
</g>

</g></symbol><symbol id="search" viewBox="0 0 18 18"><g fill="none">
<path d="M12.5862 12.5862L17 17M7.57007 14.1402C3.94153 14.1402 1 11.1986 1 7.57007C1 3.94153 3.94153 1 7.57007 1C11.1986 1 14.1402 3.94153 14.1402 7.57007C14.1402 11.1986 11.1986 14.1402 7.57007 14.1402Z" stroke="#292929" stroke-width="2"/>
</g></symbol></svg>