<svg width="81" height="23" viewBox="0 0 81 23" fill="none" xmlns="http://www.w3.org/2000/svg">
<path d="M60.0121 13.0328C61.082 13.0456 62.129 12.7242 63.0065 12.1136L64.6828 14.3107C64.2518 14.6151 63.7888 14.8716 63.3019 15.0753C62.2111 15.5205 61.0416 15.7434 59.8634 15.7307C58.4062 15.7495 56.9676 15.4 55.6819 14.7146C54.4663 14.0646 53.4522 13.0936 52.7511 11.9075C52.051 10.6745 51.6827 9.28119 51.6827 7.86371C51.6827 6.44619 52.051 5.05293 52.7511 3.81994C53.4629 2.63496 54.4838 1.6654 55.7048 1.01485C56.9904 0.329575 58.4291 -0.0192853 59.8862 0.00082253C61.0606 -0.0121198 62.2252 0.210033 63.3121 0.654171C63.7635 0.844692 64.194 1.08016 64.5983 1.35698L62.8209 3.47162C61.9799 2.94689 61.0057 2.67368 60.014 2.6843C59.0651 2.67035 58.1278 2.89879 57.2916 3.34796C56.5084 3.77481 55.8602 4.41153 55.42 5.18641C54.9784 6.00878 54.7471 6.92742 54.7471 7.86061C54.7471 8.7938 54.9784 9.71249 55.42 10.5348C55.8602 11.3097 56.5084 11.9464 57.2916 12.3733C58.1273 12.8207 59.0636 13.0477 60.0121 13.0328Z" fill="#686868"/>
<path fill-rule="evenodd" clip-rule="evenodd" d="M38.469 2.76469C37.9143 1.92094 37.1203 1.26149 36.1884 0.870585C35.0945 0.413741 33.9169 0.190484 32.7314 0.215168H27.3797V15.5102H30.4136V11.1634H32.7314C33.9183 11.1889 35.0974 10.9656 36.1925 10.508C37.124 10.1162 37.9168 9.45513 38.469 8.60981C38.9886 7.7247 39.2624 6.71732 39.2624 5.69136C39.2624 4.66544 38.9886 3.65801 38.469 2.77292V2.76469ZM36.2091 5.69757C36.2091 6.61679 35.9036 7.33198 35.303 7.82247C34.7024 8.31301 33.786 8.57065 32.5972 8.57065H30.4136V2.81415H32.5972C33.786 2.81415 34.6962 3.06766 35.303 3.56231C35.9098 4.05696 36.2091 4.76801 36.2091 5.68932V5.69757Z" fill="#686868"/>
<path d="M43.7114 12.9318V9.0117H50.0186V6.47661H43.7114V2.79353H50.9451V0.215168H40.6775V15.5102H51.2469V12.9318H43.7114Z" fill="#686868"/>
<path fill-rule="evenodd" clip-rule="evenodd" d="M79.9267 3.82199C79.2168 2.63482 78.1955 1.66409 76.9731 1.01485C75.669 0.348292 74.2249 0.000695626 72.7595 0.000695626C71.2946 0.000695626 69.8506 0.348292 68.5465 1.01485C67.3231 1.66678 66.3022 2.64128 65.5948 3.8323C64.8932 5.05913 64.5239 6.44764 64.5239 7.86061C64.5239 9.27357 64.8932 10.6621 65.5948 11.8889C66.3013 13.081 67.3226 14.0564 68.5465 14.7084C69.8506 15.375 71.2946 15.7226 72.7595 15.7226C74.2249 15.7226 75.669 15.375 76.9731 14.7084C78.1941 14.0601 79.2154 13.0918 79.9267 11.9075C80.6298 10.6774 81 9.28536 81 7.86885C81 6.45235 80.6298 5.06035 79.9267 3.83024V3.82199ZM77.9434 7.86987C77.9555 8.80118 77.7228 9.71942 77.2685 10.5328C76.8336 11.3113 76.1903 11.9536 75.411 12.3877C74.5932 12.8234 73.6803 13.0514 72.7537 13.0514C71.8267 13.0514 70.9142 12.8234 70.0965 12.3877C69.3176 11.9525 68.6748 11.3105 68.2389 10.5328C67.7973 9.71409 67.566 8.79875 67.566 7.86885C67.566 6.93896 67.7973 6.02362 68.2389 5.20494C68.6748 4.42726 69.3176 3.78524 70.0965 3.35002C70.9147 2.91569 71.8271 2.68855 72.7537 2.68855C73.6803 2.68855 74.5927 2.91569 75.411 3.35002C76.1903 3.78411 76.8336 4.42641 77.2685 5.20494C77.7233 6.01897 77.9555 6.93789 77.9434 7.86987Z" fill="#686868"/>
<path d="M28.3518 20.2897H29.9348L29.9389 19.5086H27.3797V22.9938H28.3518V20.2897Z" fill="#686868"/>
<path fill-rule="evenodd" clip-rule="evenodd" d="M35.9944 22.3158H34.5188L34.2442 22.9918H33.2371L34.7788 19.5065H35.7509L37.2968 22.9918H36.2648L35.9944 22.3158ZM35.7055 21.5882L35.2576 20.4732L34.8077 21.5944L35.7055 21.5882Z" fill="#686868"/>
<path fill-rule="evenodd" clip-rule="evenodd" d="M43.9056 20.1213C43.7736 19.9199 43.5855 19.7615 43.3646 19.6652H43.3666C43.1059 19.5542 42.8245 19.5001 42.5411 19.5065H40.9457V23H41.9302V22.0911H42.539C42.8224 22.0976 43.1039 22.0435 43.3646 21.9324C43.5855 21.8362 43.7736 21.6777 43.9056 21.4764C44.0377 21.275 44.108 21.0395 44.108 20.7988C44.108 20.5581 44.0377 20.3226 43.9056 20.1213ZM43.0601 21.0124C43.0333 21.0774 42.992 21.1355 42.9394 21.1822C42.8075 21.2795 42.6449 21.3263 42.4812 21.3141H41.9322V20.2939H42.4812C42.6451 20.2822 42.8077 20.3298 42.9394 20.4278C42.9917 20.4756 43.0328 20.5345 43.0595 20.6001C43.0863 20.6656 43.0982 20.7363 43.0942 20.8071C43.0986 20.8772 43.0869 20.9474 43.0601 21.0124Z" fill="#686868"/>
<path fill-rule="evenodd" clip-rule="evenodd" d="M50.3363 22.3158H48.8607L48.5863 22.9918H47.5791L49.1206 19.5065H50.0929L51.6389 22.9918H50.6069L50.3363 22.3158ZM50.0477 21.5944L49.5978 20.4794L49.1498 21.5944H50.0477Z" fill="#686868"/>
<path d="M59.0029 22.9938V19.5086H58.0161V20.8174H56.6687V19.5086H55.6819V22.9938H56.6687V21.6336H58.0161V22.9938H59.0029Z" fill="#686868"/>
<path d="M66.1501 20.2897H65.0831V22.9938H64.1109V20.2897H63.0376V19.5086H66.1501V20.2897Z" fill="#686868"/>
<path d="M70.9856 19.5086H70.0139V22.9938H70.9467L72.383 20.9513V22.9938H73.3552V19.5086H72.4287L70.9856 21.5552V19.5086Z" fill="#686868"/>
<path fill-rule="evenodd" clip-rule="evenodd" d="M79.8586 19.5065V22.9918H78.8844V22.1158H78.3437L77.7699 22.9918H76.7378L77.4458 21.9716C77.2266 21.8802 77.0405 21.725 76.9113 21.5264C76.7889 21.313 76.7242 21.0715 76.7242 20.8256C76.7242 20.5798 76.7889 20.3382 76.9113 20.1249C77.042 19.9212 77.231 19.7617 77.454 19.6673C77.7144 19.5558 77.9963 19.501 78.2795 19.5065H79.8586ZM77.7242 20.8174C77.7193 20.8907 77.73 20.9644 77.7553 21.0333C77.781 21.1023 77.8214 21.165 77.8728 21.2172C77.9919 21.3154 78.144 21.3641 78.298 21.3533H78.8864V20.2836H78.3087C77.9205 20.2836 77.7242 20.4608 77.7242 20.8174Z" fill="#686868"/>
<path fill-rule="evenodd" clip-rule="evenodd" d="M22.6575 14.1829L22.8247 15.5864H18.7691C18.0747 17.446 16.8903 19.0838 15.341 20.3269C13.6465 21.6604 11.4856 22.5074 8.81905 22.8228L7.41355 22.9897V18.9459C5.55148 18.2513 3.91156 17.0679 2.66656 15.5205C1.33121 13.8284 0.482952 11.6704 0.167176 9.00759L0 7.60403H4.0535C4.74683 5.74386 5.93143 4.10581 7.48162 2.86361C9.17612 1.53012 11.337 0.683028 14.0035 0.365627L15.4091 0.198684V4.24451C17.2718 4.93687 18.9121 6.11984 20.156 7.66789C21.4914 9.36207 22.3417 11.5179 22.6575 14.1829ZM9.93355 20.0898C11.3352 19.8076 12.6547 19.2122 13.7931 18.3483L13.7827 18.3585C14.7188 17.611 15.4802 16.6685 16.0138 15.5968H11.5661V13.0823H19.9167C19.634 11.6826 19.0378 10.3649 18.1727 9.22811C17.4247 8.29006 16.4809 7.52621 15.407 6.98981V11.4273H12.8911V3.09445C11.4894 3.37627 10.1698 3.97172 9.03162 4.83604C8.09499 5.58301 7.33348 6.52567 6.80057 7.59782H11.2462V10.1144H2.89978C3.17999 11.5144 3.77569 12.8324 4.64171 13.9685C5.39138 14.902 6.33588 15.6609 7.40942 16.1924V11.755H9.93355V20.0898Z" fill="#686868"/>
</svg>
