<svg width="194" height="72" viewBox="0 0 194 72" fill="none" xmlns="http://www.w3.org/2000/svg">
<path d="M12.0764 30C4.6502 30 0 25.1065 0 16.9913C0 8.8935 4.68556 4 12.0764 4C18.2118 4 22.8797 7.83121 23.2864 13.4561H18.088C17.593 10.3737 15.1883 8.35365 12.0764 8.35365C8.04502 8.35365 5.44586 11.6798 5.44586 16.9739C5.44586 22.3376 8.00966 25.6463 12.0941 25.6463C15.259 25.6463 17.5399 23.8178 18.1057 20.8399H23.304C22.7029 26.4474 18.3356 30 12.0764 30Z" fill="#43B02A"/>
<path d="M42.4353 29.5646L40.4903 23.4695H31.5259L29.5809 29.5646H24.0997L32.9581 4.43537H39.235L48.111 29.5646H42.4353ZM35.9462 9.2418L32.6752 19.5338H39.341L36.07 9.2418H35.9462Z" fill="#43B02A"/>
<path d="M56.0676 8.54521V16.5559H60.6648C63.3524 16.5559 64.926 15.0409 64.926 12.5506C64.926 10.1125 63.2639 8.54521 60.6117 8.54521H56.0676ZM56.0676 20.3697V29.5646H50.7279V4.43537H61.1775C67.0478 4.43537 70.4072 7.48292 70.4072 12.4461C70.4072 15.6678 68.7098 18.4541 65.7747 19.5861L71.1498 29.5646H65.1028L60.3465 20.3697H56.0676Z" fill="#43B02A"/>
<path d="M85.5071 21.5713H73.8904V17.1306H85.5071V21.5713Z" fill="#43B02A"/>
<path d="M99.4047 29.5646H94.0649V8.7716H86.6918V4.43537H106.795V8.7716H99.4047V29.5646Z" fill="#43B02A"/>
<path d="M119.844 4C127.394 4 132.151 8.99799 132.151 17.0087C132.151 25.002 127.394 30 119.844 30C112.277 30 107.538 25.002 107.538 17.0087C107.538 8.99799 112.277 4 119.844 4ZM119.844 8.38848C115.672 8.38848 112.984 11.7321 112.984 17.0087C112.984 22.2679 115.654 25.5941 119.844 25.5941C124.017 25.5941 126.687 22.2679 126.687 17.0087C126.687 11.7321 124.017 8.38848 119.844 8.38848Z" fill="#43B02A"/>
<path d="M145.624 29.5646H140.284V8.7716H132.911V4.43537H153.015V8.7716H145.624V29.5646Z" fill="#43B02A"/>
<path d="M169.211 29.5646L167.266 23.4695H158.301L156.356 29.5646H150.875L159.734 4.43537H166.01L174.886 29.5646H169.211ZM162.722 9.2418L159.451 19.5338H166.116L162.845 9.2418H162.722Z" fill="#43B02A"/>
<path d="M194 25.211V29.5646H177.503V4.43537H182.843V25.211H194Z" fill="#43B02A"/>
<path d="M3.47476 48.3175C4.95492 48.3175 6.09211 47.2868 6.09211 45.9424V45.1805L3.58307 45.3329C2.31952 45.4136 1.59749 45.9693 1.59749 46.8476C1.59749 47.735 2.34659 48.3175 3.47476 48.3175ZM3.12277 49.644C1.25452 49.644 0 48.5237 0 46.8476C0 45.2522 1.23647 44.2484 3.40256 44.1229L6.09211 43.9706V43.1908C6.09211 42.0525 5.33398 41.3713 4.03433 41.3713C2.82494 41.3713 2.06681 41.936 1.86825 42.8502H0.351989C0.460293 41.2369 1.8502 40 4.07044 40C6.27262 40 7.66253 41.1831 7.66253 43.0384V49.4827H6.17334V47.8784H6.13724C5.57767 48.9449 4.38632 49.644 3.12277 49.644Z" fill="#43B02A"/>
<path d="M10.6138 52.9693C10.4243 52.9693 10.1084 52.9513 9.93692 52.9155V51.6069C10.1084 51.6428 10.3521 51.6517 10.5506 51.6517C11.4261 51.6517 11.9135 51.2305 12.2745 50.146L12.4911 49.4917L9.02535 40.1613H10.7041L13.3034 47.9232H13.3304L15.9298 40.1613H17.5814L13.89 50.137C13.0868 52.315 12.3106 52.9693 10.6138 52.9693Z" fill="#43B02A"/>
<path d="M22.1663 44.5711L26.6789 49.4827H24.6573L20.6049 45.0013H20.5327V49.4827H18.9803V40.1613H20.5327V44.2843H20.6049L24.6121 40.1613H26.5526L22.1663 44.5711Z" fill="#43B02A"/>
<path d="M37.0491 51.9475H35.587V49.4827H27.9876V40.1613H29.54V48.201H33.9985V40.1613H35.5509V48.201H37.0491V51.9475Z" fill="#43B02A"/>
<path d="M40.0094 49.4827H38.457V40.1613H40.0094V47.0986H40.0816L44.7748 40.1613H46.3271V49.4827H44.7748V42.5455H44.7026L40.0094 49.4827Z" fill="#43B02A"/>
<path d="M52.4283 49.644C49.829 49.644 48.0781 47.7887 48.0781 44.822C48.0781 41.8464 49.829 40 52.4283 40C55.0186 40 56.7695 41.8464 56.7695 44.822C56.7695 47.7887 55.0186 49.644 52.4283 49.644ZM52.4283 48.2727C54.089 48.2727 55.172 47.0179 55.172 44.822C55.172 42.6261 54.089 41.3713 52.4283 41.3713C50.7676 41.3713 49.6756 42.6261 49.6756 44.822C49.6756 47.0179 50.7676 48.2727 52.4283 48.2727Z" fill="#43B02A"/>
<path d="M64.6937 49.4827V45.2881H60.0637V49.4827H58.5114V40.1613H60.0637V44.0064H64.6937V40.1613H66.2461V49.4827H64.6937Z" fill="#43B02A"/>
<path d="M78.3401 49.4827V41.443H73.8003V49.4827H72.248V40.1613H79.9015V49.4827H78.3401Z" fill="#43B02A"/>
<path d="M86.0026 49.644C83.4033 49.644 81.6524 47.7887 81.6524 44.822C81.6524 41.8464 83.4033 40 86.0026 40C88.5929 40 90.3438 41.8464 90.3438 44.822C90.3438 47.7887 88.5929 49.644 86.0026 49.644ZM86.0026 48.2727C87.6633 48.2727 88.7463 47.0179 88.7463 44.822C88.7463 42.6261 87.6633 41.3713 86.0026 41.3713C84.3419 41.3713 83.2499 42.6261 83.2499 44.822C83.2499 47.0179 84.3419 48.2727 86.0026 48.2727Z" fill="#43B02A"/>
<path d="M95.8854 41.4251H93.6381V44.0333H95.6507C96.833 44.0333 97.4016 43.6031 97.4016 42.7068C97.4016 41.8822 96.8691 41.4251 95.8854 41.4251ZM95.7771 45.2881H93.6381V48.219H96.0568C97.194 48.219 97.8078 47.7081 97.8078 46.767C97.8078 45.7721 97.1489 45.2881 95.7771 45.2881ZM92.0857 49.4827V40.1613H96.102C97.8619 40.1613 98.9359 41.0666 98.9359 42.5455C98.9359 43.4955 98.259 44.3739 97.3926 44.5531V44.6248C98.5749 44.7862 99.3511 45.6376 99.3511 46.8028C99.3511 48.452 98.1237 49.4827 96.1291 49.4827H92.0857Z" fill="#43B02A"/>
<path d="M105.714 40C108.106 40 109.73 41.9001 109.73 44.822C109.73 47.7439 108.115 49.644 105.75 49.644C104.405 49.644 103.322 48.9898 102.763 47.968H102.727V52.5928H101.156V40.1613H102.645V41.7388H102.681C103.259 40.6901 104.351 40 105.714 40ZM105.407 48.2727C107.077 48.2727 108.124 46.9373 108.124 44.822C108.124 42.7157 107.077 41.3713 105.407 41.3713C103.801 41.3713 102.718 42.7516 102.718 44.822C102.718 46.9014 103.801 48.2727 105.407 48.2727Z" fill="#43B02A"/>
<path d="M115.245 41.3534C113.774 41.3534 112.745 42.4738 112.645 44.0243H117.745C117.709 42.4648 116.725 41.3534 115.245 41.3534ZM117.709 46.8118H119.252C118.981 48.443 117.393 49.644 115.344 49.644C112.654 49.644 111.021 47.7887 111.021 44.8579C111.021 41.9629 112.682 40 115.272 40C117.808 40 119.369 41.8284 119.369 44.6517V45.2433H112.636V45.3329C112.636 47.1165 113.692 48.2907 115.38 48.2907C116.571 48.2907 117.447 47.6901 117.709 46.8118Z" fill="#43B02A"/>
<path d="M129.063 44.5711L133.304 49.4827H131.292L127.501 45.0013H127.429V49.4827H125.877V45.0013H125.813L122.023 49.4827H120.037L124.252 44.598L120.136 40.1613H122.068L125.813 44.2843H125.877V40.1613H127.429V44.2843H127.501L131.247 40.1613H133.16L129.063 44.5711Z" fill="#43B02A"/>
<path d="M140.859 48.201V41.443H137.339L137.05 45.3688C136.969 46.525 136.725 47.5378 136.283 48.1293V48.201H140.859ZM135.164 51.9475H133.702V48.201H134.487C135.173 47.7529 135.507 46.5877 135.597 45.3329L135.958 40.1613H142.42V48.201H143.909V51.9475H142.447V49.4827H135.164V51.9475Z" fill="#43B02A"/>
<path d="M149.09 41.3534C147.619 41.3534 146.59 42.4738 146.491 44.0243H151.59C151.554 42.4648 150.57 41.3534 149.09 41.3534ZM151.554 46.8118H153.097C152.826 48.443 151.238 49.644 149.189 49.644C146.5 49.644 144.866 47.7887 144.866 44.8579C144.866 41.9629 146.527 40 149.117 40C151.653 40 153.214 41.8284 153.214 44.6517V45.2433H146.482V45.3329C146.482 47.1165 147.537 48.2907 149.225 48.2907C150.417 48.2907 151.292 47.6901 151.554 46.8118Z" fill="#43B02A"/>
<path d="M161.139 49.4827V45.2881H156.509V49.4827H154.956V40.1613H156.509V44.0064H161.139V40.1613H162.691V49.4827H161.139Z" fill="#43B02A"/>
<path d="M171.085 49.4827V45.2881H166.455V49.4827H164.902V40.1613H166.455V44.0064H171.085V40.1613H172.637V49.4827H171.085Z" fill="#43B02A"/>
<path d="M182.881 49.4827V40.1613H184.433V49.4827H182.881ZM178.151 44.4187H176.401V48.201H178.151C179.37 48.201 180.155 47.4481 180.155 46.3099C180.155 45.1626 179.361 44.4187 178.151 44.4187ZM174.848 49.4827V40.1613H176.401V43.137H178.179C180.327 43.137 181.707 44.3649 181.707 46.3099C181.707 48.2548 180.327 49.4827 178.179 49.4827H174.848Z" fill="#43B02A"/>
<path d="M189.966 45.9334H189.93L187.664 49.4827H185.922L189.117 44.822L185.976 40.1613H187.727L189.984 43.6569H190.02L192.249 40.1613H194L190.832 44.7593L193.955 49.4827H192.213L189.966 45.9334Z" fill="#43B02A"/>
<path d="M3.47476 66.6735C4.95492 66.6735 6.09211 65.6428 6.09211 64.2983V63.5365L3.58307 63.6889C2.31952 63.7695 1.59749 64.3252 1.59749 65.2036C1.59749 66.0909 2.34659 66.6735 3.47476 66.6735ZM3.12277 68C1.25452 68 0 66.8796 0 65.2036C0 63.6082 1.23647 62.6044 3.40256 62.4789L6.09211 62.3265V61.5467C6.09211 60.4085 5.33398 59.7273 4.03433 59.7273C2.82494 59.7273 2.06681 60.2919 1.86825 61.2061H0.351989C0.460293 59.5928 1.8502 58.356 4.07044 58.356C6.27262 58.356 7.66253 59.5391 7.66253 61.3944V67.8387H6.17334V66.2343H6.13724C5.57767 67.3009 4.38632 68 3.12277 68Z" fill="#43B02A"/>
<path d="M13.6283 59.7811H11.381V62.3892H13.3936C14.5759 62.3892 15.1445 61.959 15.1445 61.0627C15.1445 60.2382 14.612 59.7811 13.6283 59.7811ZM13.52 63.644H11.381V66.5749H13.7998C14.937 66.5749 15.5507 66.064 15.5507 65.1229C15.5507 64.128 14.8918 63.644 13.52 63.644ZM9.82861 67.8387V58.5173H13.8449C15.6048 58.5173 16.6789 59.4225 16.6789 60.9014C16.6789 61.8515 16.002 62.7298 15.1355 62.9091V62.9808C16.3178 63.1421 17.094 63.9936 17.094 65.1588C17.094 66.8079 15.8666 67.8387 13.872 67.8387H9.82861Z" fill="#43B02A"/>
<path d="M25.3973 58.5173V59.799H22.3648V67.8387H20.8125V59.799H17.7799V58.5173H25.3973Z" fill="#43B02A"/>
<path d="M30.5689 68C27.9696 68 26.2187 66.1447 26.2187 63.178C26.2187 60.2023 27.9696 58.356 30.5689 58.356C33.1592 58.356 34.9101 60.2023 34.9101 63.178C34.9101 66.1447 33.1592 68 30.5689 68ZM30.5689 66.6287C32.2295 66.6287 33.3126 65.3739 33.3126 63.178C33.3126 60.9821 32.2295 59.7273 30.5689 59.7273C28.9082 59.7273 27.8161 60.9821 27.8161 63.178C27.8161 65.3739 28.9082 66.6287 30.5689 66.6287Z" fill="#43B02A"/>
<path d="M38.2043 67.8387H36.652V58.5173H38.5563L41.8957 65.7772H41.9679L45.3253 58.5173H47.1575V67.8387H45.5961V61.2241H45.5329L42.5004 67.5698H41.3L38.2675 61.2241H38.2043V67.8387Z" fill="#43B02A"/>
<path d="M53.2586 68C50.6593 68 48.9084 66.1447 48.9084 63.178C48.9084 60.2023 50.6593 58.356 53.2586 58.356C55.8489 58.356 57.5998 60.2023 57.5998 63.178C57.5998 66.1447 55.8489 68 53.2586 68ZM53.2586 66.6287C54.9193 66.6287 56.0023 65.3739 56.0023 63.178C56.0023 60.9821 54.9193 59.7273 53.2586 59.7273C51.598 59.7273 50.5059 60.9821 50.5059 63.178C50.5059 65.3739 51.598 66.6287 53.2586 66.6287Z" fill="#43B02A"/>
<path d="M63.367 68C60.4879 68 58.9717 66.0819 58.9717 62.3803C58.9717 57.2356 60.3435 55.0935 63.9898 54.959L64.6847 54.9321C65.5872 54.8873 66.5981 54.7081 67.1306 54.4302V55.7926C66.8327 56.0615 65.84 56.2945 64.7569 56.3393L64.062 56.3662C61.4536 56.4648 60.6775 57.6031 60.2984 60.3905H60.3706C60.9843 59.2881 62.1576 58.7145 63.6017 58.7145C66.1378 58.7145 67.7533 60.4891 67.7533 63.2676C67.7533 66.1985 66.0836 68 63.367 68ZM63.367 66.6197C65.127 66.6197 66.1468 65.4097 66.1468 63.2676C66.1468 61.233 65.127 60.0768 63.367 60.0768C61.598 60.0768 60.5782 61.233 60.5782 63.2676C60.5782 65.4097 61.598 66.6197 63.367 66.6197Z" fill="#43B02A"/>
<path d="M71.0566 67.8387H69.5043V58.5173H71.0566V65.4545H71.1288L75.822 58.5173H77.3744V67.8387H75.822V60.9014H75.7498L71.0566 67.8387Z" fill="#43B02A"/>
<path d="M82.0856 63.7247C81.8961 66.2971 81.2733 67.9193 79.2968 67.9193C79.026 67.9193 78.8455 67.8656 78.7372 67.8207V66.4136C78.8184 66.4405 78.9899 66.4853 79.2155 66.4853C80.1451 66.4853 80.4971 65.4008 80.6145 63.6889L80.9755 58.5173H87.1217V67.8387H85.5694V59.799H82.3744L82.0856 63.7247Z" fill="#43B02A"/>
<path d="M93.1146 59.7093C91.6434 59.7093 90.6146 60.8297 90.5153 62.3803H95.6146C95.5785 60.8207 94.5947 59.7093 93.1146 59.7093ZM95.5785 65.1677H97.1218C96.8511 66.799 95.2626 68 93.2139 68C90.5243 68 88.8907 66.1447 88.8907 63.2138C88.8907 60.3188 90.5514 58.356 93.1417 58.356C95.6778 58.356 97.2392 60.1844 97.2392 63.0077V63.5992H90.5063V63.6889C90.5063 65.4725 91.5622 66.6466 93.25 66.6466C94.4413 66.6466 95.3168 66.0461 95.5785 65.1677Z" fill="#43B02A"/>
<path d="M100.533 67.8387H98.9811V58.5173H100.533V65.4545H100.606L105.299 58.5173H106.851V67.8387H105.299V60.9014H105.227L100.533 67.8387ZM100.181 54.484H101.337C101.337 55.5237 102.014 56.3393 103.088 56.3393C104.162 56.3393 104.839 55.5237 104.839 54.484H105.994C105.994 56.1332 104.811 57.2625 103.088 57.2625C101.364 57.2625 100.181 56.1332 100.181 54.484Z" fill="#43B02A"/>
</svg>
