<svg width="18" height="18" viewBox="0 0 18 18" fill="none" xmlns="http://www.w3.org/2000/svg">
<path d="M9.00037 1.5C7.84987 1.49995 6.71486 1.76456 5.68305 2.27335C4.65124 2.78214 3.75031 3.52148 3.04994 4.43417C2.34958 5.34685 1.86857 6.40843 1.64413 7.53675C1.41967 8.66512 1.4578 9.82995 1.75556 10.9411C2.05332 12.0524 2.60273 13.0802 3.36127 13.9452C4.11982 14.8101 5.06719 15.4889 6.13006 15.9292C7.19294 16.3694 8.34284 16.5592 9.49079 16.4839C10.6388 16.4086 11.7541 16.0702 12.7504 15.495C12.84 15.4481 12.9192 15.3835 12.9832 15.3053C13.0473 15.227 13.0948 15.1366 13.123 15.0394C13.1512 14.9423 13.1594 14.8404 13.1472 14.74C13.135 14.6395 13.1026 14.5427 13.052 14.4551C13.0014 14.3675 12.9336 14.2911 12.8527 14.2304C12.7717 14.1698 12.6793 14.126 12.5811 14.102C12.4828 14.0779 12.3808 14.074 12.2809 14.0904C12.1811 14.1068 12.0857 14.1432 12.0004 14.1975C10.8565 14.8579 9.52679 15.1224 8.21737 14.95C6.90789 14.7777 5.69189 14.1781 4.75793 13.2443C3.82396 12.3104 3.22423 11.0944 3.05173 9.78502C2.87923 8.4756 3.14359 7.1458 3.80384 6.00193C4.46409 4.85806 5.48331 3.96399 6.70345 3.45839C7.92359 2.95279 9.27644 2.86391 10.5523 3.20553C11.8281 3.54715 12.9555 4.30018 13.7597 5.34784C14.5639 6.3955 15.0001 7.67925 15.0004 9V9.5625C15.0004 9.91057 14.8621 10.2444 14.6159 10.4906C14.3698 10.7367 14.0359 10.875 13.6879 10.875C13.3397 10.875 13.0059 10.7367 12.7597 10.4906C12.5136 10.2444 12.3754 9.91057 12.3754 9.5625V6.375C12.3754 6.17608 12.2963 5.98532 12.1557 5.84467C12.015 5.70402 11.8243 5.625 11.6254 5.625C11.4509 5.62112 11.2806 5.67816 11.1437 5.7863C11.0068 5.89444 10.9119 6.04693 10.8754 6.2175C10.324 5.83618 9.67064 5.62972 9.00037 5.625C8.43569 5.61825 7.87844 5.75326 7.37948 6.0177C6.88056 6.28213 6.45595 6.66751 6.14456 7.13855C5.83316 7.60958 5.64493 8.15122 5.5971 8.71387C5.54927 9.27653 5.64337 9.84218 5.87078 10.359C6.0982 10.8758 6.45165 11.3274 6.89878 11.6722C7.3459 12.0171 7.87244 12.2443 8.43007 12.3329C8.98777 12.4216 9.55874 12.3688 10.0908 12.1797C10.6228 11.9905 11.0989 11.6708 11.4754 11.25C11.8317 11.7115 12.323 12.0505 12.8809 12.2197C13.4389 12.3891 14.0357 12.3803 14.5885 12.1947C15.1411 12.0091 15.6223 11.6558 15.9649 11.1841C16.3076 10.7123 16.4947 10.1455 16.5004 9.5625V9C16.5004 8.0151 16.3063 7.03981 15.9294 6.12988C15.5525 5.21993 15.0001 4.39314 14.3036 3.6967C13.6072 3.00026 12.7804 2.44781 11.8705 2.0709C10.9605 1.69399 9.98527 1.5 9.00037 1.5ZM9.00037 10.875C8.62949 10.875 8.26694 10.765 7.95862 10.559C7.65029 10.353 7.40997 10.0601 7.26805 9.71753C7.12614 9.37493 7.08901 8.9979 7.16136 8.63422C7.2337 8.27047 7.41228 7.93642 7.67452 7.67415C7.93672 7.41195 8.27084 7.23338 8.63452 7.16103C8.99827 7.08868 9.37522 7.12581 9.71789 7.26772C10.0605 7.40964 10.3533 7.65 10.5593 7.95833C10.7653 8.26665 10.8754 8.62913 10.8754 9C10.8754 9.49725 10.6778 9.97418 10.3261 10.3259C9.97454 10.6775 9.49762 10.875 9.00037 10.875Z" fill="#686868"/>
</svg>
