<svg width="49" height="48" viewBox="0 0 49 48" fill="none" xmlns="http://www.w3.org/2000/svg">
<g clip-path="url(#clip0_89_790)">
<path d="M48.4999 17.3436C48.4999 18.3791 47.6605 19.2186 46.6249 19.2186H44.7499V25.9685C44.7499 29.5507 42.2256 32.5543 38.8623 33.2939C38.1398 35.5668 36.0091 37.2184 33.5 37.2184C31.0555 37.2184 28.9703 35.651 28.1964 33.4684H26.8438C25.8083 33.4684 24.9688 32.629 24.9688 31.5934C24.9688 30.5579 25.8083 29.7184 26.8438 29.7184H29.7501C30.7856 29.7184 31.6251 30.5579 31.6251 31.5934C31.6251 32.6273 32.4662 33.4684 33.5 33.4684C34.5339 33.4684 35.375 32.6273 35.375 31.5934C35.375 30.5579 36.2145 29.7184 37.25 29.7184C39.3178 29.7184 40.9999 28.0362 40.9999 25.9685V16.9088L37.2344 8.6871C36.2488 6.53515 34.2773 4.95895 31.9607 4.47071C29.6912 3.99249 27.2125 3.74996 24.5939 3.74996C21.9056 3.74996 19.3507 4.00243 17.0001 4.50043C14.7001 4.98764 12.7394 6.5615 11.7552 8.7105L8.00032 16.9088V25.031C8.00032 26.0665 7.16086 26.9059 6.12531 26.9059C5.08976 26.9059 4.25033 26.0665 4.25033 25.031V19.2186H2.37535C1.3398 19.2186 0.500366 18.3791 0.500366 17.3436C0.500366 16.308 1.3398 15.4686 2.37535 15.4686H4.53532L8.34584 7.14902C9.82214 3.92565 12.7669 1.56411 16.2229 0.83193C18.8286 0.279841 21.645 0 24.5939 0C27.472 0 30.2107 0.269622 32.734 0.801368C36.2085 1.53365 39.1655 3.8978 40.6438 7.12559L44.4649 15.4686H46.6249C47.6605 15.4686 48.4999 16.308 48.4999 17.3436ZM35.4688 19.2186H13.5315C12.496 19.2186 11.6565 18.3791 11.6565 17.3436C11.6565 16.308 12.496 15.4686 13.5315 15.4686H35.4688C36.5044 15.4686 37.3438 16.308 37.3438 17.3436C37.3438 18.3791 36.5044 19.2186 35.4688 19.2186ZM34.9063 22.5935C33.6119 22.5935 32.5626 23.6428 32.5626 24.9373C32.5626 26.2316 33.6119 27.2809 34.9063 27.2809C36.2007 27.2809 37.25 26.2316 37.25 24.9373C37.25 23.6428 36.2007 22.5935 34.9063 22.5935Z" fill="#FE7333"/>
<path d="M28.5312 46.1246C28.5312 47.1601 27.6918 47.9996 26.6562 47.9996H24.4898C24.4859 47.9996 24.4818 48 24.4778 48C24.4735 48 24.4692 47.9996 24.4648 47.9996H3.96898C2.93342 47.9996 2.09399 47.1601 2.09399 46.1246C2.09399 45.089 2.93342 44.2496 3.96898 44.2496H4.82087L10.926 26.9515C11.5914 25.0661 13.3132 23.8479 15.3126 23.8479C17.312 23.8479 19.0338 25.0661 19.6992 26.9515L25.8042 44.2496H26.6562C27.6918 44.2496 28.5312 45.089 28.5312 46.1246ZM8.79753 44.2496H21.8277L16.163 28.1996C15.9714 27.6565 15.5046 27.5978 15.3126 27.5978C15.1207 27.5978 14.6538 27.6563 14.4622 28.1996L8.79753 44.2496Z" fill="#686868"/>
</g>
<defs>
<clipPath id="clip0_89_790">
<rect width="48" height="48" fill="white" transform="translate(0.5)"/>
</clipPath>
</defs>
</svg>
