<svg width="48" height="48" viewBox="0 0 48 48" fill="none" xmlns="http://www.w3.org/2000/svg">
<g clip-path="url(#clip0_89_1563)">
<path fill-rule="evenodd" clip-rule="evenodd" d="M20.2432 44.2498H10.1109C8.05851 44.2498 6.38878 42.5676 6.38878 40.4999V7.49992C6.38878 5.43218 8.05851 3.74993 10.1109 3.74993H32.9914C35.0438 3.74993 36.7135 5.43218 36.7135 7.49992V17.9999C36.7135 19.0355 37.5466 19.8749 38.5745 19.8749C39.6023 19.8749 40.4355 19.0355 40.4355 17.9999V7.49992C40.4355 3.36443 37.0961 -6.10352e-05 32.9914 -6.10352e-05H10.1109C6.00614 -6.10352e-05 2.66669 3.36443 2.66669 7.49992V40.4999C2.66669 44.6354 6.00614 47.9998 10.1109 47.9998H20.2432C21.271 47.9998 22.1042 47.1604 22.1042 46.1248C22.1042 45.0893 21.271 44.2498 20.2432 44.2498ZM21.9181 18.7499C22.946 18.7499 23.7792 19.5893 23.7792 20.6249C23.7792 21.6604 22.946 22.4999 21.9181 22.4999H11.9616C10.9337 22.4999 10.1005 21.6604 10.1005 20.6249C10.1005 19.5893 10.9337 18.7499 11.9616 18.7499H21.9181ZM10.1005 28.1249C10.1005 27.0893 10.9337 26.2498 11.9616 26.2498H15.9628C16.9906 26.2498 17.8238 27.0893 17.8238 28.1249C17.8238 29.1604 16.9906 29.9999 15.9628 29.9999H11.9616C10.9337 29.9999 10.1005 29.1604 10.1005 28.1249ZM31.1303 11.2499C32.1582 11.2499 32.9914 12.0893 32.9914 13.1249C32.9914 14.1605 32.1582 14.9999 31.1303 14.9999H11.9616C10.9337 14.9999 10.1005 14.1605 10.1005 13.1249C10.1005 12.0893 10.9337 11.2499 11.9616 11.2499H31.1303Z" fill="#686868"/>
<path d="M34.2096 28.4635C35.0069 28.4635 35.6532 29.1114 35.6532 29.9109V34.2857C35.6532 34.7128 35.4648 35.1182 35.1386 35.3935L32.8257 37.3439C32.5551 37.572 32.2251 37.6834 31.8972 37.6834C31.4859 37.6834 31.0773 37.5081 30.7917 37.1677C30.2786 36.5557 30.3572 35.6429 30.9674 35.1283L32.766 33.6117V29.9109C32.766 29.1114 33.4121 28.4635 34.2096 28.4635ZM45.1088 22.7463C44.3114 22.7463 43.6652 23.3941 43.6652 24.1937V26.4207C41.3515 23.6141 37.8916 21.9428 34.1771 21.9428C27.389 21.9428 21.8667 27.4797 21.8667 34.2857C21.8667 41.0916 27.4037 46.6285 34.2096 46.6285C36.0693 46.6285 37.9076 46.2084 39.5723 45.4087C39.6005 45.396 39.6287 45.3835 39.6563 45.3694C39.664 45.3651 39.6716 45.3597 39.6792 45.3555C39.8735 45.2596 40.0663 45.1602 40.2555 45.0538C40.9514 44.6638 41.2001 43.7817 40.8106 43.084C40.4216 42.3864 39.5422 42.137 38.8463 42.5272C37.4385 43.3164 35.8353 43.7337 34.2096 43.7337C28.9956 43.7337 24.7539 39.4952 24.7539 34.2857C24.7539 29.076 28.981 24.8376 34.1771 24.8376C37.1377 24.8376 39.887 26.2248 41.6549 28.5359H39.4066C38.6091 28.5359 37.963 29.1838 37.963 29.9833C37.963 30.7827 38.6091 31.4307 39.4066 31.4307H42.2216C44.6097 31.4307 46.5524 29.4829 46.5524 27.0885V24.1937C46.5524 23.3941 45.9061 22.7463 45.1088 22.7463ZM44.0774 39.1687C43.4168 38.7212 42.5196 38.8956 42.0736 39.5585C41.6275 40.2215 41.8021 41.121 42.4627 41.5682C42.7102 41.7356 42.991 41.8158 43.269 41.8158C43.7331 41.8158 44.1876 41.5923 44.4671 41.1775C44.9122 40.5155 44.7386 39.6159 44.0774 39.1687ZM46.5025 34.6939C46.4932 34.6475 46.4816 34.602 46.4681 34.5565C46.4543 34.5115 46.4385 34.4666 46.4205 34.4234C46.4024 34.3798 46.3821 34.3362 46.3599 34.295C46.3373 34.2532 46.3136 34.2127 46.2876 34.1734C46.2617 34.1338 46.2327 34.0954 46.203 34.0591C46.1735 34.0222 46.141 33.9868 46.1078 33.9534C46.0748 33.9201 46.0392 33.8876 46.0025 33.8579C45.9665 33.8276 45.9273 33.7994 45.8884 33.7733C45.8495 33.7474 45.8083 33.7228 45.7672 33.701C45.7251 33.6784 45.6825 33.6584 45.6394 33.6402C45.5961 33.6222 45.5512 33.606 45.5066 33.5925C45.4609 33.5786 45.4147 33.567 45.3693 33.5577C45.3231 33.5484 45.2754 33.541 45.2287 33.5367C45.1348 33.5272 45.0394 33.5272 44.945 33.5367C44.8981 33.541 44.8511 33.5484 44.8049 33.5577C44.7586 33.567 44.7126 33.5786 44.6678 33.5925C44.6229 33.606 44.5784 33.6222 44.535 33.6402C44.4915 33.6584 44.4484 33.6784 44.4073 33.701C44.3652 33.7228 44.325 33.7474 44.2861 33.7733C44.2463 33.7994 44.208 33.8276 44.1718 33.8579C44.1352 33.8876 44.0997 33.9201 44.0664 33.9534C44.0326 33.9868 44.0007 34.0222 43.9705 34.0591C43.9409 34.0954 43.9127 34.1338 43.8868 34.1734C43.8608 34.2127 43.8363 34.2532 43.8146 34.295C43.7924 34.3362 43.772 34.3798 43.754 34.4234C43.736 34.4666 43.7202 34.5115 43.7063 34.5565C43.6929 34.602 43.681 34.6475 43.6717 34.6939C43.6623 34.7402 43.655 34.788 43.6508 34.8343C43.6457 34.8821 43.6435 34.93 43.6435 34.9768C43.6435 35.0238 43.6457 35.0716 43.6508 35.1193C43.655 35.1657 43.6623 35.2134 43.6717 35.2598C43.6812 35.3053 43.6929 35.3516 43.7063 35.3972C43.7202 35.4422 43.736 35.4871 43.754 35.5304C43.772 35.5739 43.7924 35.6175 43.8146 35.6587C43.8363 35.6997 43.8608 35.7409 43.8868 35.7802C43.9127 35.8199 43.9409 35.8583 43.9705 35.8945C44.0007 35.9315 44.0326 35.9668 44.0664 36.0002C44.0997 36.0335 44.1352 36.0661 44.1718 36.0958C44.208 36.1254 44.2463 36.1542 44.2861 36.1803C44.325 36.2063 44.3652 36.2308 44.4073 36.2526C44.4484 36.2753 44.4915 36.2953 44.535 36.3134C44.5784 36.3316 44.6229 36.3476 44.6678 36.3612C44.7126 36.375 44.7589 36.3866 44.8049 36.396C44.8511 36.4053 44.8981 36.4126 44.945 36.4169C44.9918 36.422 45.0402 36.4242 45.0871 36.4242C45.1341 36.4242 45.1818 36.422 45.2287 36.4169C45.2754 36.4126 45.3234 36.4053 45.3693 36.396C45.415 36.3866 45.4613 36.375 45.5066 36.3612C45.5512 36.3476 45.5961 36.3316 45.6394 36.3134C45.6825 36.2953 45.7251 36.2753 45.7672 36.2526C45.8083 36.2308 45.8495 36.2063 45.8884 36.1803C45.9273 36.1542 45.9665 36.1254 46.0025 36.0958C46.0392 36.0661 46.0748 36.0335 46.1078 36.0002C46.141 35.9668 46.1735 35.9315 46.203 35.8945C46.2327 35.8583 46.2617 35.8199 46.2876 35.7802C46.3136 35.7409 46.3373 35.6997 46.3599 35.6587C46.3821 35.6175 46.4024 35.5739 46.4205 35.5304C46.4385 35.4871 46.4543 35.4422 46.4681 35.3972C46.4816 35.3516 46.4932 35.3053 46.5025 35.2598C46.512 35.2134 46.5191 35.1657 46.5236 35.1193C46.5287 35.0716 46.5307 35.0238 46.5307 34.9768C46.5307 34.93 46.5287 34.8821 46.5236 34.8343C46.5191 34.788 46.5118 34.7402 46.5025 34.6939Z" fill="#FE7333"/>
</g>
<defs>
<clipPath id="clip0_89_1563">
<rect width="48" height="48" fill="white"/>
</clipPath>
</defs>
</svg>
