<svg width="49" height="48" viewBox="0 0 49 48" fill="none" xmlns="http://www.w3.org/2000/svg">
<g clip-path="url(#clip0_89_72)">
<path d="M37.0442 39.9844C37.0442 43.9908 33.3776 47.25 28.8704 47.25H9.04883C4.54165 47.25 0.875 43.9908 0.875 39.9844V8.01563C0.875 4.00924 4.54165 0.75 9.04883 0.75H28.8704C33.3776 0.75 37.0442 4.00924 37.0442 8.01563C37.0442 9.01891 36.1293 9.83203 35.0007 9.83203C33.872 9.83203 32.9573 9.01891 32.9573 8.01563C32.9573 6.01261 31.1237 4.38281 28.8704 4.38281H9.04883C6.79544 4.38281 4.96192 6.01261 4.96192 8.01563V39.9844C4.96192 41.9873 6.79544 43.6172 9.04883 43.6172H28.8704C31.1237 43.6172 32.9573 41.9873 32.9573 39.9844C32.9573 38.9811 33.872 38.168 35.0007 38.168C36.1293 38.168 37.0442 38.9811 37.0442 39.9844ZM16.9162 38.9964C16.9162 39.9996 17.8309 40.8128 18.9596 40.8128C20.0884 40.8128 21.003 39.9996 21.003 38.9964C21.003 37.9931 20.0884 37.18 18.9596 37.18C17.8309 37.18 16.9162 37.9931 16.9162 38.9964ZM23.0465 9.02564C23.0465 8.02236 22.1318 7.20924 21.003 7.20924H16.9162C15.7874 7.20924 14.8727 8.02236 14.8727 9.02564C14.8727 10.0289 15.7874 10.8421 16.9162 10.8421H21.003C22.1318 10.8421 23.0465 10.0289 23.0465 9.02564Z" fill="#686868"/>
<path fill-rule="evenodd" clip-rule="evenodd" d="M25.2033 22.3442C27.7563 20.0749 31.2017 18.8194 34.9046 18.8092L34.9506 18.809C38.6685 18.809 42.1269 20.0637 44.6925 22.3442C45.0794 22.6882 45.5865 22.8601 46.0937 22.8601C46.6008 22.8601 47.1078 22.6882 47.4947 22.3442C48.2685 21.6564 48.2685 20.5412 47.4947 19.8534C44.1668 16.895 39.6929 15.2737 34.8923 15.2865C30.1355 15.2997 25.6994 16.9216 22.4012 19.8534C21.6273 20.5413 21.6273 21.6564 22.4012 22.3442C23.175 23.032 24.4296 23.0321 25.2033 22.3442ZM34.9976 32.8114C36.0918 32.8114 36.9791 32.0229 36.9791 31.0501C36.9791 30.0774 36.0918 29.2889 34.9976 29.2889C33.9032 29.2889 33.0161 30.0774 33.0161 31.0501C33.0161 32.0229 33.9032 32.8114 34.9976 32.8114ZM42.1431 27.1894C41.7563 27.5333 41.2491 27.7053 40.742 27.7053C40.2348 27.7053 39.728 27.5334 39.341 27.1893C38.1807 26.1581 36.6383 25.5901 34.9974 25.5901C33.3567 25.5901 31.8141 26.1581 30.654 27.1893C29.8802 27.8772 28.6257 27.8773 27.8519 27.1894C27.0779 26.5016 27.0779 25.3865 27.8519 24.6986C29.7605 23.002 32.2982 22.0676 34.9974 22.0676C37.6968 22.0676 40.2345 23.002 42.1431 24.6986C42.917 25.3865 42.917 26.5016 42.1431 27.1894Z" fill="#FE7333"/>
</g>
<defs>
<clipPath id="clip0_89_72">
<rect width="48" height="48" fill="white" transform="translate(0.5)"/>
</clipPath>
</defs>
</svg>
