<svg width="23" height="23" viewBox="0 0 23 23" xmlns="http://www.w3.org/2000/svg">
<path d="M17.5 6.5V4.7C17.5 3.5799 17.5 3.01984 17.282 2.59202C17.0903 2.21569 16.7843 1.90973 16.408 1.71799C15.9802 1.5 15.4201 1.5 14.3 1.5H8.7C7.5799 1.5 7.01984 1.5 6.59202 1.71799C6.21569 1.90973 5.90973 2.21569 5.71799 2.59202C5.5 3.01984 5.5 3.5799 5.5 4.7V6.5M5.5 17.5C4.57003 17.5 4.10504 17.5 3.72354 17.3978C2.68827 17.1204 1.87962 16.3117 1.60222 15.2765C1.5 14.895 1.5 14.43 1.5 13.5V11.3C1.5 9.61984 1.5 8.77976 1.82698 8.13803C2.1146 7.57354 2.57354 7.1146 3.13803 6.82698C3.77976 6.5 4.61984 6.5 6.3 6.5H16.7C18.3802 6.5 19.2202 6.5 19.862 6.82698C20.4265 7.1146 20.8854 7.57354 21.173 8.13803C21.5 8.77976 21.5 9.61984 21.5 11.3V13.5C21.5 14.43 21.5 14.895 21.3978 15.2765C21.1204 16.3117 20.3117 17.1204 19.2765 17.3978C18.895 17.5 18.43 17.5 17.5 17.5M14.5 10H17.5M8.7 21.5H14.3C15.4201 21.5 15.9802 21.5 16.408 21.282C16.7843 21.0903 17.0903 20.7843 17.282 20.408C17.5 19.9802 17.5 19.4201 17.5 18.3V16.7C17.5 15.5799 17.5 15.0198 17.282 14.592C17.0903 14.2157 16.7843 13.9097 16.408 13.718C15.9802 13.5 15.4201 13.5 14.3 13.5H8.7C7.5799 13.5 7.01984 13.5 6.59202 13.718C6.21569 13.9097 5.90973 14.2157 5.71799 14.592C5.5 15.0198 5.5 15.5799 5.5 16.7V18.3C5.5 19.4201 5.5 19.9802 5.71799 20.408C5.90973 20.7843 6.21569 21.0903 6.59202 21.282C7.01984 21.5 7.57989 21.5 8.7 21.5Z" stroke-width="2" stroke-linecap="round" stroke-linejoin="round"/>
</svg>
