<svg width="23" height="22" viewBox="0 0 23 22" fill="none" xmlns="http://www.w3.org/2000/svg">
<path d="M11.5 14C8.18629 14 5.5 11.3137 5.5 8V2.44444C5.5 2.0306 5.5 1.82367 5.56031 1.65798C5.66141 1.38021 5.88021 1.16141 6.15798 1.06031C6.32367 1 6.5306 1 6.94444 1H16.0556C16.4694 1 16.6763 1 16.842 1.06031C17.1198 1.16141 17.3386 1.38021 17.4397 1.65798C17.5 1.82367 17.5 2.0306 17.5 2.44444V8C17.5 11.3137 14.8137 14 11.5 14ZM11.5 14V17M17.5 3H20C20.4659 3 20.6989 3 20.8827 3.07612C21.1277 3.17761 21.3224 3.37229 21.4239 3.61732C21.5 3.80109 21.5 4.03406 21.5 4.5V5C21.5 5.92997 21.5 6.39496 21.3978 6.77646C21.1204 7.81173 20.3117 8.62038 19.2765 8.89778C18.895 9 18.43 9 17.5 9M5.5 3H3C2.53406 3 2.30109 3 2.11732 3.07612C1.87229 3.17761 1.67761 3.37229 1.57612 3.61732C1.5 3.80109 1.5 4.03406 1.5 4.5V5C1.5 5.92997 1.5 6.39496 1.60222 6.77646C1.87962 7.81173 2.68827 8.62038 3.72354 8.89778C4.10504 9 4.57003 9 5.5 9M6.94444 21H16.0556C16.301 21 16.5 20.801 16.5 20.5556C16.5 18.5919 14.9081 17 12.9444 17H10.0556C8.09188 17 6.5 18.5919 6.5 20.5556C6.5 20.801 6.69898 21 6.94444 21Z" stroke="#43B02A" stroke-width="2" stroke-linecap="round" stroke-linejoin="round"/>
</svg>
