<svg width="134" height="18" viewBox="0 0 134 18" fill="none" xmlns="http://www.w3.org/2000/svg">
<path d="M8.31521 18C3.2019 18 0 14.6122 0 8.99397C0 3.38781 3.22625 0 8.31521 0C12.5398 0 15.7538 2.65238 16.0339 6.54655H12.4545C12.1137 4.41259 10.4579 3.01407 8.31521 3.01407C5.53941 3.01407 3.74976 5.31681 3.74976 8.98192C3.74976 12.6952 5.51506 14.9859 8.32738 14.9859C10.5066 14.9859 12.0771 13.72 12.4667 11.6584H16.046C15.6321 15.5405 12.625 18 8.31521 18Z" fill="#43B02A"/>
<path d="M29.2189 17.6986L27.8797 13.4789H21.7072L20.368 17.6986H16.5939L22.6933 0.301407H27.0153L33.1269 17.6986H29.2189ZM24.7508 3.62893L22.4985 10.7542H27.0883L24.836 3.62893H24.7508Z" fill="#43B02A"/>
<path d="M38.6054 3.14668V8.69256H41.7708C43.6213 8.69256 44.7049 7.64367 44.7049 5.91962C44.7049 4.23175 43.5605 3.14668 41.7343 3.14668H38.6054ZM38.6054 11.3329V17.6986H34.9287V0.301407H42.1239C46.1658 0.301407 48.479 2.41125 48.479 5.84729C48.479 8.0777 47.3102 10.0067 45.2893 10.7904L48.9903 17.6986H44.8266L41.5517 11.3329H38.6054Z" fill="#43B02A"/>
<path d="M58.876 12.1648H50.8774V9.09042H58.876V12.1648Z" fill="#43B02A"/>
<path d="M68.4452 17.6986H64.7685V3.30342H59.6917V0.301407H73.5342V3.30342H68.4452V17.6986Z" fill="#43B02A"/>
<path d="M82.519 0C87.7175 0 90.9925 3.46015 90.9925 9.00603C90.9925 14.5399 87.7175 18 82.519 18C77.3083 18 74.0455 14.5399 74.0455 9.00603C74.0455 3.46015 77.3083 0 82.519 0ZM82.519 3.03818C79.6458 3.03818 77.7953 5.35298 77.7953 9.00603C77.7953 12.647 79.6336 14.9498 82.519 14.9498C85.3922 14.9498 87.2305 12.647 87.2305 9.00603C87.2305 5.35298 85.3922 3.03818 82.519 3.03818Z" fill="#43B02A"/>
<path d="M100.269 17.6986H96.5927V3.30342H91.516V0.301407H105.358V3.30342H100.269V17.6986Z" fill="#43B02A"/>
<path d="M116.51 17.6986L115.171 13.4789H108.999L107.659 17.6986H103.885L109.985 0.301407H114.307L120.418 17.6986H116.51ZM112.042 3.62893L109.79 10.7542H114.38L112.127 3.62893H112.042Z" fill="#43B02A"/>
<path d="M133.579 14.6845V17.6986H122.22V0.301407H125.897V14.6845H133.579Z" fill="#43B02A"/>
</svg>
