<svg width="44" height="59" viewBox="0 0 44 59" fill="none" xmlns="http://www.w3.org/2000/svg">
<mask id="path-1-outside-1_127_37987" maskUnits="userSpaceOnUse" x="-0.253296" y="-0.170898" width="44" height="59" fill="black">
<rect fill="white" x="-0.253296" y="-0.170898" width="44" height="59"/>
<path fill-rule="evenodd" clip-rule="evenodd" d="M20.6669 5.2443L22.6538 5.47372L24.7504 4.9872L25.6448 6.16061L26.4736 7.34923L27.7611 8.43142L28.8521 9.55924L29.1126 11.5702L29.1552 12.9413L29.853 14.1603L31.075 15.2577L33.3437 18.1837L34.6297 21.3377L34.6285 21.3387L35.2394 21.8873L36.4401 22.2992L39.1674 25.1187L41.0003 26.7648L38.5533 28.7136L40.2979 31.7612L40.4929 33.7874L40.6879 35.8136L40.8844 35.768L41.6051 35.6007L42.0196 36.195L40.534 37.2302L37.5612 41.3725L38.2773 47.4207L39.6485 53.3168L38.0532 55.0679L35.8256 55.5849L34.2745 56.6353L32.7021 57.0002L30.3465 53.4039L28.8214 48.9245L26.5085 46.6993L24.4363 43.7277L25.1143 42.1894L25.7482 41.3518L26.9717 40.3774L28.4122 40.0432L28.4116 40.0428L26.9702 40.3773L25.7466 41.3517L24.7212 40.2087L23.8482 39.7208L23.5648 39.0961L22.9325 37.8618L21.5794 36.7949L20.6622 37.0077L20.6409 36.3222L20.2922 35.7131L17.8477 35.5902L15.7953 35.376L15.4251 34.0809L13.6805 31.0333L14.27 30.8965L14.2693 30.896L13.6797 31.0329L12.0006 27.9701L9.62217 25.7601L9.62308 25.759L5.10636 22.6651L1.7467 18.6113L3.60408 16.7993L5.52698 14.9721L7.03235 16.6942L8.38536 17.7612L10.4393 15.9036L10.2214 15.2637L11.2697 15.0204L12.6227 16.0874L13.9315 17.8552L14.8488 17.6423L15.8529 18.0998L15.7432 18.8155L15.7438 18.8154L15.8535 18.0995L14.8494 17.642L13.9321 17.8548L12.6233 16.0871L11.2703 15.0201L10.5954 12.4148L10.923 12.3388L11.3374 12.9331L12.2333 12.0347L12.9114 10.4964L12.2349 9.96292L12.3233 8.56145L11.2765 6.73289L11.3436 4.64589L11.8906 3.13799L13.0257 3.56506L14.3574 3.94651L14.5326 3.21537L14.5555 1.8291L16.0182 2.18015L17.4368 3.23193L18.0478 3.78065L18.7029 3.62861L18.7898 4.29892L19.0732 4.92364L19.707 4.08607L20.5588 3.88842L20.9077 4.49793L20.6669 5.2443ZM14.2366 19.1654L14.2363 19.1654L13.2748 20.079L13.6892 20.6734L14.4099 20.5061L14.0382 21.2829L13.5567 22.7756L12.4428 23.034L11.7221 23.2013L11.7221 23.2013L12.441 23.0345L13.5548 22.776L15.0617 22.4263L16.9176 22.6862L17.3975 23.2653L17.4188 23.9508L19.5581 24.8354L20.9995 24.5009L22.549 25.5223L23.4221 26.0102L23.7497 25.9341L23.378 26.7106L23.3803 26.7101L23.7521 25.9333L23.4245 26.0093L22.5515 25.5214L21.0019 24.5001L19.5605 24.8345L17.4213 23.95L17.4 23.2645L16.92 22.6853L15.0642 22.4255L13.5573 22.7752L14.0388 21.2825L14.4106 20.5058L13.6899 20.673L13.2754 20.0787L14.2366 19.1654ZM15.0122 31.4148L15.0114 31.4142L16.3659 30.4095L17.6549 29.4199L17.6557 29.4205L16.3668 30.41L15.0122 31.4148ZM18.8778 30.5178L18.8771 30.517L19.4452 29.6949L20.1004 29.5429L20.1011 29.5434L19.4461 29.6954L18.8778 30.5178ZM20.7778 30.0768L20.7771 30.0763L21.5632 29.8939L22.3936 29.0107L22.3939 29.0088L22.3944 29.0112L21.564 29.8944L20.7778 30.0768ZM22.7236 26.8634L22.7218 26.8689L22.7227 26.8629L22.7255 26.8623L24.6678 27.7922L25.3866 29.6957L25.385 29.697L24.6662 27.7936L22.7236 26.8634ZM27.5045 27.8261L27.918 28.4191L28.5945 28.9526L29.1187 28.831L29.7738 28.679L29.7754 28.6786L29.7754 28.6785L29.1215 28.8302L28.5974 28.9518L27.9209 28.4183L27.5064 27.824L27.5045 27.8261ZM28.5132 26.2101L29.4936 25.9826L30.7384 25.6937L30.7383 25.6931L29.4948 25.9816L28.5121 26.2097L28.5132 26.2101ZM31.0023 23.5612L32.0717 24.0034L32.0726 24.0023L31.0033 23.5601L31.0023 23.5612ZM30.3848 29.2277L30.1017 28.6034L30.103 28.6031L30.3864 29.2278L30.6043 29.8677L31.6731 30.3097L31.6723 30.3099L30.6027 29.8676L30.3848 29.2277ZM32.4799 30.813L32.524 30.1127L32.5256 30.1124L32.4814 30.8131L32.5682 31.4829L32.5667 31.4833L32.4799 30.813ZM35.4266 32.2006L34.7946 30.9668L34.7959 30.9665L35.4282 32.2007L35.5364 33.5566L34.2473 34.5462L32.7617 35.5814L32.105 37.8053L31.7546 39.2676L30.7063 39.5108L29.7235 39.7389L29.3959 39.8149L29.2862 40.5308L29.2847 40.53L29.3943 39.8148L29.7219 39.7387L30.7047 39.5107L31.753 39.2674L32.1034 37.8051L32.7602 35.5813L34.2458 34.5461L35.5348 33.5565L35.4266 32.2006ZM22.192 35.8176L21.8649 35.3485L22.8476 35.1204L22.192 35.8176ZM26.9759 31.2088L27.0647 30.6886L25.4715 30.368L25.4718 30.3683L26.9759 31.2088ZM24.795 29.8348L24.7945 29.8344L25.3835 29.6977L23.7916 29.3775L23.5951 29.4231L23.5948 29.4232L23.9435 30.0324L24.795 29.8348Z"/>
</mask>
<path fill-rule="evenodd" clip-rule="evenodd" d="M20.6669 5.2443L22.6538 5.47372L24.7504 4.9872L25.6448 6.16061L26.4736 7.34923L27.7611 8.43142L28.8521 9.55924L29.1126 11.5702L29.1552 12.9413L29.853 14.1603L31.075 15.2577L33.3437 18.1837L34.6297 21.3377L34.6285 21.3387L35.2394 21.8873L36.4401 22.2992L39.1674 25.1187L41.0003 26.7648L38.5533 28.7136L40.2979 31.7612L40.4929 33.7874L40.6879 35.8136L40.8844 35.768L41.6051 35.6007L42.0196 36.195L40.534 37.2302L37.5612 41.3725L38.2773 47.4207L39.6485 53.3168L38.0532 55.0679L35.8256 55.5849L34.2745 56.6353L32.7021 57.0002L30.3465 53.4039L28.8214 48.9245L26.5085 46.6993L24.4363 43.7277L25.1143 42.1894L25.7482 41.3518L26.9717 40.3774L28.4122 40.0432L28.4116 40.0428L26.9702 40.3773L25.7466 41.3517L24.7212 40.2087L23.8482 39.7208L23.5648 39.0961L22.9325 37.8618L21.5794 36.7949L20.6622 37.0077L20.6409 36.3222L20.2922 35.7131L17.8477 35.5902L15.7953 35.376L15.4251 34.0809L13.6805 31.0333L14.27 30.8965L14.2693 30.896L13.6797 31.0329L12.0006 27.9701L9.62217 25.7601L9.62308 25.759L5.10636 22.6651L1.7467 18.6113L3.60408 16.7993L5.52698 14.9721L7.03235 16.6942L8.38536 17.7612L10.4393 15.9036L10.2214 15.2637L11.2697 15.0204L12.6227 16.0874L13.9315 17.8552L14.8488 17.6423L15.8529 18.0998L15.7432 18.8155L15.7438 18.8154L15.8535 18.0995L14.8494 17.642L13.9321 17.8548L12.6233 16.0871L11.2703 15.0201L10.5954 12.4148L10.923 12.3388L11.3374 12.9331L12.2333 12.0347L12.9114 10.4964L12.2349 9.96292L12.3233 8.56145L11.2765 6.73289L11.3436 4.64589L11.8906 3.13799L13.0257 3.56506L14.3574 3.94651L14.5326 3.21537L14.5555 1.8291L16.0182 2.18015L17.4368 3.23193L18.0478 3.78065L18.7029 3.62861L18.7898 4.29892L19.0732 4.92364L19.707 4.08607L20.5588 3.88842L20.9077 4.49793L20.6669 5.2443ZM14.2366 19.1654L14.2363 19.1654L13.2748 20.079L13.6892 20.6734L14.4099 20.5061L14.0382 21.2829L13.5567 22.7756L12.4428 23.034L11.7221 23.2013L11.7221 23.2013L12.441 23.0345L13.5548 22.776L15.0617 22.4263L16.9176 22.6862L17.3975 23.2653L17.4188 23.9508L19.5581 24.8354L20.9995 24.5009L22.549 25.5223L23.4221 26.0102L23.7497 25.9341L23.378 26.7106L23.3803 26.7101L23.7521 25.9333L23.4245 26.0093L22.5515 25.5214L21.0019 24.5001L19.5605 24.8345L17.4213 23.95L17.4 23.2645L16.92 22.6853L15.0642 22.4255L13.5573 22.7752L14.0388 21.2825L14.4106 20.5058L13.6899 20.673L13.2754 20.0787L14.2366 19.1654ZM15.0122 31.4148L15.0114 31.4142L16.3659 30.4095L17.6549 29.4199L17.6557 29.4205L16.3668 30.41L15.0122 31.4148ZM18.8778 30.5178L18.8771 30.517L19.4452 29.6949L20.1004 29.5429L20.1011 29.5434L19.4461 29.6954L18.8778 30.5178ZM20.7778 30.0768L20.7771 30.0763L21.5632 29.8939L22.3936 29.0107L22.3939 29.0088L22.3944 29.0112L21.564 29.8944L20.7778 30.0768ZM22.7236 26.8634L22.7218 26.8689L22.7227 26.8629L22.7255 26.8623L24.6678 27.7922L25.3866 29.6957L25.385 29.697L24.6662 27.7936L22.7236 26.8634ZM27.5045 27.8261L27.918 28.4191L28.5945 28.9526L29.1187 28.831L29.7738 28.679L29.7754 28.6786L29.7754 28.6785L29.1215 28.8302L28.5974 28.9518L27.9209 28.4183L27.5064 27.824L27.5045 27.8261ZM28.5132 26.2101L29.4936 25.9826L30.7384 25.6937L30.7383 25.6931L29.4948 25.9816L28.5121 26.2097L28.5132 26.2101ZM31.0023 23.5612L32.0717 24.0034L32.0726 24.0023L31.0033 23.5601L31.0023 23.5612ZM30.3848 29.2277L30.1017 28.6034L30.103 28.6031L30.3864 29.2278L30.6043 29.8677L31.6731 30.3097L31.6723 30.3099L30.6027 29.8676L30.3848 29.2277ZM32.4799 30.813L32.524 30.1127L32.5256 30.1124L32.4814 30.8131L32.5682 31.4829L32.5667 31.4833L32.4799 30.813ZM35.4266 32.2006L34.7946 30.9668L34.7959 30.9665L35.4282 32.2007L35.5364 33.5566L34.2473 34.5462L32.7617 35.5814L32.105 37.8053L31.7546 39.2676L30.7063 39.5108L29.7235 39.7389L29.3959 39.8149L29.2862 40.5308L29.2847 40.53L29.3943 39.8148L29.7219 39.7387L30.7047 39.5107L31.753 39.2674L32.1034 37.8051L32.7602 35.5813L34.2458 34.5461L35.5348 33.5565L35.4266 32.2006ZM22.192 35.8176L21.8649 35.3485L22.8476 35.1204L22.192 35.8176ZM26.9759 31.2088L27.0647 30.6886L25.4715 30.368L25.4718 30.3683L26.9759 31.2088ZM24.795 29.8348L24.7945 29.8344L25.3835 29.6977L23.7916 29.3775L23.5951 29.4231L23.5948 29.4232L23.9435 30.0324L24.795 29.8348Z" fill="#F2F4F5"/>
<path d="M22.6538 5.47372L22.4817 6.96382C22.6525 6.98354 22.8254 6.97375 22.9929 6.93489L22.6538 5.47372ZM20.6669 5.2443L19.2394 4.78383C19.1014 5.21144 19.1625 5.67836 19.4056 6.05616C19.6488 6.43396 20.0485 6.68286 20.4949 6.7344L20.6669 5.2443ZM24.7504 4.9872L25.9434 4.0779C25.5857 3.60863 24.9861 3.39264 24.4113 3.52602L24.7504 4.9872ZM25.6448 6.16061L26.8751 5.30262C26.863 5.28526 26.8506 5.26815 26.8377 5.25132L25.6448 6.16061ZM26.4736 7.34923L25.2432 8.20722C25.3185 8.31519 25.4077 8.41278 25.5085 8.49748L26.4736 7.34923ZM27.7611 8.43142L28.8393 7.38854C28.8034 7.3515 28.7657 7.31633 28.7263 7.28317L27.7611 8.43142ZM28.8521 9.55924L30.3396 9.36653C30.2982 9.04647 30.1546 8.74832 29.9302 8.51636L28.8521 9.55924ZM29.1126 11.5702L30.6118 11.5236C30.6103 11.4747 30.6064 11.426 30.6001 11.3775L29.1126 11.5702ZM29.1552 12.9413L27.6559 12.9879C27.6636 13.2334 27.7314 13.4733 27.8534 13.6865L29.1552 12.9413ZM29.853 14.1603L28.5513 14.9055C28.6307 15.0443 28.7318 15.1695 28.8508 15.2763L29.853 14.1603ZM31.075 15.2577L32.2604 14.3386C32.2054 14.2676 32.1441 14.2017 32.0773 14.1417L31.075 15.2577ZM33.3437 18.1837L34.7327 17.6173C34.6812 17.491 34.6127 17.3723 34.5291 17.2645L33.3437 18.1837ZM34.6297 21.3377L35.6361 22.4499C36.104 22.0265 36.2569 21.3556 36.0187 20.7714L34.6297 21.3377ZM34.6285 21.3387L33.6221 20.2265C33.3071 20.5115 33.1277 20.9168 33.1285 21.3416C33.1293 21.7664 33.3102 22.1709 33.6263 22.4548L34.6285 21.3387ZM35.2394 21.8873L34.2372 23.0033C34.3869 23.1379 34.5623 23.2408 34.7527 23.3062L35.2394 21.8873ZM36.4401 22.2992L37.5182 21.2563C37.3535 21.0861 37.1508 20.9572 36.9268 20.8804L36.4401 22.2992ZM39.1674 25.1187L38.0892 26.1616C38.1137 26.1869 38.139 26.2112 38.1651 26.2347L39.1674 25.1187ZM41.0003 26.7648L41.9348 27.9382C42.28 27.6632 42.4866 27.2503 42.4997 26.8092C42.5127 26.3681 42.3309 25.9436 42.0026 25.6488L41.0003 26.7648ZM38.5533 28.7136L37.6188 27.5403C37.0397 28.0015 36.8837 28.8163 37.2515 29.4588L38.5533 28.7136ZM40.2979 31.7612L41.791 31.6175C41.7706 31.4057 41.7054 31.2006 41.5997 31.016L40.2979 31.7612ZM40.4929 33.7874L41.986 33.6437L40.4929 33.7874ZM40.6879 35.8136L39.1948 35.9573C39.2362 36.3875 39.4612 36.779 39.8122 37.0314C40.1631 37.2838 40.6059 37.3725 41.0269 37.2747L40.6879 35.8136ZM40.8844 35.768L41.2235 37.2291L41.2235 37.2291L40.8844 35.768ZM41.6051 35.6007L42.8355 34.7427C42.4848 34.2398 41.8633 34.0009 41.2661 34.1395L41.6051 35.6007ZM42.0196 36.195L42.8772 37.4257C43.2036 37.1982 43.4263 36.8503 43.4962 36.4586C43.5662 36.0669 43.4776 35.6634 43.25 35.337L42.0196 36.195ZM40.534 37.2302L39.6764 35.9996C39.5367 36.0969 39.4146 36.2173 39.3153 36.3557L40.534 37.2302ZM37.5612 41.3725L36.3426 40.4979C36.1243 40.8021 36.0276 41.177 36.0716 41.5489L37.5612 41.3725ZM38.2773 47.4207L36.7877 47.597C36.7942 47.652 36.8037 47.7065 36.8163 47.7604L38.2773 47.4207ZM39.6485 53.3168L40.7574 54.327C41.0896 53.9623 41.2213 53.4575 41.1095 52.977L39.6485 53.3168ZM38.0532 55.0679L38.3923 56.5291C38.6887 56.4603 38.9572 56.303 39.1621 56.0781L38.0532 55.0679ZM35.8256 55.5849L35.4865 54.1237C35.3072 54.1653 35.137 54.2396 34.9845 54.3429L35.8256 55.5849ZM34.2745 56.6353L34.6136 58.0965C34.7929 58.0549 34.9631 57.9806 35.1156 57.8773L34.2745 56.6353ZM32.7021 57.0002L31.4473 57.8221C31.792 58.3483 32.4284 58.6036 33.0411 58.4614L32.7021 57.0002ZM30.3465 53.4039L28.9266 53.8874C28.9672 54.0067 29.0227 54.1204 29.0917 54.2258L30.3465 53.4039ZM28.8214 48.9245L30.2413 48.441C30.1642 48.2144 30.0339 48.0095 29.8613 47.8435L28.8214 48.9245ZM26.5085 46.6993L25.2781 47.5573C25.3341 47.6376 25.3979 47.7123 25.4685 47.7802L26.5085 46.6993ZM24.4363 43.7277L23.0637 43.1227C22.8526 43.6018 22.9065 44.1563 23.2059 44.5857L24.4363 43.7277ZM25.1143 42.1894L23.9183 41.2842C23.848 41.3771 23.7887 41.4778 23.7418 41.5844L25.1143 42.1894ZM25.7482 41.3518L24.8137 40.1785C24.7157 40.2566 24.6278 40.3467 24.5521 40.4467L25.7482 41.3518ZM26.9717 40.3774L26.6327 38.9163C26.4153 38.9667 26.2119 39.065 26.0373 39.2041L26.9717 40.3774ZM28.4122 40.0432L28.7512 41.5043C29.3553 41.3642 29.8108 40.8668 29.8975 40.2528C29.9841 39.6388 29.684 39.0347 29.1424 38.7329L28.4122 40.0432ZM28.4116 40.0428L29.1417 38.7325C28.8164 38.5513 28.4353 38.4975 28.0725 38.5816L28.4116 40.0428ZM26.9702 40.3773L26.6311 38.9161C26.4137 38.9666 26.2103 39.0649 26.0357 39.2039L26.9702 40.3773ZM25.7466 41.3517L24.6301 42.3534C25.1605 42.9446 26.0598 43.0199 26.6811 42.5251L25.7466 41.3517ZM24.7212 40.2087L25.8378 39.207C25.7273 39.0839 25.5973 38.98 25.4529 38.8993L24.7212 40.2087ZM23.8482 39.7208L22.4821 40.3405C22.6145 40.6322 22.8368 40.874 23.1164 41.0302L23.8482 39.7208ZM23.5648 39.0961L24.9308 38.4764C24.921 38.4548 24.9106 38.4333 24.8998 38.4122L23.5648 39.0961ZM22.9325 37.8618L24.2675 37.1779C24.1691 36.986 24.0306 36.8176 23.8613 36.684L22.9325 37.8618ZM21.5794 36.7949L22.5083 35.617C22.1506 35.335 21.6841 35.2307 21.2404 35.3337L21.5794 36.7949ZM20.6622 37.0077L19.1629 37.0543C19.1769 37.5034 19.3914 37.9225 19.7474 38.1965C20.1035 38.4705 20.5636 38.5704 21.0013 38.4689L20.6622 37.0077ZM20.6409 36.3222L22.1401 36.2755C22.1325 36.03 22.0647 35.7901 21.9427 35.577L20.6409 36.3222ZM20.2922 35.7131L21.594 34.9679C21.3401 34.5244 20.8779 34.2407 20.3676 34.215L20.2922 35.7131ZM17.8477 35.5902L17.692 37.0821C17.7187 37.0849 17.7455 37.0869 17.7724 37.0883L17.8477 35.5902ZM15.7953 35.376L14.3531 35.7883C14.5214 36.377 15.0306 36.8043 15.6396 36.8679L15.7953 35.376ZM15.4251 34.0809L16.8673 33.6686C16.8341 33.5524 16.7869 33.4406 16.7269 33.3357L15.4251 34.0809ZM13.6805 31.0333L13.3414 29.5721C12.8795 29.6794 12.4954 29.9987 12.3057 30.4334C12.116 30.8681 12.1431 31.3669 12.3787 31.7785L13.6805 31.0333ZM14.27 30.8965L14.6091 32.3577C15.1864 32.2237 15.6307 31.7625 15.7429 31.1806C15.8551 30.5988 15.6143 30.0053 15.1283 29.6663L14.27 30.8965ZM14.2693 30.896L15.1275 29.6658C14.7791 29.4228 14.344 29.3388 13.9302 29.4348L14.2693 30.896ZM13.6797 31.0329L12.3643 31.7539C12.6876 32.3435 13.3637 32.646 14.0187 32.494L13.6797 31.0329ZM12.0006 27.9701L13.3159 27.249C13.2387 27.1081 13.1393 26.9806 13.0216 26.8712L12.0006 27.9701ZM9.62217 25.7601L8.46238 24.8088C7.95983 25.4215 8.0206 26.3195 8.60113 26.8589L9.62217 25.7601ZM9.62308 25.759L10.7829 26.7102C11.0494 26.3852 11.1674 25.9633 11.1081 25.5472C11.0487 25.1311 10.8175 24.759 10.4708 24.5215L9.62308 25.759ZM5.10636 22.6651L3.95144 23.6222C4.04034 23.7295 4.14374 23.8238 4.25868 23.9026L5.10636 22.6651ZM1.7467 18.6113L0.699247 17.5376C0.139939 18.0832 0.0931829 18.9668 0.591785 19.5684L1.7467 18.6113ZM3.60408 16.7993L2.57083 15.7119C2.56607 15.7164 2.56133 15.721 2.55663 15.7256L3.60408 16.7993ZM5.52698 14.9721L6.65633 13.9849C6.38739 13.6772 6.00458 13.4926 5.59639 13.4737C5.18819 13.4548 4.78995 13.6032 4.49373 13.8847L5.52698 14.9721ZM7.03235 16.6942L5.903 17.6814C5.96382 17.751 6.03094 17.8148 6.10351 17.872L7.03235 16.6942ZM8.38536 17.7612L7.45652 18.939C8.03111 19.3922 8.84879 19.3646 9.39151 18.8737L8.38536 17.7612ZM10.4393 15.9036L11.4454 17.0161C11.8896 16.6144 12.0523 15.9871 11.8592 15.4202L10.4393 15.9036ZM10.2214 15.2637L9.88234 13.8025C9.4694 13.8984 9.11628 14.1644 8.91033 14.535C8.70438 14.9055 8.66483 15.3459 8.80146 15.7472L10.2214 15.2637ZM11.2697 15.0204L12.1985 13.8426C11.8409 13.5606 11.3744 13.4563 10.9306 13.5593L11.2697 15.0204ZM12.6227 16.0874L13.8283 15.1949C13.7491 15.0879 13.656 14.992 13.5516 14.9096L12.6227 16.0874ZM13.9315 17.8552L12.726 18.7477C13.0816 19.2281 13.6884 19.4514 14.2706 19.3163L13.9315 17.8552ZM14.8488 17.6423L15.4707 16.2773C15.1697 16.1402 14.8319 16.1064 14.5097 16.1811L14.8488 17.6423ZM15.8529 18.0998L17.3356 18.327C17.4372 17.6634 17.0857 17.0131 16.4748 16.7348L15.8529 18.0998ZM15.7432 18.8155L14.2605 18.5884C14.1851 19.0803 14.3587 19.5776 14.7238 19.9159C15.0889 20.2541 15.598 20.3893 16.0828 20.2766L15.7432 18.8155ZM15.7438 18.8154L16.0833 20.2765C16.6808 20.1376 17.1336 19.6489 17.2265 19.0426L15.7438 18.8154ZM15.8535 18.0995L17.3362 18.3267C17.4379 17.6631 17.0863 17.0128 16.4754 16.7345L15.8535 18.0995ZM14.8494 17.642L15.4713 16.277C15.1703 16.1399 14.8325 16.106 14.5103 16.1808L14.8494 17.642ZM13.9321 17.8548L12.7266 18.7474C13.0822 19.2277 13.689 19.4511 14.2712 19.316L13.9321 17.8548ZM12.6233 16.0871L13.8289 15.1945C13.7497 15.0876 13.6566 14.9917 13.5522 14.9093L12.6233 16.0871ZM11.2703 15.0201L9.81826 15.3963C9.90044 15.7135 10.0842 15.9951 10.3415 16.1979L11.2703 15.0201ZM10.5954 12.4148L10.2563 10.9536C9.86231 11.0451 9.52195 11.2917 9.3124 11.6376C9.10285 11.9836 9.04187 12.3995 9.14331 12.791L10.5954 12.4148ZM10.923 12.3388L12.1533 11.4808C11.8026 10.9779 11.1811 10.739 10.5839 10.8776L10.923 12.3388ZM11.3374 12.9331L10.107 13.7911C10.3611 14.1555 10.7637 14.3885 11.2062 14.4274C11.6488 14.4662 12.0858 14.3069 12.3995 13.9923L11.3374 12.9331ZM12.2333 12.0347L13.2954 13.0939C13.426 12.963 13.5313 12.809 13.6059 12.6397L12.2333 12.0347ZM12.9114 10.4964L14.284 11.1014C14.5599 10.4755 14.3773 9.74217 13.8402 9.31859L12.9114 10.4964ZM12.2349 9.96292L10.7378 9.8685C10.7068 10.3602 10.9192 10.8357 11.306 11.1407L12.2349 9.96292ZM12.3233 8.56145L13.8203 8.65586C13.8388 8.36292 13.7709 8.07099 13.6251 7.81624L12.3233 8.56145ZM11.2765 6.73289L9.77729 6.68471C9.76837 6.96235 9.83672 7.23701 9.97472 7.47809L11.2765 6.73289ZM11.3436 4.64589L9.9335 4.13435C9.87953 4.28313 9.84944 4.43952 9.84436 4.59771L11.3436 4.64589ZM11.8906 3.13799L12.4188 1.73406C12.0436 1.59289 11.6275 1.6078 11.2633 1.77546C10.8991 1.94312 10.6172 2.24958 10.4805 2.62645L11.8906 3.13799ZM13.0257 3.56506L12.4975 4.96898C12.5354 4.98322 12.5738 4.99593 12.6127 5.00706L13.0257 3.56506ZM14.3574 3.94651L13.9444 5.38852C14.3377 5.5012 14.7601 5.44828 15.1135 5.24201C15.4669 5.03575 15.7207 4.69405 15.8161 4.29611L14.3574 3.94651ZM14.5326 3.21537L15.9913 3.56497C16.0169 3.45851 16.0306 3.34958 16.0324 3.24012L14.5326 3.21537ZM14.5555 1.8291L14.9056 0.370519C14.4631 0.264318 13.9963 0.364749 13.6366 0.643541C13.2769 0.922334 13.0632 1.34934 13.0557 1.80435L14.5555 1.8291ZM16.0182 2.18015L16.9116 0.975231C16.7495 0.854968 16.5646 0.768689 16.3683 0.721568L16.0182 2.18015ZM17.4368 3.23193L18.439 2.11593C18.4042 2.08461 18.3678 2.05494 18.3302 2.02702L17.4368 3.23193ZM18.0478 3.78065L17.0455 4.89666C17.4095 5.2236 17.9102 5.35243 18.3868 5.24183L18.0478 3.78065ZM18.7029 3.62861L20.1905 3.4359C20.1361 3.01574 19.9065 2.6382 19.5585 2.39655C19.2105 2.15489 18.7766 2.07167 18.3639 2.16744L18.7029 3.62861ZM18.7898 4.29892L17.3022 4.49164C17.3213 4.6392 17.3623 4.7831 17.4238 4.9186L18.7898 4.29892ZM19.0732 4.92364L17.7072 5.54332C17.9256 6.02488 18.3815 6.35585 18.9071 6.41441C19.4326 6.47297 19.9502 6.25049 20.2693 5.82882L19.0732 4.92364ZM19.707 4.08607L19.368 2.62489C19.026 2.70424 18.7228 2.90099 18.5109 3.18089L19.707 4.08607ZM20.5588 3.88842L21.8606 3.14322C21.5316 2.56854 20.8647 2.27756 20.2197 2.42724L20.5588 3.88842ZM20.9077 4.49793L22.3353 4.9584C22.4648 4.55671 22.4192 4.11902 22.2095 3.75273L20.9077 4.49793ZM14.2363 19.1654L13.8993 17.7038C13.6379 17.7641 13.3975 17.8933 13.203 18.0781L14.2363 19.1654ZM14.2366 19.1654L15.2698 20.2528C15.76 19.787 15.878 19.0508 15.5578 18.4552C15.2376 17.8596 14.5585 17.5518 13.8996 17.7037L14.2366 19.1654ZM13.2748 20.079L12.2416 18.9917C11.7042 19.5023 11.6204 20.329 12.0444 20.937L13.2748 20.079ZM13.6892 20.6734L12.4589 21.5313C12.8096 22.0343 13.431 22.2731 14.0283 22.1345L13.6892 20.6734ZM14.4099 20.5061L15.7629 21.1537C16.0118 20.6337 15.9407 20.017 15.5799 19.5674C15.2191 19.1177 14.6325 18.9146 14.0709 19.0449L14.4099 20.5061ZM14.0382 21.2829L12.6851 20.6353C12.6561 20.6959 12.6312 20.7584 12.6106 20.8224L14.0382 21.2829ZM13.5567 22.7756L13.8957 24.2367C14.4092 24.1176 14.8224 23.7377 14.9842 23.2361L13.5567 22.7756ZM12.4428 23.034L12.7819 24.4952H12.7819L12.4428 23.034ZM11.7221 23.2013L11.3831 21.7401C11.0601 21.815 10.7711 21.9948 10.5612 22.2514L11.7221 23.2013ZM11.7221 23.2013L10.5612 22.2515C10.1547 22.7483 10.1094 23.4487 10.4485 23.9937C10.7876 24.5387 11.4359 24.8076 12.0612 24.6625L11.7221 23.2013ZM12.441 23.0345L12.7801 24.4957H12.7801L12.441 23.0345ZM13.5548 22.776L13.2157 21.3149L13.5548 22.776ZM15.0617 22.4263L15.2697 20.9408C15.0874 20.9153 14.902 20.9236 14.7227 20.9652L15.0617 22.4263ZM16.9176 22.6862L18.0725 21.729C17.8338 21.441 17.496 21.2525 17.1255 21.2007L16.9176 22.6862ZM17.3975 23.2653L18.8968 23.2186C18.8864 22.8853 18.7652 22.5649 18.5524 22.3081L17.3975 23.2653ZM17.4188 23.9508L15.9196 23.9974C15.9379 24.5872 16.3003 25.1115 16.8457 25.337L17.4188 23.9508ZM19.5581 24.8354L18.9849 26.2215C19.2737 26.341 19.5927 26.3672 19.8971 26.2965L19.5581 24.8354ZM20.9995 24.5009L21.825 23.2485C21.4818 23.0223 21.0608 22.9468 20.6604 23.0397L20.9995 24.5009ZM22.549 25.5223L21.7235 26.7747C21.7541 26.7948 21.7854 26.8138 21.8173 26.8317L22.549 25.5223ZM23.4221 26.0102L22.6904 27.3196C23.016 27.5015 23.3978 27.5557 23.7612 27.4713L23.4221 26.0102ZM23.7497 25.9341L25.1027 26.5817C25.3516 26.0617 25.2804 25.445 24.9196 24.9954C24.5588 24.5457 23.9722 24.3426 23.4106 24.473L23.7497 25.9341ZM23.378 26.7106L22.025 26.063C21.7762 26.5829 21.8473 27.1994 22.2079 27.6491C22.5685 28.0987 23.1549 28.302 23.7165 28.1719L23.378 26.7106ZM23.3803 26.7101L23.7188 28.1714C24.1631 28.0685 24.5364 27.769 24.7333 27.3577L23.3803 26.7101ZM23.7521 25.9333L25.1051 26.5809C25.354 26.0609 25.2829 25.4442 24.9221 24.9945C24.5613 24.5449 23.9747 24.3418 23.413 24.4721L23.7521 25.9333ZM23.4245 26.0093L22.6928 27.3187C23.0184 27.5007 23.4002 27.5548 23.7636 27.4705L23.4245 26.0093ZM22.5515 25.5214L21.726 26.7738C21.7565 26.794 21.7878 26.813 21.8197 26.8308L22.5515 25.5214ZM21.0019 24.5001L21.8274 23.2476C21.4842 23.0214 21.0632 22.946 20.6628 23.0389L21.0019 24.5001ZM19.5605 24.8345L18.9873 26.2207C19.2762 26.3401 19.5951 26.3664 19.8996 26.2957L19.5605 24.8345ZM17.4213 23.95L15.922 23.9966C15.9404 24.5864 16.3028 25.1107 16.8481 25.3362L17.4213 23.95ZM17.4 23.2645L18.8992 23.2178C18.8889 22.8845 18.7677 22.5641 18.5549 22.3073L17.4 23.2645ZM16.92 22.6853L18.0749 21.7282C17.8362 21.4401 17.4985 21.2517 17.128 21.1998L16.92 22.6853ZM15.0642 22.4255L15.2722 20.94C15.0899 20.9145 14.9044 20.9227 14.7251 20.9643L15.0642 22.4255ZM13.5573 22.7752L12.1297 22.3147C11.9638 22.8289 12.0873 23.3926 12.453 23.7904C12.8187 24.1882 13.37 24.3585 13.8963 24.2364L13.5573 22.7752ZM14.0388 21.2825L12.6858 20.6349C12.6567 20.6955 12.6318 20.7581 12.6112 20.822L14.0388 21.2825ZM14.4106 20.5058L15.7636 21.1534C16.0125 20.6333 15.9413 20.0167 15.5805 19.567C15.2197 19.1173 14.6331 18.9143 14.0715 19.0446L14.4106 20.5058ZM13.6899 20.673L12.4595 21.531C12.8102 22.0339 13.4317 22.2728 14.0289 22.1342L13.6899 20.673ZM13.2754 20.0787L12.2422 18.9913C11.7048 19.502 11.621 20.3286 12.045 20.9367L13.2754 20.0787ZM15.0114 31.4142L14.1178 30.2095C13.7303 30.4969 13.5047 30.9532 13.5116 31.4355C13.5184 31.9179 13.7569 32.3676 14.1524 32.6439L15.0114 31.4142ZM15.0122 31.4148L14.1531 32.6444C14.682 33.0139 15.3878 33.0038 15.9059 32.6195L15.0122 31.4148ZM16.3659 30.4095L17.2596 31.6142C17.2662 31.6093 17.2728 31.6043 17.2793 31.5993L16.3659 30.4095ZM17.6549 29.4199L18.5833 28.2417C18.0443 27.817 17.2858 27.8122 16.7415 28.2301L17.6549 29.4199ZM17.6557 29.4205L18.5691 30.6103C18.9363 30.3284 19.1527 29.8928 19.1556 29.4299C19.1586 28.967 18.9476 28.5288 18.584 28.2423L17.6557 29.4205ZM16.3668 30.41L17.2604 31.6147C17.2671 31.6098 17.2737 31.6048 17.2802 31.5998L16.3668 30.41ZM18.8771 30.517L17.6431 29.6642C17.2364 30.2527 17.3018 31.0465 17.7994 31.5604L18.8771 30.517ZM18.8778 30.5178L17.8001 31.5611C18.1126 31.8839 18.5533 32.0496 19.001 32.0127C19.4487 31.9758 19.8564 31.7401 20.1118 31.3706L18.8778 30.5178ZM19.4452 29.6949L19.1062 28.2337C18.7426 28.3181 18.4235 28.535 18.2113 28.8421L19.4452 29.6949ZM20.1004 29.5429L21.0308 28.3663C20.6729 28.0833 20.2058 27.9786 19.7614 28.0817L20.1004 29.5429ZM20.1011 29.5434L20.4402 31.0046C21.0016 30.8743 21.4387 30.4339 21.5648 29.8715C21.6908 29.3091 21.4835 28.7242 21.0314 28.3668L20.1011 29.5434ZM19.4461 29.6954L19.107 28.2342C18.7434 28.3186 18.4244 28.5355 18.2121 28.8426L19.4461 29.6954ZM20.7771 30.0763L20.4381 28.6152C19.8763 28.7455 19.439 29.1864 19.3132 29.7493C19.1875 30.3121 19.3956 30.8972 19.8485 31.2543L20.7771 30.0763ZM20.7778 30.0768L19.8491 31.2548C20.2068 31.5368 20.6732 31.641 21.1169 31.538L20.7778 30.0768ZM21.5632 29.8939L21.9022 31.3551C22.1908 31.2881 22.453 31.1372 22.656 30.9214L21.5632 29.8939ZM22.3936 29.0107L23.4864 30.0383C23.6943 29.8171 23.8303 29.538 23.8763 29.238L22.3936 29.0107ZM22.3939 29.0088L23.8549 28.669C23.692 27.9686 23.0551 27.4824 22.3365 27.5099C21.618 27.5374 21.0201 28.0708 20.9112 28.7816L22.3939 29.0088ZM22.3944 29.0112L23.4872 30.0387C23.8309 29.6732 23.9691 29.1601 23.8554 28.6714L22.3944 29.0112ZM21.564 29.8944L21.9031 31.3556C22.1916 31.2886 22.4539 31.1377 22.6568 30.9219L21.564 29.8944ZM22.7218 26.8689L21.2391 26.6416C21.1206 27.4145 21.6157 28.1488 22.3767 28.3287C23.1377 28.5086 23.9092 28.0737 24.1493 27.3296L22.7218 26.8689ZM22.7236 26.8634L23.3714 25.5105C22.9809 25.3235 22.5288 25.3144 22.1311 25.4854C21.7334 25.6564 21.429 25.9908 21.296 26.4028L22.7236 26.8634ZM22.7227 26.8629L22.3838 25.4017C21.786 25.5404 21.333 26.0291 21.24 26.6356L22.7227 26.8629ZM22.7255 26.8623L23.3733 25.5094C23.0662 25.3623 22.7183 25.3241 22.3866 25.4011L22.7255 26.8623ZM24.6678 27.7922L26.0711 27.2624C25.9347 26.901 25.664 26.6062 25.3156 26.4393L24.6678 27.7922ZM25.3866 29.6957L26.3 30.8855C26.8245 30.4829 27.0234 29.7844 26.7899 29.1659L25.3866 29.6957ZM25.385 29.697L23.9817 30.2268C24.1494 30.671 24.5174 31.0095 24.974 31.1396C25.4306 31.2696 25.9219 31.1759 26.2984 30.8867L25.385 29.697ZM24.6662 27.7936L26.0695 27.2637C25.9331 26.9023 25.6625 26.6075 25.314 26.4406L24.6662 27.7936ZM27.918 28.4191L26.6876 29.2771C26.7719 29.398 26.8735 29.5057 26.9892 29.5969L27.918 28.4191ZM27.5045 27.8261L26.4117 26.7985C25.9257 27.3154 25.8683 28.1021 26.2741 28.6841L27.5045 27.8261ZM28.5945 28.9526L27.6657 30.1304C28.0234 30.4125 28.4899 30.5168 28.9336 30.4138L28.5945 28.9526ZM29.1187 28.831L29.4577 30.2922L29.1187 28.831ZM29.7738 28.679L29.4351 27.2177L29.4348 27.2178L29.7738 28.679ZM29.7754 28.6786L30.1141 30.1398C30.8311 29.9736 31.3216 29.3118 31.272 28.5775L29.7754 28.6786ZM29.7754 28.6785L31.272 28.5773C31.2423 28.1386 31.0217 27.735 30.6684 27.4732C30.315 27.2114 29.8647 27.1179 29.4363 27.2173L29.7754 28.6785ZM29.1215 28.8302L28.7824 27.369L28.7824 27.369L29.1215 28.8302ZM28.5974 28.9518L27.6685 30.1296C28.0262 30.4117 28.4927 30.516 28.9364 30.413L28.5974 28.9518ZM27.9209 28.4183L26.6905 29.2763C26.7747 29.3972 26.8763 29.5049 26.992 29.5961L27.9209 28.4183ZM27.5064 27.824L28.7368 26.966C28.4783 26.5953 28.0664 26.3609 27.6156 26.328C27.1649 26.2951 26.7233 26.4672 26.4137 26.7964L27.5064 27.824ZM29.4936 25.9826L29.1545 24.5214H29.1545L29.4936 25.9826ZM28.5132 26.2101L27.986 27.6144C28.2628 27.7183 28.5642 27.7381 28.8522 27.6713L28.5132 26.2101ZM30.7384 25.6937L31.0775 27.1549C31.828 26.9808 32.3245 26.2664 32.2262 25.5023L30.7384 25.6937ZM30.7383 25.6931L32.2261 25.5017C32.172 25.0812 31.9425 24.7033 31.5945 24.4614C31.2464 24.2194 30.8122 24.1361 30.3993 24.2319L30.7383 25.6931ZM29.4948 25.9816L29.8339 27.4428L29.4948 25.9816ZM28.5121 26.2097L28.173 24.7485C27.5289 24.898 27.0586 25.4516 27.0153 26.1114C26.972 26.7712 27.3658 27.3816 27.9849 27.614L28.5121 26.2097ZM32.0717 24.0034L31.4985 25.3896C32.0909 25.6345 32.7735 25.4759 33.1972 24.9949L32.0717 24.0034ZM31.0023 23.5612L29.91 22.5332C29.5721 22.8922 29.4322 23.3945 29.5358 23.8766C29.6395 24.3586 29.9735 24.759 30.4291 24.9474L31.0023 23.5612ZM32.0726 24.0023L33.1982 24.9938C33.5184 24.6304 33.6433 24.1347 33.5337 23.6628C33.4241 23.191 33.0934 22.8012 32.6458 22.6161L32.0726 24.0023ZM31.0033 23.5601L31.5765 22.174C31.0008 21.9359 30.3379 22.0785 29.911 22.5321L31.0033 23.5601ZM30.1017 28.6034L29.7624 27.1423C29.3246 27.2439 28.9554 27.5366 28.7565 27.9396C28.5576 28.3427 28.5499 28.8138 28.7356 29.2231L30.1017 28.6034ZM30.3848 29.2277L31.8048 28.7442C31.789 28.6979 31.771 28.6525 31.7508 28.608L30.3848 29.2277ZM30.103 28.6031L31.469 27.9834C31.1737 27.3324 30.4601 26.9803 29.7638 27.142L30.103 28.6031ZM30.3864 29.2278L31.8064 28.7444C31.7906 28.6981 31.7726 28.6526 31.7524 28.6081L30.3864 29.2278ZM30.6043 29.8677L29.1843 30.3512C29.3235 30.76 29.6321 31.0889 30.0311 31.2539L30.6043 29.8677ZM31.6731 30.3097L32.0114 31.771C32.6469 31.6239 33.1144 31.083 33.168 30.433C33.2216 29.7829 32.849 29.1727 32.2463 28.9235L31.6731 30.3097ZM31.6723 30.3099L31.0992 31.696C31.3878 31.8154 31.7064 31.8417 32.0107 31.7712L31.6723 30.3099ZM30.6027 29.8676L29.1828 30.351C29.3219 30.7598 29.6305 31.0888 30.0295 31.2538L30.6027 29.8676ZM32.524 30.1127L32.1847 28.6516C31.5393 28.8015 31.0687 29.3571 31.027 30.0183L32.524 30.1127ZM32.4799 30.813L30.9828 30.7185C30.9768 30.8143 30.98 30.9105 30.9923 31.0057L32.4799 30.813ZM32.5256 30.1124L34.0227 30.2068C34.0525 29.7336 33.8569 29.2742 33.4952 28.9678C33.1334 28.6614 32.6481 28.544 32.1863 28.6513L32.5256 30.1124ZM32.4814 30.8131L30.9844 30.7187C30.9784 30.8145 30.9815 30.9106 30.9939 31.0058L32.4814 30.8131ZM32.5682 31.4829L32.9078 32.944C33.6585 32.7695 34.1548 32.0545 34.0558 31.2902L32.5682 31.4829ZM32.5667 31.4833L31.0791 31.676C31.1336 32.0962 31.3632 32.4739 31.7113 32.7155C32.0594 32.9571 32.4935 33.0403 32.9063 32.9443L32.5667 31.4833ZM34.7946 30.9668L34.4553 29.5057C34.0053 29.6102 33.6285 29.9162 33.434 30.3352C33.2395 30.7543 33.2489 31.2396 33.4596 31.6507L34.7946 30.9668ZM35.4266 32.2006L36.9219 32.0813C36.9062 31.8844 36.8517 31.6925 36.7616 31.5167L35.4266 32.2006ZM34.7959 30.9665L36.1309 30.2826C35.8171 29.6701 35.1269 29.3497 34.4566 29.5054L34.7959 30.9665ZM35.4282 32.2007L36.9235 32.0815C36.9078 31.8845 36.8533 31.6926 36.7632 31.5168L35.4282 32.2007ZM35.5364 33.5566L36.4498 34.7464C36.853 34.4368 37.072 33.9441 37.0316 33.4373L35.5364 33.5566ZM34.2473 34.5462L35.1049 35.7769C35.1238 35.7637 35.1425 35.7501 35.1608 35.736L34.2473 34.5462ZM32.7617 35.5814L31.9042 34.3507C31.6246 34.5456 31.4197 34.8298 31.3232 35.1566L32.7617 35.5814ZM32.105 37.8053L30.6664 37.3804C30.6591 37.4053 30.6524 37.4304 30.6463 37.4557L32.105 37.8053ZM31.7546 39.2676L32.0936 40.7287C32.6473 40.6003 33.0808 40.1699 33.2132 39.6172L31.7546 39.2676ZM30.7063 39.5108L30.3672 38.0496H30.3672L30.7063 39.5108ZM29.7235 39.7389L30.0625 41.2001L30.0626 41.2L29.7235 39.7389ZM29.3959 39.8149L29.0568 38.3537C28.4591 38.4924 28.0062 38.9812 27.9132 39.5877L29.3959 39.8149ZM29.2862 40.5308L28.5553 41.8407C28.9844 42.0802 29.5037 42.0942 29.9452 41.8783C30.3867 41.6624 30.6944 41.2439 30.7689 40.758L29.2862 40.5308ZM29.2847 40.53L27.802 40.3028C27.7072 40.9219 28.0069 41.5347 28.5538 41.8399L29.2847 40.53ZM29.3943 39.8148L29.0553 38.3536C28.4575 38.4923 28.0046 38.981 27.9116 39.5876L29.3943 39.8148ZM29.7219 39.7387L29.3828 38.2776H29.3828L29.7219 39.7387ZM30.7047 39.5107L31.0438 40.9719H31.0438L30.7047 39.5107ZM31.753 39.2674L32.0921 40.7286C32.6457 40.6001 33.0792 40.1698 33.2117 39.617L31.753 39.2674ZM32.1034 37.8051L30.6649 37.3803C30.6575 37.4052 30.6508 37.4303 30.6448 37.4555L32.1034 37.8051ZM32.7602 35.5813L31.9026 34.3506C31.623 34.5454 31.4181 34.8296 31.3216 35.1565L32.7602 35.5813ZM34.2458 34.5461L35.1033 35.7767C35.1223 35.7635 35.1409 35.7499 35.1592 35.7359L34.2458 34.5461ZM35.5348 33.5565L36.4482 34.7463C36.8515 34.4367 37.0705 33.9439 37.03 33.4372L35.5348 33.5565ZM21.8649 35.3485L21.5258 33.8873C21.0408 33.9998 20.6433 34.3456 20.4647 34.8104C20.2861 35.2751 20.3497 35.7981 20.6345 36.2065L21.8649 35.3485ZM22.192 35.8176L20.9616 36.6756C21.2202 37.0463 21.6321 37.2807 22.0829 37.3136C22.5336 37.3465 22.9752 37.1744 23.2848 36.8451L22.192 35.8176ZM22.8476 35.1204L23.9404 36.1479C24.3931 35.6664 24.4773 34.9453 24.1477 34.3724C23.8181 33.7995 23.1523 33.5098 22.5085 33.6593L22.8476 35.1204ZM27.0647 30.6886L28.5433 30.9412C28.6799 30.1415 28.1559 29.3781 27.3606 29.2181L27.0647 30.6886ZM26.9759 31.2088L26.2441 32.5182C26.6694 32.7558 27.1835 32.7722 27.6229 32.5621C28.0624 32.3519 28.3724 31.9415 28.4545 31.4614L26.9759 31.2088ZM25.4715 30.368L25.7673 28.8975C25.0875 28.7607 24.4025 29.1078 24.1107 29.7369C23.8189 30.366 23.9964 31.1132 24.54 31.5438L25.4715 30.368ZM25.4718 30.3683L24.5403 31.544C24.6032 31.5938 24.67 31.6385 24.74 31.6777L25.4718 30.3683ZM24.7945 29.8344L24.4554 28.3733C23.8932 28.5037 23.4557 28.9452 23.3303 29.5086C23.2049 30.072 23.4139 30.6573 23.8677 31.0139L24.7945 29.8344ZM24.795 29.8348L25.1341 31.296C25.6963 31.1655 26.1338 30.7241 26.2592 30.1607C26.3845 29.5973 26.1755 29.0119 25.7217 28.6554L24.795 29.8348ZM25.3835 29.6977L25.7226 31.1589C26.4104 30.9993 26.8938 30.3816 26.8834 29.6756C26.873 28.9696 26.3716 28.3665 25.6794 28.2272L25.3835 29.6977ZM23.7916 29.3775L24.0875 27.9069C23.8776 27.8647 23.6611 27.8679 23.4526 27.9163L23.7916 29.3775ZM23.5951 29.4231L23.256 27.9619L23.2553 27.9621L23.5951 29.4231ZM23.5948 29.4232L23.255 27.9621C22.7932 28.0695 22.4093 28.389 22.2198 28.8236C22.0303 29.2582 22.0574 29.7569 22.293 30.1684L23.5948 29.4232ZM23.9435 30.0324L22.6417 30.7776C22.9707 31.3523 23.6376 31.6433 24.2826 31.4936L23.9435 30.0324ZM22.8259 3.98362L20.839 3.7542L20.4949 6.7344L22.4817 6.96382L22.8259 3.98362ZM24.4113 3.52602L22.3147 4.01254L22.9929 6.93489L25.0895 6.44837L24.4113 3.52602ZM26.8377 5.25132L25.9434 4.0779L23.5574 5.89649L24.4518 7.0699L26.8377 5.25132ZM27.704 6.49124L26.8751 5.30262L24.4144 7.0186L25.2432 8.20722L27.704 6.49124ZM28.7263 7.28317L27.4388 6.20098L25.5085 8.49748L26.796 9.57967L28.7263 7.28317ZM29.9302 8.51636L28.8393 7.38854L26.683 9.4743L27.7739 10.6021L29.9302 8.51636ZM30.6001 11.3775L30.3396 9.36653L27.3645 9.75196L27.625 11.7629L30.6001 11.3775ZM30.6545 12.8947L30.6118 11.5236L27.6133 11.6169L27.6559 12.9879L30.6545 12.8947ZM31.1548 13.4151L30.457 12.1961L27.8534 13.6865L28.5513 14.9055L31.1548 13.4151ZM32.0773 14.1417L30.8553 13.0443L28.8508 15.2763L30.0728 16.3737L32.0773 14.1417ZM34.5291 17.2645L32.2604 14.3386L29.8896 16.1769L32.1583 19.1028L34.5291 17.2645ZM36.0187 20.7714L34.7327 17.6173L31.9547 18.75L33.2407 21.904L36.0187 20.7714ZM35.635 22.4509L35.6361 22.4499L33.6232 20.2255L33.6221 20.2265L35.635 22.4509ZM36.2416 20.7713L35.6307 20.2227L33.6263 22.4548L34.2372 23.0033L36.2416 20.7713ZM36.9268 20.8804L35.7261 20.4685L34.7527 23.3062L35.9533 23.718L36.9268 20.8804ZM40.2455 24.0758L37.5182 21.2563L35.3619 23.3421L38.0892 26.1616L40.2455 24.0758ZM42.0026 25.6488L40.1696 24.0027L38.1651 26.2347L39.9981 27.8808L42.0026 25.6488ZM39.4878 29.887L41.9348 27.9382L40.0659 25.5914L37.6188 27.5403L39.4878 29.887ZM41.5997 31.016L39.8551 27.9684L37.2515 29.4588L38.9961 32.5064L41.5997 31.016ZM41.986 33.6437L41.791 31.6175L38.8048 31.9049L38.9998 33.9311L41.986 33.6437ZM42.181 35.6699L41.986 33.6437L38.9998 33.9311L39.1948 35.9573L42.181 35.6699ZM40.5454 34.3068L40.3488 34.3524L41.0269 37.2747L41.2235 37.2291L40.5454 34.3068ZM41.2661 34.1395L40.5454 34.3068L41.2235 37.2291L41.9442 37.0619L41.2661 34.1395ZM43.25 35.337L42.8355 34.7427L40.3748 36.4587L40.7892 37.053L43.25 35.337ZM41.3916 38.4609L42.8772 37.4257L41.162 34.9644L39.6764 35.9996L41.3916 38.4609ZM38.7799 42.2471L41.7526 38.1048L39.3153 36.3557L36.3426 40.4979L38.7799 42.2471ZM39.7669 47.2443L39.0508 41.1961L36.0716 41.5489L36.7877 47.597L39.7669 47.2443ZM41.1095 52.977L39.7383 47.0809L36.8163 47.7604L38.1875 53.6566L41.1095 52.977ZM39.1621 56.0781L40.7574 54.327L38.5397 52.3066L36.9444 54.0578L39.1621 56.0781ZM36.1647 57.046L38.3923 56.5291L37.7141 53.6068L35.4865 54.1237L36.1647 57.046ZM35.1156 57.8773L36.6667 56.8269L34.9845 54.3429L33.4334 55.3933L35.1156 57.8773ZM33.0411 58.4614L34.6136 58.0965L33.9354 55.1741L32.363 55.539L33.0411 58.4614ZM29.0917 54.2258L31.4473 57.8221L33.9569 56.1783L31.6013 52.582L29.0917 54.2258ZM27.4014 49.4079L28.9266 53.8874L31.7665 52.9205L30.2413 48.441L27.4014 49.4079ZM25.4685 47.7802L27.7814 50.0054L29.8613 47.8435L27.5484 45.6183L25.4685 47.7802ZM23.2059 44.5857L25.2781 47.5573L27.7388 45.8413L25.6667 42.8697L23.2059 44.5857ZM23.7418 41.5844L23.0637 43.1227L25.8089 44.3327L26.4869 42.7944L23.7418 41.5844ZM24.5521 40.4467L23.9183 41.2842L26.3104 43.0946L26.9443 42.257L24.5521 40.4467ZM26.0373 39.2041L24.8137 40.1785L26.6827 42.5252L27.9062 41.5508L26.0373 39.2041ZM28.0731 38.582L26.6327 38.9163L27.3108 41.8386L28.7512 41.5043L28.0731 38.582ZM27.6814 41.3531L27.682 41.3534L29.1424 38.7329L29.1417 38.7325L27.6814 41.3531ZM27.3092 41.8385L28.7506 41.504L28.0725 38.5816L26.6311 38.9161L27.3092 41.8385ZM26.6811 42.5251L27.9046 41.5507L26.0357 39.2039L24.8122 40.1783L26.6811 42.5251ZM23.6047 41.2104L24.6301 42.3534L26.8632 40.35L25.8378 39.207L23.6047 41.2104ZM23.1164 41.0302L23.9895 41.5181L25.4529 38.8993L24.5799 38.4114L23.1164 41.0302ZM22.1987 39.7158L22.4821 40.3405L25.2142 39.1011L24.9308 38.4764L22.1987 39.7158ZM21.5974 38.5458L22.2298 39.78L24.8998 38.4122L24.2675 37.1779L21.5974 38.5458ZM20.6506 37.9727L22.0036 39.0397L23.8613 36.684L22.5083 35.617L20.6506 37.9727ZM21.0013 38.4689L21.9185 38.256L21.2404 35.3337L20.3231 35.5465L21.0013 38.4689ZM19.1416 36.3688L19.1629 37.0543L22.1615 36.9611L22.1401 36.2755L19.1416 36.3688ZM18.9904 36.4583L19.3391 37.0674L21.9427 35.577L21.594 34.9679L18.9904 36.4583ZM17.7724 37.0883L20.2169 37.2112L20.3676 34.215L17.9231 34.0921L17.7724 37.0883ZM15.6396 36.8679L17.692 37.0821L18.0034 34.0983L15.9511 33.8841L15.6396 36.8679ZM13.9829 34.4932L14.3531 35.7883L17.2376 34.9637L16.8673 33.6686L13.9829 34.4932ZM12.3787 31.7785L14.1233 34.8261L16.7269 33.3357L14.9823 30.2881L12.3787 31.7785ZM13.931 29.4353L13.3414 29.5721L14.0196 32.4945L14.6091 32.3577L13.931 29.4353ZM13.4111 32.1262L13.4118 32.1267L15.1283 29.6663L15.1275 29.6658L13.4111 32.1262ZM14.0187 32.494L14.6084 32.3572L13.9302 29.4348L13.3406 29.5717L14.0187 32.494ZM10.6853 28.6912L12.3643 31.7539L14.995 30.3118L13.3159 27.249L10.6853 28.6912ZM8.60113 26.8589L10.9796 29.0689L13.0216 26.8712L10.6432 24.6612L8.60113 26.8589ZM8.46328 24.8077L8.46238 24.8088L10.782 26.7113L10.7829 26.7102L8.46328 24.8077ZM4.25868 23.9026L8.77539 26.9965L10.4708 24.5215L5.95405 21.4275L4.25868 23.9026ZM0.591785 19.5684L3.95144 23.6222L6.26128 21.7079L2.90162 17.6541L0.591785 19.5684ZM2.55663 15.7256L0.699247 17.5376L2.79416 19.685L4.65154 17.873L2.55663 15.7256ZM4.49373 13.8847L2.57083 15.7119L4.63734 17.8867L6.56023 16.0595L4.49373 13.8847ZM8.1617 15.707L6.65633 13.9849L4.39763 15.9593L5.903 17.6814L8.1617 15.707ZM9.3142 16.5834L7.96119 15.5164L6.10351 17.872L7.45652 18.939L9.3142 16.5834ZM9.43314 14.7911L7.37921 16.6487L9.39151 18.8737L11.4454 17.0161L9.43314 14.7911ZM8.80146 15.7472L9.01934 16.3871L11.8592 15.4202L11.6414 14.7803L8.80146 15.7472ZM10.9306 13.5593L9.88234 13.8025L10.5605 16.7249L11.6088 16.4816L10.9306 13.5593ZM13.5516 14.9096L12.1985 13.8426L10.3409 16.1983L11.6939 17.2653L13.5516 14.9096ZM15.1371 16.9626L13.8283 15.1949L11.4172 16.98L12.726 18.7477L15.1371 16.9626ZM14.5097 16.1811L13.5925 16.394L14.2706 19.3163L15.1879 19.1035L14.5097 16.1811ZM16.4748 16.7348L15.4707 16.2773L14.2269 19.0073L15.231 19.4648L16.4748 16.7348ZM17.2259 19.0427L17.3356 18.327L14.3702 17.8726L14.2605 18.5884L17.2259 19.0427ZM15.4042 17.3544L15.4036 17.3545L16.0828 20.2766L16.0833 20.2765L15.4042 17.3544ZM14.3708 17.8723L14.2611 18.5882L17.2265 19.0426L17.3362 18.3267L14.3708 17.8723ZM14.2275 19.007L15.2316 19.4645L16.4754 16.7345L15.4713 16.277L14.2275 19.007ZM14.2712 19.316L15.1885 19.1032L14.5103 16.1808L13.5931 16.3937L14.2712 19.316ZM11.4178 16.9797L12.7266 18.7474L15.1377 16.9623L13.8289 15.1945L11.4178 16.9797ZM10.3415 16.1979L11.6945 17.2649L13.5522 14.9093L12.1992 13.8423L10.3415 16.1979ZM9.14331 12.791L9.81826 15.3963L12.7224 14.6439L12.0474 12.0386L9.14331 12.791ZM10.5839 10.8776L10.2563 10.9536L10.9344 13.876L11.262 13.8L10.5839 10.8776ZM12.5678 12.0751L12.1533 11.4808L9.69257 13.1968L10.107 13.7911L12.5678 12.0751ZM11.1712 10.9755L10.2753 11.8739L12.3995 13.9923L13.2954 13.0939L11.1712 10.9755ZM11.5388 9.89141L10.8607 11.4297L13.6059 12.6397L14.284 11.1014L11.5388 9.89141ZM11.306 11.1407L11.9825 11.6742L13.8402 9.31859L13.1637 8.78509L11.306 11.1407ZM10.8262 8.46703L10.7378 9.8685L13.7319 10.0573L13.8203 8.65586L10.8262 8.46703ZM9.97472 7.47809L11.0215 9.30665L13.6251 7.81624L12.5783 5.98768L9.97472 7.47809ZM9.84436 4.59771L9.77729 6.68471L12.7757 6.78107L12.8428 4.69407L9.84436 4.59771ZM10.4805 2.62645L9.9335 4.13435L12.7537 5.15742L13.3007 3.64952L10.4805 2.62645ZM13.5539 2.16113L12.4188 1.73406L11.3624 4.54191L12.4975 4.96898L13.5539 2.16113ZM14.7705 2.5045L13.4388 2.12305L12.6127 5.00706L13.9444 5.38852L14.7705 2.5045ZM13.074 2.86577L12.8987 3.59691L15.8161 4.29611L15.9913 3.56497L13.074 2.86577ZM13.0557 1.80435L13.0329 3.19062L16.0324 3.24012L16.0553 1.85385L13.0557 1.80435ZM16.3683 0.721568L14.9056 0.370519L14.2055 3.28768L15.6682 3.63873L16.3683 0.721568ZM18.3302 2.02702L16.9116 0.975231L15.1248 3.38507L16.5434 4.43685L18.3302 2.02702ZM19.05 2.66465L18.439 2.11593L16.4345 4.34794L17.0455 4.89666L19.05 2.66465ZM18.3639 2.16744L17.7087 2.31948L18.3868 5.24183L19.042 5.08979L18.3639 2.16744ZM20.2773 4.1062L20.1905 3.4359L17.2154 3.82133L17.3022 4.49164L20.2773 4.1062ZM20.4392 4.30396L20.1558 3.67924L17.4238 4.9186L17.7072 5.54332L20.4392 4.30396ZM18.5109 3.18089L17.8771 4.01846L20.2693 5.82882L20.9031 4.99125L18.5109 3.18089ZM20.2197 2.42724L19.368 2.62489L20.0461 5.54724L20.8978 5.34959L20.2197 2.42724ZM22.2095 3.75273L21.8606 3.14322L19.257 4.63362L19.6059 5.24314L22.2095 3.75273ZM22.0945 5.70477L22.3353 4.9584L19.4801 4.03747L19.2394 4.78383L22.0945 5.70477ZM14.5732 20.6271L14.5736 20.627L13.8996 17.7037L13.8993 17.7038L14.5732 20.6271ZM14.3081 21.1664L15.2695 20.2528L13.203 18.0781L12.2416 18.9917L14.3081 21.1664ZM14.9196 19.8154L14.5052 19.2211L12.0444 20.937L12.4589 21.5313L14.9196 19.8154ZM14.0709 19.0449L13.3502 19.2122L14.0283 22.1345L14.749 21.9673L14.0709 19.0449ZM15.3912 21.9305L15.7629 21.1537L13.0569 19.8585L12.6851 20.6353L15.3912 21.9305ZM14.9842 23.2361L15.4657 21.7434L12.6106 20.8224L12.1291 22.3151L14.9842 23.2361ZM12.7819 24.4952L13.8957 24.2367L13.2176 21.3144L12.1038 21.5729L12.7819 24.4952ZM12.0612 24.6625L12.7819 24.4952L12.1038 21.5729L11.3831 21.7401L12.0612 24.6625ZM12.883 24.1512L12.8831 24.1511L10.5612 22.2514L10.5612 22.2515L12.883 24.1512ZM12.1019 21.5733L11.383 21.7401L12.0612 24.6625L12.7801 24.4957L12.1019 21.5733ZM13.2157 21.3149L12.1019 21.5733L12.7801 24.4957L13.8939 24.2372L13.2157 21.3149ZM14.7227 20.9652L13.2157 21.3149L13.8939 24.2372L15.4008 23.8875L14.7227 20.9652ZM17.1255 21.2007L15.2697 20.9408L14.8537 23.9119L16.7096 24.1717L17.1255 21.2007ZM18.5524 22.3081L18.0725 21.729L15.7626 23.6433L16.2426 24.2224L18.5524 22.3081ZM18.9181 23.9042L18.8968 23.2186L15.8982 23.3119L15.9196 23.9974L18.9181 23.9042ZM20.1312 23.4492L17.992 22.5646L16.8457 25.337L18.9849 26.2215L20.1312 23.4492ZM20.6604 23.0397L19.219 23.3742L19.8971 26.2965L21.3385 25.9621L20.6604 23.0397ZM23.3745 24.2699L21.825 23.2485L20.1739 25.7533L21.7235 26.7747L23.3745 24.2699ZM24.1538 24.7007L23.2808 24.2129L21.8173 26.8317L22.6904 27.3196L24.1538 24.7007ZM23.4106 24.473L23.083 24.549L23.7612 27.4713L24.0888 27.3953L23.4106 24.473ZM24.731 27.3582L25.1027 26.5817L22.3967 25.2865L22.025 26.063L24.731 27.3582ZM23.0419 25.2487L23.0396 25.2493L23.7165 28.1719L23.7188 28.1714L23.0419 25.2487ZM22.3991 25.2857L22.0273 26.0624L24.7333 27.3577L25.1051 26.5809L22.3991 25.2857ZM23.7636 27.4705L24.0912 27.3945L23.413 24.4721L23.0855 24.5481L23.7636 27.4705ZM21.8197 26.8308L22.6928 27.3187L24.1563 24.6999L23.2832 24.212L21.8197 26.8308ZM20.1764 25.7525L21.726 26.7738L23.377 24.269L21.8274 23.2476L20.1764 25.7525ZM19.8996 26.2957L21.341 25.9612L20.6628 23.0389L19.2214 23.3734L19.8996 26.2957ZM16.8481 25.3362L18.9873 26.2207L20.1337 23.4484L17.9945 22.5638L16.8481 25.3362ZM15.9007 23.3111L15.922 23.9966L18.9206 23.9033L18.8992 23.2178L15.9007 23.3111ZM15.7651 23.6425L16.245 24.2216L18.5549 22.3073L18.0749 21.7282L15.7651 23.6425ZM14.8562 23.911L16.712 24.1709L17.128 21.1998L15.2722 20.94L14.8562 23.911ZM13.8963 24.2364L15.4033 23.8867L14.7251 20.9643L13.2182 21.314L13.8963 24.2364ZM12.6112 20.822L12.1297 22.3147L14.9848 23.2357L15.4663 21.743L12.6112 20.822ZM13.0575 19.8582L12.6858 20.6349L15.3918 21.9301L15.7636 21.1534L13.0575 19.8582ZM14.0289 22.1342L14.7496 21.9669L14.0715 19.0446L13.3508 19.2118L14.0289 22.1342ZM12.045 20.9367L12.4595 21.531L14.9202 19.815L14.5058 19.2207L12.045 20.9367ZM13.2033 18.078L12.2422 18.9913L14.3087 21.1661L15.2698 20.2528L13.2033 18.078ZM14.1524 32.6439L14.1531 32.6444L15.8713 30.1852L15.8705 30.1846L14.1524 32.6439ZM15.4722 29.2048L14.1178 30.2095L15.9051 32.619L17.2596 31.6142L15.4722 29.2048ZM16.7415 28.2301L15.4525 29.2197L17.2793 31.5993L18.5684 30.6097L16.7415 28.2301ZM18.584 28.2423L18.5833 28.2417L16.7266 30.5981L16.7273 30.5987L18.584 28.2423ZM17.2802 31.5998L18.5691 30.6103L16.7422 28.2307L15.4533 29.2202L17.2802 31.5998ZM15.9059 32.6195L17.2604 31.6147L15.4731 29.2052L14.1185 30.2101L15.9059 32.6195ZM17.7994 31.5604L17.8001 31.5611L19.9555 29.4744L19.9548 29.4737L17.7994 31.5604ZM18.2113 28.8421L17.6431 29.6642L20.1111 31.3698L20.6792 30.5477L18.2113 28.8421ZM19.7614 28.0817L19.1062 28.2337L19.7843 31.1561L20.4395 31.0041L19.7614 28.0817ZM21.0314 28.3668L21.0308 28.3663L19.1701 30.7195L19.1707 30.72L21.0314 28.3668ZM19.7852 31.1566L20.4402 31.0046L19.762 28.0822L19.107 28.2342L19.7852 31.1566ZM20.1118 31.3706L20.6801 30.5482L18.2121 28.8426L17.6438 29.6649L20.1118 31.3706ZM19.8485 31.2543L19.8491 31.2548L21.7065 28.8989L21.7058 28.8984L19.8485 31.2543ZM21.2241 28.4328L20.4381 28.6152L21.1162 31.5375L21.9022 31.3551L21.2241 28.4328ZM21.3008 27.9832L20.4704 28.8664L22.656 30.9214L23.4864 30.0383L21.3008 27.9832ZM20.9112 28.7816L20.9109 28.7835L23.8763 29.238L23.8766 29.236L20.9112 28.7816ZM23.8554 28.6714L23.8549 28.669L20.9329 29.3486L20.9334 29.351L23.8554 28.6714ZM22.6568 30.9219L23.4872 30.0387L21.3016 27.9837L20.4712 28.8669L22.6568 30.9219ZM21.1169 31.538L21.9031 31.3556L21.225 28.4332L20.4387 28.6157L21.1169 31.538ZM24.1493 27.3296L24.1511 27.324L21.296 26.4028L21.2943 26.4083L24.1493 27.3296ZM21.24 26.6356L21.2391 26.6416L24.2045 27.0963L24.2054 27.0903L21.24 26.6356ZM22.3866 25.4011L22.3838 25.4017L23.0617 28.3241L23.0645 28.3235L22.3866 25.4011ZM25.3156 26.4393L23.3733 25.5094L22.0778 28.2152L24.0201 29.1452L25.3156 26.4393ZM26.7899 29.1659L26.0711 27.2624L23.2645 28.3221L23.9833 30.2256L26.7899 29.1659ZM26.2984 30.8867L26.3 30.8855L24.4731 28.506L24.4715 28.5072L26.2984 30.8867ZM23.263 28.3234L23.9817 30.2268L26.7883 29.1671L26.0695 27.2637L23.263 28.3234ZM22.0758 28.2163L24.0185 29.1465L25.314 26.4406L23.3714 25.5105L22.0758 28.2163ZM29.1484 27.5611L28.7349 26.9681L26.2741 28.6841L26.6876 29.2771L29.1484 27.5611ZM29.5234 27.7748L28.8468 27.2413L26.9892 29.5969L27.6657 30.1304L29.5234 27.7748ZM28.7796 27.3698L28.2554 27.4914L28.9336 30.4138L29.4577 30.2922L28.7796 27.3698ZM29.4348 27.2178L28.7796 27.3698L29.4577 30.2922L30.1129 30.1401L29.4348 27.2178ZM29.4367 27.2173L29.4351 27.2177L30.1126 30.1402L30.1141 30.1398L29.4367 27.2173ZM28.2788 28.7796L28.2788 28.7797L31.272 28.5775L31.272 28.5773L28.2788 28.7796ZM29.4606 30.2914L30.1145 30.1396L29.4363 27.2173L28.7824 27.369L29.4606 30.2914ZM28.9364 30.413L29.4606 30.2914L28.7824 27.369L28.2583 27.4906L28.9364 30.413ZM26.992 29.5961L27.6685 30.1296L29.5262 27.774L28.8497 27.2405L26.992 29.5961ZM26.276 28.682L26.6905 29.2763L29.1512 27.5603L28.7368 26.966L26.276 28.682ZM28.5972 28.8537L28.5992 28.8516L26.4137 26.7964L26.4117 26.7985L28.5972 28.8537ZM29.1545 24.5214L28.1741 24.7489L28.8522 27.6713L29.8327 27.4438L29.1545 24.5214ZM30.3994 24.2325L29.1545 24.5214L29.8327 27.4438L31.0775 27.1549L30.3994 24.2325ZM29.2506 25.8845L29.2507 25.8851L32.2262 25.5023L32.2261 25.5017L29.2506 25.8845ZM29.8339 27.4428L31.0774 27.1542L30.3993 24.2319L29.1558 24.5205L29.8339 27.4428ZM28.8511 27.6709L29.8339 27.4428L29.1558 24.5205L28.173 24.7485L28.8511 27.6709ZM29.0404 24.8058L29.0393 24.8054L27.9849 27.614L27.986 27.6144L29.0404 24.8058ZM32.6448 22.6172L31.5755 22.175L30.4291 24.9474L31.4985 25.3896L32.6448 22.6172ZM30.9471 23.0108L30.9461 23.0119L33.1972 24.9949L33.1982 24.9938L30.9471 23.0108ZM30.4301 24.9463L31.4995 25.3885L32.6458 22.6161L31.5765 22.174L30.4301 24.9463ZM32.0946 24.5893L32.0956 24.5882L29.911 22.5321L29.91 22.5332L32.0946 24.5893ZM28.7356 29.2231L29.0188 29.8473L31.7508 28.608L31.4677 27.9837L28.7356 29.2231ZM29.7638 27.142L29.7624 27.1423L30.4409 30.0645L30.4422 30.0642L29.7638 27.142ZM31.7524 28.6081L31.469 27.9834L28.737 29.2228L29.0204 29.8475L31.7524 28.6081ZM32.0242 29.3843L31.8064 28.7444L28.9665 29.7113L29.1843 30.3512L32.0242 29.3843ZM32.2463 28.9235L31.1775 28.4816L30.0311 31.2539L31.0999 31.6959L32.2463 28.9235ZM32.0107 31.7712L32.0114 31.771L31.3348 28.8483L31.334 28.8485L32.0107 31.7712ZM30.0295 31.2538L31.0992 31.696L32.2455 28.9237L31.1759 28.4814L30.0295 31.2538ZM28.9649 29.7111L29.1828 30.351L32.0227 29.3841L31.8048 28.7442L28.9649 29.7111ZM31.027 30.0183L30.9828 30.7185L33.9769 30.9074L34.0211 30.2072L31.027 30.0183ZM32.1863 28.6513L32.1847 28.6516L32.8633 31.5739L32.865 31.5735L32.1863 28.6513ZM33.9785 30.9075L34.0227 30.2068L31.0286 30.018L30.9844 30.7187L33.9785 30.9075ZM34.0558 31.2902L33.969 30.6204L30.9939 31.0058L31.0807 31.6757L34.0558 31.2902ZM32.9063 32.9443L32.9078 32.944L32.2287 30.0219L32.2271 30.0222L32.9063 32.9443ZM30.9923 31.0057L31.0791 31.676L34.0543 31.2906L33.9674 30.6202L30.9923 31.0057ZM33.4596 31.6507L34.0916 32.8845L36.7616 31.5167L36.1296 30.2829L33.4596 31.6507ZM34.4566 29.5054L34.4553 29.5057L35.1338 32.4279L35.1352 32.4276L34.4566 29.5054ZM36.7632 31.5168L36.1309 30.2826L33.4609 31.6504L34.0932 32.8847L36.7632 31.5168ZM37.0316 33.4373L36.9235 32.0815L33.933 32.32L34.0411 33.6759L37.0316 33.4373ZM35.1608 35.736L36.4498 34.7464L34.6229 32.3668L33.3339 33.3564L35.1608 35.736ZM33.6193 36.8121L35.1049 35.7769L33.3898 33.3155L31.9042 34.3507L33.6193 36.8121ZM33.5436 38.2301L34.2003 36.0062L31.3232 35.1566L30.6664 37.3804L33.5436 38.2301ZM33.2132 39.6172L33.5637 38.1549L30.6463 37.4557L30.2959 38.918L33.2132 39.6172ZM31.0453 40.972L32.0936 40.7287L31.4155 37.8064L30.3672 38.0496L31.0453 40.972ZM30.0626 41.2L31.0453 40.972L30.3672 38.0496L29.3844 38.2777L30.0626 41.2ZM29.735 41.2761L30.0625 41.2001L29.3844 38.2777L29.0568 38.3537L29.735 41.2761ZM30.7689 40.758L30.8786 40.0421L27.9132 39.5877L27.8035 40.3036L30.7689 40.758ZM28.5538 41.8399L28.5553 41.8407L30.0171 39.221L30.0156 39.2201L28.5538 41.8399ZM27.9116 39.5876L27.802 40.3028L30.7674 40.7572L30.877 40.042L27.9116 39.5876ZM29.3828 38.2776L29.0553 38.3536L29.7334 41.2759L30.061 41.1999L29.3828 38.2776ZM30.3656 38.0495L29.3828 38.2776L30.061 41.1999L31.0438 40.9719L30.3656 38.0495ZM31.4139 37.8063L30.3656 38.0495L31.0438 40.9719L32.0921 40.7286L31.4139 37.8063ZM30.6448 37.4555L30.2943 38.9178L33.2117 39.617L33.5621 38.1547L30.6448 37.4555ZM31.3216 35.1565L30.6649 37.3803L33.542 38.23L34.1987 36.0061L31.3216 35.1565ZM33.3882 33.3154L31.9026 34.3506L33.6177 36.812L35.1033 35.7767L33.3882 33.3154ZM34.6214 32.3666L33.3323 33.3562L35.1592 35.7359L36.4482 34.7463L34.6214 32.3666ZM33.9314 32.3199L34.0396 33.6757L37.03 33.4372L36.9219 32.0813L33.9314 32.3199ZM20.6345 36.2065L20.9616 36.6756L23.4224 34.9596L23.0953 34.4905L20.6345 36.2065ZM22.5085 33.6593L21.5258 33.8873L22.2039 36.8096L23.1866 36.5816L22.5085 33.6593ZM23.2848 36.8451L23.9404 36.1479L21.7548 34.0929L21.0992 34.7901L23.2848 36.8451ZM25.5862 30.436L25.4973 30.9562L28.4545 31.4614L28.5433 30.9412L25.5862 30.436ZM25.1756 31.8386L26.7689 32.1591L27.3606 29.2181L25.7673 28.8975L25.1756 31.8386ZM26.4032 29.1925L26.4029 29.1923L24.54 31.5438L24.5403 31.544L26.4032 29.1925ZM27.7076 29.8994L26.2035 29.0589L24.74 31.6777L26.2441 32.5182L27.7076 29.8994ZM23.8677 31.0139L23.8682 31.0143L25.7217 28.6554L25.7212 28.655L23.8677 31.0139ZM25.0445 28.2366L24.4554 28.3733L25.1335 31.2956L25.7226 31.1589L25.0445 28.2366ZM23.4958 30.848L25.0877 31.1683L25.6794 28.2272L24.0875 27.9069L23.4958 30.848ZM23.9342 30.8843L24.1307 30.8386L23.4526 27.9163L23.256 27.9619L23.9342 30.8843ZM23.9345 30.8842L23.9349 30.8841L23.2553 27.9621L23.255 27.9621L23.9345 30.8842ZM25.2453 29.2872L24.8965 28.678L22.293 30.1684L22.6417 30.7776L25.2453 29.2872ZM24.4559 28.3737L23.6045 28.5712L24.2826 31.4936L25.1341 31.296L24.4559 28.3737Z" fill="#E0E0E0" mask="url(#path-1-outside-1_127_37987)"/>
</svg>
