<svg width="52" height="70" viewBox="0 0 52 70" fill="none" xmlns="http://www.w3.org/2000/svg">
<mask id="path-1-outside-1_60_3165" maskUnits="userSpaceOnUse" x="-0.184448" y="-0.268066" width="53" height="71" fill="black">
<rect fill="white" x="-0.184448" y="-0.268066" width="53" height="71"/>
<path fill-rule="evenodd" clip-rule="evenodd" d="M24.6043 5.84993L26.9974 6.12656L29.5227 5.53992L30.5999 6.9548L31.5982 8.38802L33.149 9.69291L34.463 11.0528L34.7768 13.4776L34.8281 15.1308L35.6686 16.6007L37.1405 17.924L39.873 21.452L41.4219 25.2551L41.4205 25.2563L42.1562 25.9177L43.6023 26.4144L46.8873 29.8141L49.095 31.7989L46.1477 34.1488L48.2489 37.8235L48.4838 40.2666L48.7187 42.7098L48.9554 42.6548L49.8235 42.4532L50.3227 43.1698L48.5333 44.418L44.9528 49.4127L45.8152 56.7055L47.4668 63.8149L45.5453 65.9264L42.8623 66.5497L40.994 67.8164L39.1001 68.2563L36.2629 63.92L34.4259 58.5187L31.6401 55.8356L29.1443 52.2526L29.961 50.3977L30.7244 49.3878L32.1981 48.2128L33.9331 47.8098L33.9324 47.8093L32.1962 48.2127L30.7226 49.3876L29.4875 48.0094L28.4359 47.4211L28.0946 46.6678L27.333 45.1796L25.7033 43.893L24.5985 44.1496L24.5729 43.323L24.153 42.5887L21.2087 42.4405L18.7367 42.1822L18.2908 40.6206L16.1895 36.9459L16.8997 36.7809L16.8986 36.7801L16.1884 36.9451L14.166 33.2521L11.3013 30.5873L11.3023 30.586L5.86213 26.8555L1.81555 21.9675L4.05269 19.7826L6.36875 17.5794L8.1819 19.6559L9.81155 20.9425L12.2854 18.7026L12.023 17.931L13.2856 17.6377L14.9153 18.9243L16.4917 21.0558L17.5965 20.7991L18.8059 21.3508L18.6738 22.214L18.6746 22.2138L18.8067 21.3505L17.5973 20.7989L16.4925 21.0555L14.9161 18.924L13.2865 17.6375L12.4735 14.496L12.8681 14.4044L13.3672 15.121L14.4464 14.0377L15.263 12.1828L14.4482 11.5396L14.5547 9.84969L13.2939 7.64485L13.3747 5.12837L14.0336 3.31017L15.4008 3.82512L17.0047 4.28507L17.2158 3.40347L17.2434 1.73193L19.0051 2.15522L20.7137 3.42345L21.4496 4.08508L22.2388 3.90176L22.3434 4.71001L22.6847 5.46328L23.4481 4.45335L24.474 4.21503L24.8943 4.94997L24.6043 5.84993ZM16.8594 22.6355L16.8587 22.6357L15.7007 23.7373L16.1999 24.4539L17.0679 24.2522L16.6201 25.1889L16.0402 26.9886L17.853 26.5675L20.0883 26.8808L20.6664 27.5791L20.6921 28.4057L23.2687 29.4723L25.0048 29.069L26.8712 30.3005L27.9228 30.8888L28.3173 30.7971L27.8695 31.7337L27.8725 31.733L28.3203 30.7964L27.9257 30.8881L26.8742 30.2998L25.0078 29.0682L23.2717 29.4715L20.6951 28.405L20.6694 27.5784L20.0913 26.8801L17.856 26.5668L16.041 26.9884L16.6209 25.1886L17.0687 24.252L16.2007 24.4536L15.7015 23.737L16.8594 22.6355ZM17.7935 37.4058L17.7923 37.4051L19.4239 36.1935L20.9765 35.0002L20.9775 35.001L19.425 36.1942L17.7935 37.4058ZM22.4494 36.3242L22.4484 36.3232L23.1328 35.3318L23.922 35.1485L23.923 35.1493L23.1339 35.3326L22.4494 36.3242ZM24.7379 35.7926L24.7369 35.7918L25.6837 35.5718L26.6839 34.5069L26.6843 34.5045L26.6851 34.5076L25.6849 35.5726L24.7379 35.7926ZM27.0815 31.9178L27.0792 31.9251L27.0804 31.9171L27.0834 31.9164L29.4232 33.0379L30.2889 35.333L30.287 35.3344L29.4214 33.0394L27.0815 31.9178ZM32.8399 33.0787L33.3379 33.7937L34.1527 34.4369L34.1562 34.4361L33.3414 33.7928L32.8422 33.0762L32.8399 33.0787ZM34.0546 31.1301L35.2356 30.8558L36.735 30.5074L36.7349 30.5068L35.2372 30.8547L34.0535 31.1297L34.0546 31.1301ZM37.0529 27.9362L38.3408 28.4693L38.3419 28.468L37.0541 27.9349L37.0529 27.9362ZM36.3091 34.7686L35.968 34.0159L35.9696 34.0155L36.311 34.7688L36.5734 35.5404L37.8607 36.0733L37.8598 36.0735L36.5715 35.5402L36.3091 34.7686ZM38.8325 36.6801L38.8857 35.8358L38.8876 35.8354L38.8344 36.6803L38.9389 37.488L38.9371 37.4884L38.8325 36.6801ZM42.3817 38.3533L41.6205 36.8657L41.622 36.8653L42.3836 38.3535L42.5139 39.9884L40.9613 41.1816L39.172 42.4299L38.381 45.1114L37.9588 46.8746L36.6962 47.1679L35.5125 47.4429L35.1179 47.5345L34.9858 48.3978L34.984 48.3968L35.1161 47.5344L35.5106 47.4427L36.6943 47.1677L37.957 46.8744L38.3791 45.1112L39.1701 42.4297L40.9594 41.1814L42.512 39.9882L42.3817 38.3533ZM26.4411 42.7145L26.0472 42.149L27.2304 41.8742L26.4411 42.7145ZM32.2032 37.1572L32.3102 36.5302L30.3916 36.1437L32.2032 37.1572ZM29.5761 35.5005L29.5757 35.5002L30.2852 35.3354L28.3679 34.9493L28.1312 35.0043L28.1309 35.0043L28.5508 35.7387L29.5761 35.5005ZM26.34 38.7506L26.34 38.7507L27.312 39.3569L27.312 39.3568L26.34 38.7506Z"/>
</mask>
<path fill-rule="evenodd" clip-rule="evenodd" d="M24.6043 5.84993L26.9974 6.12656L29.5227 5.53992L30.5999 6.9548L31.5982 8.38802L33.149 9.69291L34.463 11.0528L34.7768 13.4776L34.8281 15.1308L35.6686 16.6007L37.1405 17.924L39.873 21.452L41.4219 25.2551L41.4205 25.2563L42.1562 25.9177L43.6023 26.4144L46.8873 29.8141L49.095 31.7989L46.1477 34.1488L48.2489 37.8235L48.4838 40.2666L48.7187 42.7098L48.9554 42.6548L49.8235 42.4532L50.3227 43.1698L48.5333 44.418L44.9528 49.4127L45.8152 56.7055L47.4668 63.8149L45.5453 65.9264L42.8623 66.5497L40.994 67.8164L39.1001 68.2563L36.2629 63.92L34.4259 58.5187L31.6401 55.8356L29.1443 52.2526L29.961 50.3977L30.7244 49.3878L32.1981 48.2128L33.9331 47.8098L33.9324 47.8093L32.1962 48.2127L30.7226 49.3876L29.4875 48.0094L28.4359 47.4211L28.0946 46.6678L27.333 45.1796L25.7033 43.893L24.5985 44.1496L24.5729 43.323L24.153 42.5887L21.2087 42.4405L18.7367 42.1822L18.2908 40.6206L16.1895 36.9459L16.8997 36.7809L16.8986 36.7801L16.1884 36.9451L14.166 33.2521L11.3013 30.5873L11.3023 30.586L5.86213 26.8555L1.81555 21.9675L4.05269 19.7826L6.36875 17.5794L8.1819 19.6559L9.81155 20.9425L12.2854 18.7026L12.023 17.931L13.2856 17.6377L14.9153 18.9243L16.4917 21.0558L17.5965 20.7991L18.8059 21.3508L18.6738 22.214L18.6746 22.2138L18.8067 21.3505L17.5973 20.7989L16.4925 21.0555L14.9161 18.924L13.2865 17.6375L12.4735 14.496L12.8681 14.4044L13.3672 15.121L14.4464 14.0377L15.263 12.1828L14.4482 11.5396L14.5547 9.84969L13.2939 7.64485L13.3747 5.12837L14.0336 3.31017L15.4008 3.82512L17.0047 4.28507L17.2158 3.40347L17.2434 1.73193L19.0051 2.15522L20.7137 3.42345L21.4496 4.08508L22.2388 3.90176L22.3434 4.71001L22.6847 5.46328L23.4481 4.45335L24.474 4.21503L24.8943 4.94997L24.6043 5.84993ZM16.8594 22.6355L16.8587 22.6357L15.7007 23.7373L16.1999 24.4539L17.0679 24.2522L16.6201 25.1889L16.0402 26.9886L17.853 26.5675L20.0883 26.8808L20.6664 27.5791L20.6921 28.4057L23.2687 29.4723L25.0048 29.069L26.8712 30.3005L27.9228 30.8888L28.3173 30.7971L27.8695 31.7337L27.8725 31.733L28.3203 30.7964L27.9257 30.8881L26.8742 30.2998L25.0078 29.0682L23.2717 29.4715L20.6951 28.405L20.6694 27.5784L20.0913 26.8801L17.856 26.5668L16.041 26.9884L16.6209 25.1886L17.0687 24.252L16.2007 24.4536L15.7015 23.737L16.8594 22.6355ZM17.7935 37.4058L17.7923 37.4051L19.4239 36.1935L20.9765 35.0002L20.9775 35.001L19.425 36.1942L17.7935 37.4058ZM22.4494 36.3242L22.4484 36.3232L23.1328 35.3318L23.922 35.1485L23.923 35.1493L23.1339 35.3326L22.4494 36.3242ZM24.7379 35.7926L24.7369 35.7918L25.6837 35.5718L26.6839 34.5069L26.6843 34.5045L26.6851 34.5076L25.6849 35.5726L24.7379 35.7926ZM27.0815 31.9178L27.0792 31.9251L27.0804 31.9171L27.0834 31.9164L29.4232 33.0379L30.2889 35.333L30.287 35.3344L29.4214 33.0394L27.0815 31.9178ZM32.8399 33.0787L33.3379 33.7937L34.1527 34.4369L34.1562 34.4361L33.3414 33.7928L32.8422 33.0762L32.8399 33.0787ZM34.0546 31.1301L35.2356 30.8558L36.735 30.5074L36.7349 30.5068L35.2372 30.8547L34.0535 31.1297L34.0546 31.1301ZM37.0529 27.9362L38.3408 28.4693L38.3419 28.468L37.0541 27.9349L37.0529 27.9362ZM36.3091 34.7686L35.968 34.0159L35.9696 34.0155L36.311 34.7688L36.5734 35.5404L37.8607 36.0733L37.8598 36.0735L36.5715 35.5402L36.3091 34.7686ZM38.8325 36.6801L38.8857 35.8358L38.8876 35.8354L38.8344 36.6803L38.9389 37.488L38.9371 37.4884L38.8325 36.6801ZM42.3817 38.3533L41.6205 36.8657L41.622 36.8653L42.3836 38.3535L42.5139 39.9884L40.9613 41.1816L39.172 42.4299L38.381 45.1114L37.9588 46.8746L36.6962 47.1679L35.5125 47.4429L35.1179 47.5345L34.9858 48.3978L34.984 48.3968L35.1161 47.5344L35.5106 47.4427L36.6943 47.1677L37.957 46.8744L38.3791 45.1112L39.1701 42.4297L40.9594 41.1814L42.512 39.9882L42.3817 38.3533ZM26.4411 42.7145L26.0472 42.149L27.2304 41.8742L26.4411 42.7145ZM32.2032 37.1572L32.3102 36.5302L30.3916 36.1437L32.2032 37.1572ZM29.5761 35.5005L29.5757 35.5002L30.2852 35.3354L28.3679 34.9493L28.1312 35.0043L28.1309 35.0043L28.5508 35.7387L29.5761 35.5005ZM26.34 38.7506L26.34 38.7507L27.312 39.3569L27.312 39.3568L26.34 38.7506Z" fill="#F2F4F5"/>
<path d="M26.9974 6.12656L26.8252 7.61663C26.9961 7.6364 27.1692 7.62659 27.3368 7.58765L26.9974 6.12656ZM24.6043 5.84993L23.1766 5.38992C23.0388 5.81746 23.0999 6.28423 23.3431 6.66191C23.5863 7.03959 23.9859 7.28843 24.4321 7.34L24.6043 5.84993ZM29.5227 5.53992L30.7161 4.63126C30.3584 4.16146 29.7584 3.94521 29.1832 4.07882L29.5227 5.53992ZM30.5999 6.9548L31.8307 6.09744C31.8186 6.08008 31.8062 6.06298 31.7934 6.04614L30.5999 6.9548ZM31.5982 8.38802L30.3674 9.24538C30.4426 9.35337 30.5318 9.451 30.6325 9.53574L31.5982 8.38802ZM33.149 9.69291L34.2277 8.65062C34.1919 8.61356 34.1542 8.57836 34.1148 8.54518L33.149 9.69291ZM34.463 11.0528L35.9506 10.8603C35.9092 10.5405 35.7658 10.2425 35.5417 10.0105L34.463 11.0528ZM34.7768 13.4776L36.276 13.4311C36.2745 13.3823 36.2706 13.3336 36.2644 13.2851L34.7768 13.4776ZM34.8281 15.1308L33.3288 15.1774C33.3365 15.4227 33.4042 15.6624 33.526 15.8754L34.8281 15.1308ZM35.6686 16.6007L34.3665 17.3453C34.4458 17.4841 34.5469 17.6093 34.6658 17.7162L35.6686 16.6007ZM37.1405 17.924L38.3263 17.0055C38.2714 16.9345 38.2101 16.8685 38.1433 16.8085L37.1405 17.924ZM39.873 21.452L41.2622 20.8862C41.2108 20.76 41.1424 20.6413 41.0589 20.5335L39.873 21.452ZM41.4219 25.2551L42.428 26.3676C42.896 25.9444 43.0491 25.2736 42.8111 24.6893L41.4219 25.2551ZM41.4205 25.2563L40.4144 24.1438C40.0993 24.4287 39.9199 24.8338 39.9205 25.2586C39.9211 25.6833 40.1018 26.0879 40.4177 26.3718L41.4205 25.2563ZM42.1562 25.9177L41.1534 27.0332C41.3031 27.1679 41.4785 27.271 41.669 27.3364L42.1562 25.9177ZM43.6023 26.4144L44.681 25.3721C44.5164 25.2017 44.3137 25.0727 44.0896 24.9957L43.6023 26.4144ZM46.8873 29.8141L45.8086 30.8564C45.833 30.8817 45.8583 30.9061 45.8845 30.9296L46.8873 29.8141ZM49.095 31.7989L50.0301 32.9718C50.375 32.6969 50.5813 32.2841 50.5944 31.8433C50.6074 31.4025 50.4258 30.9783 50.0979 30.6835L49.095 31.7989ZM46.1477 34.1488L45.2126 32.9759C44.6341 33.4371 44.4783 34.2512 44.8455 34.8934L46.1477 34.1488ZM48.2489 37.8235L49.742 37.68C49.7217 37.4683 49.6566 37.2635 49.5511 37.0789L48.2489 37.8235ZM48.4838 40.2666L46.9907 40.4102L48.4838 40.2666ZM48.7187 42.7098L47.2256 42.8534C47.267 43.2837 47.492 43.6753 47.8431 43.9277C48.1941 44.1801 48.637 44.2687 49.0581 44.1709L48.7187 42.7098ZM48.9554 42.6548L48.616 41.1937L48.616 41.1937L48.9554 42.6548ZM49.8235 42.4532L51.0543 41.5958C50.7036 41.0924 50.0817 40.8532 49.4841 40.9921L49.8235 42.4532ZM50.3227 43.1698L51.1809 44.4C51.86 43.9263 52.0268 42.9918 51.5535 42.3124L50.3227 43.1698ZM48.5333 44.418L47.6751 43.1878C47.5355 43.2852 47.4134 43.4057 47.3142 43.5441L48.5333 44.418ZM44.9528 49.4127L43.7337 48.5387C43.5157 48.8428 43.4192 49.2173 43.4632 49.5888L44.9528 49.4127ZM45.8152 56.7055L44.3256 56.8816C44.3321 56.9365 44.3416 56.991 44.3541 57.0449L45.8152 56.7055ZM47.4668 63.8149L48.5762 64.8245C48.908 64.4599 49.0395 63.9556 48.9279 63.4755L47.4668 63.8149ZM45.5453 65.9264L45.8848 67.3875C46.1813 67.3186 46.4499 67.1612 46.6548 66.936L45.5453 65.9264ZM42.8623 66.5497L42.5228 65.0886C42.3433 65.1303 42.1731 65.2048 42.0205 65.3082L42.8623 66.5497ZM40.994 67.8164L41.3334 69.2774C41.5129 69.2357 41.6832 69.1613 41.8357 69.0579L40.994 67.8164ZM39.1001 68.2563L37.8449 69.0776C38.1895 69.6043 38.8264 69.8599 39.4395 69.7174L39.1001 68.2563ZM36.2629 63.92L34.8428 64.403C34.8833 64.5222 34.9387 64.6359 35.0077 64.7412L36.2629 63.92ZM34.4259 58.5187L35.846 58.0357C35.769 57.8092 35.6388 57.6043 35.4665 57.4383L34.4259 58.5187ZM31.6401 55.8356L30.4093 56.693C30.4653 56.7733 30.529 56.8481 30.5996 56.916L31.6401 55.8356ZM29.1443 52.2526L27.7715 51.6481C27.5607 52.1268 27.6145 52.6807 27.9135 53.1099L29.1443 52.2526ZM29.961 50.3977L28.7644 49.4931C28.6942 49.586 28.6351 49.6867 28.5882 49.7932L29.961 50.3977ZM30.7244 49.3878L29.7893 48.2149C29.6913 48.2931 29.6035 48.3832 29.5279 48.4832L30.7244 49.3878ZM32.1981 48.2128L31.8587 46.7518C31.6412 46.8023 31.4377 46.9008 31.263 47.04L32.1981 48.2128ZM33.9331 47.8098L34.2726 49.2709C34.8762 49.1306 35.3314 48.6337 35.4183 48.0201C35.5052 47.4065 35.2058 46.8027 34.6649 46.5004L33.9331 47.8098ZM33.9324 47.8093L34.6641 46.4999C34.3383 46.3179 33.9564 46.2638 33.5929 46.3483L33.9324 47.8093ZM32.1962 48.2127L31.8568 46.7516C31.6393 46.8021 31.4358 46.9006 31.2612 47.0398L32.1962 48.2127ZM30.7226 49.3876L29.6055 50.3886C30.136 50.9806 31.0361 51.056 31.6577 50.5604L30.7226 49.3876ZM29.4875 48.0094L30.6046 47.0083C30.4942 46.8851 30.3642 46.781 30.2198 46.7003L29.4875 48.0094ZM28.4359 47.4211L27.0697 48.0402C27.2019 48.332 27.424 48.5737 27.7036 48.7301L28.4359 47.4211ZM28.0946 46.6678L29.4609 46.0487C29.451 46.027 29.4407 46.0056 29.4299 45.9845L28.0946 46.6678ZM27.333 45.1796L28.6683 44.4962C28.5701 44.3043 28.4317 44.1358 28.2625 44.0022L27.333 45.1796ZM25.7033 43.893L26.6328 42.7157C26.275 42.4331 25.808 42.3287 25.3639 42.4319L25.7033 43.893ZM24.5985 44.1496L23.0993 44.1962C23.1132 44.6453 23.3278 45.0646 23.6839 45.3385C24.0401 45.6125 24.5003 45.7124 24.938 45.6107L24.5985 44.1496ZM24.5729 43.323L26.0721 43.2765C26.0645 43.0312 25.9968 42.7915 25.875 42.5784L24.5729 43.323ZM24.153 42.5887L25.4551 41.8441C25.2013 41.4003 24.739 41.1163 24.2284 41.0906L24.153 42.5887ZM21.2087 42.4405L21.0528 43.9323C21.0796 43.9351 21.1064 43.9372 21.1333 43.9386L21.2087 42.4405ZM18.7367 42.1822L17.2944 42.5941C17.4625 43.1829 17.9717 43.6104 18.5808 43.674L18.7367 42.1822ZM18.2908 40.6206L19.7331 40.2087C19.6999 40.0926 19.6529 39.9809 19.5929 39.876L18.2908 40.6206ZM16.1895 36.9459L15.8501 35.4848C15.3883 35.5921 15.0044 35.9113 14.8147 36.3458C14.6251 36.7803 14.652 37.2789 14.8873 37.6905L16.1895 36.9459ZM16.8997 36.7809L17.2391 38.242C17.8187 38.1073 18.2639 37.6429 18.3739 37.0582C18.4839 36.4735 18.2379 35.879 17.7469 35.543L16.8997 36.7809ZM16.8986 36.7801L17.7457 35.5422C17.399 35.3049 16.9685 35.2239 16.5592 35.319L16.8986 36.7801ZM16.1884 36.9451L14.8727 37.6656C15.1959 38.2557 15.8724 38.5584 16.5278 38.4062L16.1884 36.9451ZM14.166 33.2521L15.4817 32.5316C15.4045 32.3907 15.3053 32.2632 15.1877 32.1538L14.166 33.2521ZM11.3013 30.5873L10.1413 29.6363C9.63916 30.2488 9.69975 31.1461 10.2797 31.6855L11.3013 30.5873ZM11.3023 30.586L12.4623 31.537C12.7287 31.2121 12.8466 30.7904 12.7873 30.3745C12.7281 29.9586 12.4971 29.5866 12.1506 29.349L11.3023 30.586ZM5.86213 26.8555L4.70669 27.812C4.79554 27.9193 4.89891 28.0137 5.01381 28.0925L5.86213 26.8555ZM1.81555 21.9675L0.767505 20.8944C0.208945 21.4399 0.162239 22.3226 0.660117 22.924L1.81555 21.9675ZM4.05269 19.7826L3.01884 18.6958C3.01408 18.7003 3.00935 18.7049 3.00464 18.7095L4.05269 19.7826ZM6.36875 17.5794L7.49863 16.5928C7.22968 16.2848 6.84663 16.1 6.43815 16.081C6.02967 16.0621 5.63117 16.2108 5.3349 16.4926L6.36875 17.5794ZM8.1819 19.6559L7.05202 20.6425C7.11281 20.7121 7.1799 20.776 7.25244 20.8333L8.1819 19.6559ZM9.81155 20.9425L8.88208 22.1198C9.45691 22.5736 10.2754 22.546 10.8183 22.0545L9.81155 20.9425ZM12.2854 18.7026L13.2922 19.8146C13.7358 19.413 13.8982 18.7862 13.7056 18.2197L12.2854 18.7026ZM12.023 17.931L11.6836 16.4699C11.2708 16.5658 10.9179 16.8318 10.712 17.2022C10.5061 17.5726 10.4664 18.0128 10.6029 18.414L12.023 17.931ZM13.2856 17.6377L14.2151 16.4604C13.8572 16.1779 13.3903 16.0735 12.9462 16.1766L13.2856 17.6377ZM14.9153 18.9243L16.1213 18.0323C16.0422 17.9254 15.9492 17.8294 15.8448 17.747L14.9153 18.9243ZM16.4917 21.0558L15.2857 21.9477C15.6413 22.4286 16.2486 22.6522 16.8311 22.5169L16.4917 21.0558ZM17.5965 20.7991L18.219 19.4344C17.9178 19.297 17.5796 19.2631 17.2571 19.338L17.5965 20.7991ZM18.8059 21.3508L20.2886 21.5777C20.3901 20.9144 20.0388 20.2645 19.4284 19.986L18.8059 21.3508ZM18.6738 22.214L17.191 21.987C17.1157 22.4791 17.2894 22.9765 17.6547 23.3147C18.02 23.6528 18.5292 23.7878 19.0141 23.6749L18.6738 22.214ZM18.6746 22.2138L19.0149 23.6747C19.6121 23.5355 20.0645 23.0469 20.1573 22.4407L18.6746 22.2138ZM18.8067 21.3505L20.2894 21.5774C20.391 20.9142 20.0397 20.2642 19.4292 19.9857L18.8067 21.3505ZM17.5973 20.7989L18.2198 19.4341C17.9186 19.2967 17.5804 19.2629 17.2579 19.3378L17.5973 20.7989ZM16.4925 21.0555L15.2865 21.9475C15.6421 22.4283 16.2494 22.6519 16.832 22.5166L16.4925 21.0555ZM14.9161 18.924L16.1221 18.0321C16.043 17.9251 15.95 17.8291 15.8456 17.7467L14.9161 18.924ZM13.2865 17.6375L11.8343 18.0133C11.9164 18.3303 12.0999 18.6119 12.357 18.8148L13.2865 17.6375ZM12.4735 14.496L12.1341 13.0349C11.7402 13.1264 11.4 13.373 11.1905 13.7188C10.9811 14.0647 10.92 14.4804 11.0213 14.8718L12.4735 14.496ZM12.8681 14.4044L14.0989 13.547C13.7482 13.0436 13.1263 12.8044 12.5286 12.9433L12.8681 14.4044ZM13.3672 15.121L12.1364 15.9783C12.3905 16.3431 12.7933 16.5764 13.2361 16.6152C13.6789 16.6541 14.1162 16.4945 14.4299 16.1796L13.3672 15.121ZM14.4464 14.0377L15.509 15.0963C15.6395 14.9654 15.7447 14.8114 15.8192 14.6422L14.4464 14.0377ZM15.263 12.1828L16.6359 12.7873C16.9113 12.1617 16.729 11.4291 16.1925 11.0055L15.263 12.1828ZM14.4482 11.5396L12.9512 11.4453C12.9202 11.9366 13.1324 12.4118 13.5188 12.7169L14.4482 11.5396ZM14.5547 9.84969L16.0517 9.94401C16.0702 9.65134 16.0024 9.35968 15.8568 9.10511L14.5547 9.84969ZM13.2939 7.64485L11.7947 7.59672C11.7858 7.8741 11.854 8.14851 11.9918 8.38943L13.2939 7.64485ZM13.3747 5.12837L11.9644 4.61733C11.9106 4.76598 11.8805 4.92222 11.8755 5.08024L13.3747 5.12837ZM14.0336 3.31017L14.5623 1.90643C14.1869 1.76506 13.7706 1.7799 13.4063 1.94764C13.0419 2.11538 12.76 2.42204 12.6233 2.79913L14.0336 3.31017ZM15.4008 3.82512L14.8721 5.22886C14.91 5.24312 14.9484 5.25585 14.9873 5.26701L15.4008 3.82512ZM17.0047 4.28507L16.5913 5.72696C16.9848 5.8398 17.4073 5.78692 17.7608 5.58059C18.1144 5.37426 18.3682 5.03241 18.4635 4.63431L17.0047 4.28507ZM17.2158 3.40347L18.6746 3.75271C18.7 3.64636 18.7138 3.53754 18.7156 3.42819L17.2158 3.40347ZM17.2434 1.73193L17.5938 0.273439C17.1512 0.167111 16.6843 0.267473 16.3246 0.546267C15.9648 0.825061 15.7511 1.25213 15.7436 1.70721L17.2434 1.73193ZM19.0051 2.15522L19.8992 0.950773C19.7369 0.830341 19.552 0.743931 19.3556 0.696728L19.0051 2.15522ZM20.7137 3.42345L21.7166 2.30799C21.6817 2.27664 21.6454 2.24694 21.6077 2.219L20.7137 3.42345ZM21.4496 4.08508L20.4467 5.20054C20.8109 5.52797 21.312 5.65699 21.789 5.54618L21.4496 4.08508ZM22.2388 3.90176L23.7264 3.70925C23.672 3.28899 23.4424 2.91134 23.0943 2.66965C22.7462 2.42796 22.3121 2.34478 21.8993 2.44067L22.2388 3.90176ZM22.3434 4.71001L20.8558 4.90251C20.8748 5.04994 20.9157 5.19371 20.9771 5.32912L22.3434 4.71001ZM22.6847 5.46328L21.3184 6.08239C21.5368 6.56428 21.9929 6.8955 22.5187 6.95406C23.0445 7.01262 23.5622 6.78987 23.8813 6.36783L22.6847 5.46328ZM23.4481 4.45335L23.1087 2.99226C22.7667 3.07172 22.4633 3.26867 22.2516 3.5488L23.4481 4.45335ZM24.474 4.21503L25.7762 3.47044C25.4473 2.89527 24.78 2.60401 24.1346 2.75394L24.474 4.21503ZM24.8943 4.94997L26.322 5.40998C26.4513 5.00864 26.4057 4.57142 26.1964 4.20538L24.8943 4.94997ZM16.8587 22.6357L16.5209 21.1742C16.2595 21.2347 16.0192 21.364 15.8249 21.5489L16.8587 22.6357ZM16.8594 22.6355L17.8933 23.7223C18.3832 23.2563 18.5008 22.52 18.1802 21.9246C17.8597 21.3291 17.1804 21.0218 16.5216 21.1741L16.8594 22.6355ZM15.7007 23.7373L14.6669 22.6505C14.1302 23.161 14.0465 23.9868 14.4699 24.5946L15.7007 23.7373ZM16.1999 24.4539L14.969 25.3113C15.3197 25.8147 15.9417 26.0538 16.5393 25.915L16.1999 24.4539ZM17.0679 24.2522L18.4212 24.8993C18.6699 24.3792 18.5985 23.7626 18.2375 23.3131C17.8766 22.8636 17.29 22.6607 16.7285 22.7912L17.0679 24.2522ZM16.6201 25.1889L15.2668 24.5418C15.2379 24.6024 15.213 24.6649 15.1924 24.7288L16.6201 25.1889ZM16.0402 26.9886L14.6125 26.5286C14.4468 27.0429 14.5704 27.6065 14.9362 28.0041C15.302 28.4018 15.8534 28.572 16.3796 28.4497L16.0402 26.9886ZM17.853 26.5675L18.0612 25.082C17.8787 25.0565 17.6931 25.0647 17.5136 25.1064L17.853 26.5675ZM20.0883 26.8808L21.2437 25.9243C21.005 25.6359 20.6672 25.4473 20.2965 25.3953L20.0883 26.8808ZM20.6664 27.5791L22.1657 27.5325C22.1553 27.1994 22.0343 26.8792 21.8218 26.6225L20.6664 27.5791ZM20.6921 28.4057L19.1928 28.4523C19.2111 29.0419 19.5733 29.566 20.1184 29.7916L20.6921 28.4057ZM23.2687 29.4723L22.695 30.8582C22.9841 30.9779 23.3034 31.0042 23.6081 30.9334L23.2687 29.4723ZM25.0048 29.069L25.8309 27.817C25.4875 27.5904 25.0661 27.5148 24.6654 27.6079L25.0048 29.069ZM26.8712 30.3005L26.045 31.5525C26.0756 31.5727 26.1069 31.5917 26.1388 31.6096L26.8712 30.3005ZM27.9228 30.8888L27.1904 32.1979C27.5163 32.3802 27.8985 32.4344 28.2622 32.3499L27.9228 30.8888ZM28.3173 30.7971L29.6706 31.4442C29.9193 30.9241 29.8479 30.3075 29.4869 29.858C29.126 29.4085 28.5394 29.2056 27.9779 29.3361L28.3173 30.7971ZM27.8695 31.7337L26.5163 31.0867C26.2676 31.6068 26.339 32.2233 26.6999 32.6728C27.0608 33.1223 27.6474 33.3252 28.2089 33.1948L27.8695 31.7337ZM27.8725 31.733L28.2119 33.1941C28.656 33.091 29.0291 32.7914 29.2258 32.38L27.8725 31.733ZM28.3203 30.7964L29.6736 31.4434C29.9222 30.9234 29.8509 30.3068 29.4899 29.8573C29.129 29.4078 28.5424 29.2049 27.9809 29.3353L28.3203 30.7964ZM27.9257 30.8881L27.1934 32.1971C27.5193 32.3795 27.9014 32.4337 28.2652 32.3492L27.9257 30.8881ZM26.8742 30.2998L26.048 31.5518C26.0786 31.572 26.1099 31.591 26.1418 31.6089L26.8742 30.2998ZM25.0078 29.0682L25.8339 27.8162C25.4905 27.5896 25.0691 27.514 24.6684 27.6071L25.0078 29.0682ZM23.2717 29.4715L22.698 30.8575C22.9871 30.9772 23.3063 31.0034 23.6111 30.9326L23.2717 29.4715ZM20.6951 28.405L19.1958 28.4515C19.2141 29.0412 19.5763 29.5653 20.1213 29.7909L20.6951 28.405ZM20.6694 27.5784L22.1686 27.5318C22.1583 27.1987 22.0373 26.8785 21.8248 26.6218L20.6694 27.5784ZM20.0913 26.8801L21.2467 25.9235C21.008 25.6352 20.6702 25.4466 20.2995 25.3946L20.0913 26.8801ZM17.856 26.5668L18.0642 25.0813C17.8817 25.0557 17.6961 25.064 17.5166 25.1057L17.856 26.5668ZM16.041 26.9884L14.6133 26.5284C14.4476 27.0427 14.5712 27.6063 14.937 28.0039C15.3028 28.4016 15.8541 28.5718 16.3804 28.4495L16.041 26.9884ZM16.6209 25.1886L15.2677 24.5415C15.2387 24.6021 15.2138 24.6646 15.1932 24.7285L16.6209 25.1886ZM17.0687 24.252L18.422 24.899C18.6707 24.3789 18.5993 23.7623 18.2384 23.3128C17.8774 22.8633 17.2908 22.6604 16.7293 22.7909L17.0687 24.252ZM16.2007 24.4536L14.9699 25.311C15.3206 25.8144 15.9425 26.0536 16.5401 25.9147L16.2007 24.4536ZM15.7015 23.737L14.6677 22.6502C14.131 23.1607 14.0473 23.9866 14.4707 24.5944L15.7015 23.737ZM17.7923 37.4051L16.898 36.2008C16.5087 36.4899 16.2832 36.9495 16.2926 37.4343C16.3021 37.9192 16.5454 38.3696 16.9457 38.6433L17.7923 37.4051ZM17.7935 37.4058L16.9468 38.644C17.475 39.0052 18.1741 38.9915 18.6878 38.6101L17.7935 37.4058ZM19.4239 36.1935L20.3182 37.3977C20.3248 37.3928 20.3314 37.3878 20.3379 37.3828L19.4239 36.1935ZM20.9765 35.0002L21.9066 33.8235C21.3674 33.3972 20.6074 33.392 20.0624 33.8109L20.9765 35.0002ZM20.9775 35.001L21.8916 36.1904C22.2581 35.9086 22.4743 35.4736 22.4775 35.0113C22.4806 34.5489 22.2704 34.111 21.9077 33.8243L20.9775 35.001ZM19.425 36.1942L20.3193 37.3985C20.3259 37.3936 20.3325 37.3886 20.339 37.3836L19.425 36.1942ZM22.4484 36.3232L21.214 35.471C20.8079 36.0593 20.8733 36.8523 21.3703 37.3661L22.4484 36.3232ZM22.4494 36.3242L21.3713 37.3671C21.6838 37.6902 22.1247 37.8561 22.5727 37.8191C23.0207 37.7822 23.4284 37.5463 23.6838 37.1764L22.4494 36.3242ZM23.1328 35.3318L22.7934 33.8708C22.4297 33.9553 22.1105 34.1724 21.8984 34.4797L23.1328 35.3318ZM23.922 35.1485L24.8519 33.9715C24.494 33.6888 24.0268 33.5842 23.5825 33.6874L23.922 35.1485ZM23.923 35.1493L24.2624 36.6104C24.8238 36.48 25.2608 36.0394 25.3867 35.477C25.5126 34.9145 25.3051 34.3297 24.8529 33.9723L23.923 35.1493ZM23.1339 35.3326L22.7945 33.8715C22.4308 33.956 22.1116 34.1731 21.8995 34.4804L23.1339 35.3326ZM24.7369 35.7918L24.3975 34.3307C23.836 34.4611 23.399 34.9017 23.2731 35.4641C23.1472 36.0266 23.3547 36.6114 23.807 36.9688L24.7369 35.7918ZM24.7379 35.7926L23.808 36.9695C24.1659 37.2523 24.633 37.3569 25.0773 37.2537L24.7379 35.7926ZM25.6837 35.5718L26.0232 37.0329C26.3119 36.9658 26.5742 36.8148 26.7771 36.5987L25.6837 35.5718ZM26.6839 34.5069L27.7773 35.5338C27.9851 35.3126 28.1209 35.0335 28.1667 34.7335L26.6839 34.5069ZM26.6843 34.5045L28.1453 34.1645C27.9823 33.4641 27.3452 32.9779 26.6266 33.0056C25.908 33.0332 25.3102 33.567 25.2015 34.2779L26.6843 34.5045ZM26.6851 34.5076L27.7784 35.5346C28.1217 35.169 28.2597 34.6561 28.146 34.1677L26.6851 34.5076ZM25.6849 35.5726L26.0243 37.0337C26.313 36.9666 26.5753 36.8155 26.7782 36.5995L25.6849 35.5726ZM27.0792 31.9251L25.5964 31.6982C25.4781 32.4712 25.9735 33.2054 26.7346 33.385C27.4957 33.5646 28.2671 33.1294 28.5069 32.3851L27.0792 31.9251ZM27.0815 31.9178L27.7299 30.5652C27.3393 30.378 26.8869 30.3687 26.489 30.5398C26.0911 30.7109 25.7866 31.0456 25.6538 31.4579L27.0815 31.9178ZM27.0804 31.9171L26.741 30.456C26.1433 30.5948 25.6905 31.0837 25.5976 31.6902L27.0804 31.9171ZM27.0834 31.9164L27.7318 30.5637C27.4244 30.4164 27.076 30.3781 26.744 30.4553L27.0834 31.9164ZM29.4232 33.0379L30.8267 32.5085C30.6904 32.1471 30.4199 31.8522 30.0716 31.6853L29.4232 33.0379ZM30.2889 35.333L31.2029 36.5224C31.7268 36.1198 31.9255 35.4218 31.6924 34.8036L30.2889 35.333ZM30.287 35.3344L28.8835 35.8638C29.0511 36.3082 29.4193 36.647 29.8761 36.7771C30.3329 36.9072 30.8244 36.8132 31.201 36.5238L30.287 35.3344ZM29.4214 33.0394L30.8249 32.51C30.6885 32.1486 30.4181 31.8537 30.0697 31.6868L29.4214 33.0394ZM33.3379 33.7937L32.1071 34.651C32.1913 34.7719 32.2928 34.8797 32.4084 34.971L33.3379 33.7937ZM32.8399 33.0787L31.7462 32.0521C31.2612 32.5689 31.204 33.3545 31.6091 33.9361L32.8399 33.0787ZM34.1527 34.4369L33.2233 35.6143C33.5853 35.9 34.0586 36.0034 34.5067 35.8946L34.1527 34.4369ZM34.1562 34.4361L34.5102 35.8937C35.0678 35.7583 35.4992 35.3167 35.6217 34.7561C35.7441 34.1956 35.536 33.6143 35.0857 33.2588L34.1562 34.4361ZM33.3414 33.7928L32.1106 34.6502C32.1948 34.771 32.2963 34.8789 32.4119 34.9701L33.3414 33.7928ZM32.8422 33.0762L34.0731 32.2189C33.8145 31.8477 33.4023 31.613 32.9511 31.5802C32.5 31.5473 32.0581 31.7198 31.7485 32.0497L32.8422 33.0762ZM35.2356 30.8558L35.575 32.3169H35.575L35.2356 30.8558ZM34.0546 31.1301L33.5259 32.5338C33.8033 32.6383 34.1054 32.6583 34.3941 32.5912L34.0546 31.1301ZM36.735 30.5074L37.0744 31.9685C37.8252 31.7941 38.3216 31.0791 38.2225 30.3147L36.735 30.5074ZM36.7349 30.5068L38.2224 30.314C38.168 29.8938 37.9383 29.5162 37.5903 29.2746C37.2422 29.0329 36.8082 28.9498 36.3954 29.0457L36.7349 30.5068ZM35.2372 30.8547L34.8978 29.3936L35.2372 30.8547ZM34.0535 31.1297L33.7141 29.6686C33.0703 29.8181 32.6003 30.3714 32.5567 31.0308C32.5132 31.6902 32.9063 32.3005 33.5247 32.5334L34.0535 31.1297ZM38.3408 28.4693L37.7671 29.8552C38.3595 30.1004 39.0423 29.942 39.4662 29.461L38.3408 28.4693ZM37.0529 27.9362L35.9602 26.9085C35.6225 27.2676 35.4828 27.7696 35.5864 28.2515C35.69 28.7334 36.0238 29.1336 36.4792 29.3221L37.0529 27.9362ZM38.3419 28.468L39.4673 29.4597C39.7875 29.0963 39.9126 28.6007 39.8031 28.129C39.6936 27.6572 39.3631 27.2673 38.9156 27.082L38.3419 28.468ZM37.0541 27.9349L37.6278 26.549C37.0518 26.3105 36.3884 26.4532 35.9614 26.9073L37.0541 27.9349ZM35.968 34.0159L35.6297 32.5545C35.1918 32.6559 34.8224 32.9484 34.6232 33.3514C34.4241 33.7544 34.4162 34.2255 34.6018 34.635L35.968 34.0159ZM36.3091 34.7686L37.7292 34.2856C37.7135 34.2394 37.6955 34.1939 37.6754 34.1495L36.3091 34.7686ZM35.9696 34.0155L37.3359 33.3964C37.0409 32.7454 36.3276 32.393 35.6313 32.5542L35.9696 34.0155ZM36.311 34.7688L37.7311 34.2858C37.7154 34.2396 37.6974 34.1942 37.6772 34.1497L36.311 34.7688ZM36.5734 35.5404L35.1533 36.0234C35.2923 36.4322 35.6007 36.7612 35.9997 36.9264L36.5734 35.5404ZM37.8607 36.0733L38.1985 37.5348C38.834 37.3879 39.3017 36.8472 39.3556 36.1972C39.4094 35.5471 39.0371 34.9368 38.4344 34.6873L37.8607 36.0733ZM37.8598 36.0735L37.2861 37.4594C37.5747 37.5789 37.8933 37.6053 38.1976 37.535L37.8598 36.0735ZM36.5715 35.5402L35.1514 36.0232C35.2904 36.432 35.5989 36.761 35.9978 36.9262L36.5715 35.5402ZM38.8857 35.8358L38.5467 34.3746C37.9011 34.5244 37.4303 35.0801 37.3886 35.7415L38.8857 35.8358ZM38.8325 36.6801L37.3354 36.5858C37.3294 36.6815 37.3326 36.7775 37.3449 36.8726L38.8325 36.6801ZM38.8876 35.8354L40.3846 35.9297C40.4144 35.4566 40.2189 34.9973 39.8572 34.6909C39.4955 34.3845 39.0103 34.2671 38.5486 34.3742L38.8876 35.8354ZM38.8344 36.6803L37.3373 36.586C37.3313 36.6817 37.3345 36.7777 37.3468 36.8728L38.8344 36.6803ZM38.9389 37.488L39.2778 38.9492C40.0287 38.775 40.5254 38.06 40.4265 37.2954L38.9389 37.488ZM38.9371 37.4884L37.4495 37.6809C37.5039 38.1011 37.7334 38.4786 38.0813 38.7203C38.4293 38.962 38.8632 39.0453 39.276 38.9496L38.9371 37.4884ZM41.6205 36.8657L41.2793 35.405C40.8298 35.5099 40.4538 35.816 40.2596 36.2347C40.0655 36.6534 40.0749 37.1381 40.2851 37.549L41.6205 36.8657ZM42.3817 38.3533L43.877 38.2341C43.8613 38.0374 43.807 37.8457 43.7171 37.67L42.3817 38.3533ZM41.622 36.8653L42.9573 36.1819C42.6434 35.5685 41.9519 35.2479 41.2808 35.4046L41.622 36.8653ZM42.3836 38.3535L43.8789 38.2343C43.8632 38.0376 43.8088 37.8459 43.7189 37.6702L42.3836 38.3535ZM42.5139 39.9884L43.428 41.1777C43.8308 40.8681 44.0495 40.3757 44.0092 39.8692L42.5139 39.9884ZM40.9613 41.1816L41.8195 42.4119C41.8384 42.3987 41.8571 42.385 41.8754 42.3709L40.9613 41.1816ZM39.172 42.4299L38.3137 41.1996C38.0344 41.3945 37.8296 41.6787 37.7332 42.0055L39.172 42.4299ZM38.381 45.1114L36.9422 44.687C36.9349 44.7118 36.9282 44.7369 36.9222 44.7621L38.381 45.1114ZM37.9588 46.8746L38.2983 48.3357C38.8519 48.207 39.2853 47.7766 39.4176 47.2238L37.9588 46.8746ZM36.6962 47.1679L37.0356 48.629H37.0356L36.6962 47.1679ZM35.5125 47.4429L35.1731 45.9818L35.1731 45.9818L35.5125 47.4429ZM35.1179 47.5345L34.7785 46.0734C34.1809 46.2123 33.728 46.7011 33.6352 47.3076L35.1179 47.5345ZM34.9858 48.3978L34.2537 49.707C34.6829 49.947 35.2025 49.9614 35.6443 49.7455C36.0862 49.5296 36.3941 49.1109 36.4685 48.6248L34.9858 48.3978ZM34.984 48.3968L33.5013 48.1699C33.4066 48.7884 33.7058 49.4006 34.2519 49.706L34.984 48.3968ZM35.1161 47.5344L34.7767 46.0733C34.179 46.2121 33.7262 46.7009 33.6333 47.3074L35.1161 47.5344ZM35.5106 47.4427L35.8501 48.9038H35.8501L35.5106 47.4427ZM36.6943 47.1677L36.3549 45.7066L36.6943 47.1677ZM37.957 46.8744L38.2964 48.3355C38.85 48.2069 39.2834 47.7764 39.4157 47.2236L37.957 46.8744ZM38.3791 45.1112L36.9404 44.6868C36.933 44.7117 36.9264 44.7367 36.9203 44.7619L38.3791 45.1112ZM39.1701 42.4297L38.3119 41.1995C38.0325 41.3944 37.8278 41.6786 37.7314 42.0053L39.1701 42.4297ZM40.9594 41.1814L41.8176 42.4117C41.8366 42.3984 41.8552 42.3848 41.8735 42.3708L40.9594 41.1814ZM42.512 39.9882L43.4261 41.1775C43.8289 40.8679 44.0476 40.3755 44.0073 39.869L42.512 39.9882ZM26.0472 42.149L25.7077 40.6879C25.223 40.8005 24.8257 41.1462 24.6471 41.6107C24.4685 42.0752 24.5319 42.598 24.8163 43.0064L26.0472 42.149ZM26.4411 42.7145L25.2103 43.5719C25.4687 43.943 25.8809 44.1776 26.3319 44.2105C26.783 44.2434 27.2248 44.0711 27.5344 43.7414L26.4411 42.7145ZM27.2304 41.8742L28.3237 42.9011C28.7762 42.4193 28.86 41.6983 28.5302 41.1256C28.2004 40.5529 27.5347 40.2635 26.8909 40.4131L27.2304 41.8742ZM32.3102 36.5302L33.7888 36.7825C33.9252 35.983 33.4014 35.2198 32.6063 35.0597L32.3102 36.5302ZM32.2032 37.1572L31.4708 38.4663C31.8961 38.7042 32.4104 38.7207 32.85 38.5106C33.2897 38.3004 33.5998 37.8898 33.6818 37.4095L32.2032 37.1572ZM30.3916 36.1437L30.6877 34.6732C29.9636 34.5274 29.2411 34.9304 28.9848 35.6232C28.7284 36.3159 29.0146 37.0921 29.6592 37.4528L30.3916 36.1437ZM29.5757 35.5002L29.2363 34.0391C28.6758 34.1693 28.2392 34.6087 28.1125 35.17C27.9858 35.7312 28.1914 36.3155 28.6416 36.6739L29.5757 35.5002ZM29.5761 35.5005L29.9155 36.9616C30.476 36.8314 30.9126 36.3921 31.0393 35.8308C31.166 35.2695 30.9604 34.6852 30.5102 34.3269L29.5761 35.5005ZM30.2852 35.3354L30.6246 36.7965C31.3122 36.6368 31.7954 36.0192 31.785 35.3133C31.7746 34.6074 31.2734 34.0043 30.5813 33.8649L30.2852 35.3354ZM28.3679 34.9493L28.6641 33.4788C28.454 33.4365 28.2373 33.4397 28.0285 33.4882L28.3679 34.9493ZM28.1312 35.0043L28.4654 36.4666L28.4706 36.4654L28.1312 35.0043ZM28.1309 35.0043L27.7966 33.5421C27.3335 33.6479 26.948 33.9668 26.7572 34.4019C26.5664 34.8369 26.5929 35.3366 26.8287 35.7489L28.1309 35.0043ZM28.5508 35.7387L27.2486 36.4833C27.5775 37.0585 28.2448 37.3497 28.8902 37.1998L28.5508 35.7387ZM26.34 38.7507L24.8922 38.3586C24.7192 38.997 24.985 39.6734 25.5462 40.0235L26.34 38.7507ZM26.34 38.7506L27.1338 37.4779C26.7311 37.2267 26.2333 37.1809 25.7915 37.3545C25.3498 37.528 25.0163 37.9004 24.8922 38.3585L26.34 38.7506ZM27.312 39.3569L26.5182 40.6297C26.9722 40.9128 27.5427 40.9327 28.0154 40.6818C28.488 40.4308 28.7911 39.9471 28.8109 39.4124L27.312 39.3569ZM27.312 39.3568L28.8109 39.4123C28.8308 38.8752 28.5618 38.3685 28.1058 38.084L27.312 39.3568ZM27.1697 4.63648L24.7766 4.35985L24.4321 7.34L26.8252 7.61663L27.1697 4.63648ZM29.1832 4.07882L26.658 4.66546L27.3368 7.58765L29.8621 7.00101L29.1832 4.07882ZM31.7934 6.04614L30.7161 4.63126L28.3292 6.44858L29.4065 7.86346L31.7934 6.04614ZM32.8291 7.53066L31.8307 6.09744L29.3691 7.81216L30.3674 9.24538L32.8291 7.53066ZM34.1148 8.54518L32.564 7.24029L30.6325 9.53574L32.1832 10.8406L34.1148 8.54518ZM35.5417 10.0105L34.2277 8.65062L32.0703 10.7352L33.3843 12.0951L35.5417 10.0105ZM36.2644 13.2851L35.9506 10.8603L32.9754 11.2453L33.2892 13.6701L36.2644 13.2851ZM36.3274 15.0843L36.276 13.4311L33.2775 13.5242L33.3288 15.1774L36.3274 15.0843ZM36.9708 15.8561L36.1303 14.3863L33.526 15.8754L34.3665 17.3453L36.9708 15.8561ZM38.1433 16.8085L36.6715 15.4853L34.6658 17.7162L36.1376 19.0394L38.1433 16.8085ZM41.0589 20.5335L38.3263 17.0055L35.9546 18.8425L38.6871 22.3705L41.0589 20.5335ZM42.8111 24.6893L41.2622 20.8862L38.4838 22.0178L40.0327 25.8209L42.8111 24.6893ZM42.4266 26.3689L42.428 26.3676L40.4158 24.1426L40.4144 24.1438L42.4266 26.3689ZM43.159 24.8022L42.4233 24.1408L40.4177 26.3718L41.1534 27.0332L43.159 24.8022ZM44.0896 24.9957L42.6434 24.4991L41.669 27.3364L43.1151 27.833L44.0896 24.9957ZM47.966 28.7718L44.681 25.3721L42.5236 27.4567L45.8086 30.8564L47.966 28.7718ZM50.0979 30.6835L47.8902 28.6986L45.8845 30.9296L48.0922 32.9144L50.0979 30.6835ZM47.0828 35.3217L50.0301 32.9718L48.1599 30.6261L45.2126 32.9759L47.0828 35.3217ZM49.5511 37.0789L47.4498 33.4042L44.8455 34.8934L46.9468 38.5681L49.5511 37.0789ZM49.9769 40.1231L49.742 37.68L46.7558 37.967L46.9907 40.4102L49.9769 40.1231ZM50.2118 42.5663L49.9769 40.1231L46.9907 40.4102L47.2256 42.8534L50.2118 42.5663ZM48.616 41.1937L48.3792 41.2487L49.0581 44.1709L49.2949 44.1159L48.616 41.1937ZM49.4841 40.9921L48.616 41.1937L49.2949 44.1159L50.1629 43.9142L49.4841 40.9921ZM51.5535 42.3124L51.0543 41.5958L48.5927 43.3105L49.0918 44.0271L51.5535 42.3124ZM49.3915 45.6482L51.1809 44.4L49.4644 41.9395L47.6751 43.1878L49.3915 45.6482ZM46.1719 50.2866L49.7524 45.292L47.3142 43.5441L43.7337 48.5387L46.1719 50.2866ZM47.3048 56.5293L46.4424 49.2365L43.4632 49.5888L44.3256 56.8816L47.3048 56.5293ZM48.9279 63.4755L47.2763 56.366L44.3541 57.0449L46.0057 64.1543L48.9279 63.4755ZM46.6548 66.936L48.5762 64.8245L46.3574 62.8054L44.4359 64.9169L46.6548 66.936ZM43.2017 68.0108L45.8848 67.3875L45.2059 64.4653L42.5228 65.0886L43.2017 68.0108ZM41.8357 69.0579L43.704 67.7913L42.0205 65.3082L40.1523 66.5748L41.8357 69.0579ZM39.4395 69.7174L41.3334 69.2774L40.6546 66.3553L38.7607 66.7952L39.4395 69.7174ZM35.0077 64.7412L37.8449 69.0776L40.3553 67.4351L37.5181 63.0987L35.0077 64.7412ZM33.0058 59.0017L34.8428 64.403L37.683 63.437L35.846 58.0357L33.0058 59.0017ZM30.5996 56.916L33.3854 59.5991L35.4665 57.4383L32.6807 54.7552L30.5996 56.916ZM27.9135 53.1099L30.4093 56.693L32.8709 54.9783L30.3751 51.3952L27.9135 53.1099ZM28.5882 49.7932L27.7715 51.6481L30.5171 52.857L31.3338 51.0021L28.5882 49.7932ZM29.5279 48.4832L28.7644 49.4931L31.1575 51.3022L31.921 50.2923L29.5279 48.4832ZM31.263 47.04L29.7893 48.2149L31.6595 50.5606L33.1332 49.3857L31.263 47.04ZM33.5937 46.3487L31.8587 46.7518L32.5375 49.6739L34.2726 49.2709L33.5937 46.3487ZM33.2006 49.1188L33.2014 49.1192L34.6649 46.5004L34.6641 46.4999L33.2006 49.1188ZM32.5357 49.6738L34.2718 49.2704L33.5929 46.3483L31.8568 46.7516L32.5357 49.6738ZM31.6577 50.5604L33.1313 49.3855L31.2612 47.0398L29.7875 48.2147L31.6577 50.5604ZM28.3704 49.0104L29.6055 50.3886L31.8397 48.3865L30.6046 47.0083L28.3704 49.0104ZM27.7036 48.7301L28.7551 49.3184L30.2198 46.7003L29.1683 46.112L27.7036 48.7301ZM26.7283 47.2869L27.0697 48.0402L29.8022 46.802L29.4609 46.0487L26.7283 47.2869ZM25.9977 45.8629L26.7593 47.3511L29.4299 45.9845L28.6683 44.4962L25.9977 45.8629ZM24.7739 45.0703L26.4035 46.3569L28.2625 44.0022L26.6328 42.7157L24.7739 45.0703ZM24.938 45.6107L26.0428 45.3541L25.3639 42.4319L24.2591 42.6885L24.938 45.6107ZM23.0736 43.3696L23.0993 44.1962L26.0978 44.1031L26.0721 43.2765L23.0736 43.3696ZM22.8508 43.3333L23.2707 44.0676L25.875 42.5784L25.4551 41.8441L22.8508 43.3333ZM21.1333 43.9386L24.0775 44.0868L24.2284 41.0906L21.2841 40.9424L21.1333 43.9386ZM18.5808 43.674L21.0528 43.9323L21.3646 40.9486L18.8926 40.6903L18.5808 43.674ZM16.8484 41.0325L17.2944 42.5941L20.179 41.7703L19.7331 40.2087L16.8484 41.0325ZM14.8873 37.6905L16.9886 41.3652L19.5929 39.876L17.4916 36.2013L14.8873 37.6905ZM16.5603 35.3198L15.8501 35.4848L16.5289 38.407L17.2391 38.242L16.5603 35.3198ZM16.0515 38.018L16.0526 38.0188L17.7469 35.543L17.7457 35.5422L16.0515 38.018ZM16.5278 38.4062L17.238 38.2412L16.5592 35.319L15.849 35.484L16.5278 38.4062ZM12.8504 33.9725L14.8727 37.6656L17.504 36.2246L15.4817 32.5316L12.8504 33.9725ZM10.2797 31.6855L13.1444 34.3504L15.1877 32.1538L12.3229 29.489L10.2797 31.6855ZM10.1423 29.635L10.1413 29.6363L12.4613 31.5382L12.4623 31.537L10.1423 29.635ZM5.01381 28.0925L10.454 31.8231L12.1506 29.349L6.71045 25.6184L5.01381 28.0925ZM0.660117 22.924L4.70669 27.812L7.01756 25.8989L2.97099 21.0109L0.660117 22.924ZM3.00464 18.7095L0.767505 20.8944L2.8636 23.0406L5.10074 20.8557L3.00464 18.7095ZM5.3349 16.4926L3.01884 18.6958L5.08654 20.8694L7.40259 18.6662L5.3349 16.4926ZM9.31179 18.6693L7.49863 16.5928L5.23886 18.566L7.05202 20.6425L9.31179 18.6693ZM10.741 19.7652L9.11137 18.4786L7.25244 20.8333L8.88208 22.1198L10.741 19.7652ZM11.2787 17.5907L8.80479 19.8306L10.8183 22.0545L13.2922 19.8146L11.2787 17.5907ZM10.6029 18.414L10.8653 19.1856L13.7056 18.2197L13.4431 17.4481L10.6029 18.414ZM12.9462 16.1766L11.6836 16.4699L12.3624 19.3921L13.6251 19.0988L12.9462 16.1766ZM15.8448 17.747L14.2151 16.4604L12.3562 18.815L13.9858 20.1016L15.8448 17.747ZM17.6977 20.1639L16.1213 18.0323L13.7093 19.8162L15.2857 21.9477L17.6977 20.1639ZM17.2571 19.338L16.1523 19.5947L16.8311 22.5169L17.9359 22.2602L17.2571 19.338ZM19.4284 19.986L18.219 19.4344L16.974 22.1639L18.1834 22.7155L19.4284 19.986ZM20.1565 22.4409L20.2886 21.5777L17.3232 21.1238L17.191 21.987L20.1565 22.4409ZM18.3343 20.7529L18.3335 20.7531L19.0141 23.6749L19.0149 23.6747L18.3343 20.7529ZM17.324 21.1235L17.1918 21.9868L20.1573 22.4407L20.2894 21.5774L17.324 21.1235ZM16.9748 22.1636L18.1842 22.7152L19.4292 19.9857L18.2198 19.4341L16.9748 22.1636ZM16.832 22.5166L17.9367 22.26L17.2579 19.3378L16.1531 19.5944L16.832 22.5166ZM13.7101 19.816L15.2865 21.9475L17.6985 20.1636L16.1221 18.0321L13.7101 19.816ZM12.357 18.8148L13.9867 20.1014L15.8456 17.7467L14.2159 16.4601L12.357 18.8148ZM11.0213 14.8718L11.8343 18.0133L14.7386 17.2617L13.9257 14.1202L11.0213 14.8718ZM12.5286 12.9433L12.1341 13.0349L12.8129 15.9571L13.2075 15.8655L12.5286 12.9433ZM14.5981 14.2636L14.0989 13.547L11.6372 15.2617L12.1364 15.9783L14.5981 14.2636ZM13.3837 12.9791L12.3046 14.0623L14.4299 16.1796L15.509 15.0963L13.3837 12.9791ZM13.8902 11.5784L13.0735 13.4333L15.8192 14.6422L16.6359 12.7873L13.8902 11.5784ZM13.5188 12.7169L14.3336 13.3602L16.1925 11.0055L15.3777 10.3622L13.5188 12.7169ZM13.0577 9.75538L12.9512 11.4453L15.9453 11.6339L16.0517 9.94401L13.0577 9.75538ZM11.9918 8.38943L13.2525 10.5943L15.8568 9.10511L14.5961 6.90026L11.9918 8.38943ZM11.8755 5.08024L11.7947 7.59672L14.7931 7.69297L14.8739 5.1765L11.8755 5.08024ZM12.6233 2.79913L11.9644 4.61733L14.785 5.63941L15.4438 3.82121L12.6233 2.79913ZM15.9295 2.42139L14.5623 1.90643L13.5049 4.7139L14.8721 5.22886L15.9295 2.42139ZM17.4182 2.84319L15.8143 2.38323L14.9873 5.26701L16.5913 5.72696L17.4182 2.84319ZM15.757 3.05424L15.546 3.93584L18.4635 4.63431L18.6746 3.75271L15.757 3.05424ZM15.7436 1.70721L15.716 3.37875L18.7156 3.42819L18.7432 1.75665L15.7436 1.70721ZM19.3556 0.696728L17.5938 0.273439L16.8929 3.19043L18.6547 3.61372L19.3556 0.696728ZM21.6077 2.219L19.8992 0.950773L18.1111 3.35967L19.8197 4.6279L21.6077 2.219ZM22.4525 2.96962L21.7166 2.30799L19.7108 4.53891L20.4467 5.20054L22.4525 2.96962ZM21.8993 2.44067L21.1102 2.62399L21.789 5.54618L22.5782 5.36285L21.8993 2.44067ZM23.8309 4.5175L23.7264 3.70925L20.7512 4.09427L20.8558 4.90251L23.8309 4.5175ZM24.051 4.84417L23.7096 4.09089L20.9771 5.32912L21.3184 6.08239L24.051 4.84417ZM22.2516 3.5488L21.4881 4.55873L23.8813 6.36783L24.6447 5.3579L22.2516 3.5488ZM24.1346 2.75394L23.1087 2.99226L23.7876 5.91444L24.8135 5.67612L24.1346 2.75394ZM26.1964 4.20538L25.7762 3.47044L23.1719 4.95961L23.5921 5.69456L26.1964 4.20538ZM26.032 6.30993L26.322 5.40998L23.4666 4.48996L23.1766 5.38992L26.032 6.30993ZM17.1966 24.0972L17.1973 24.097L16.5216 21.1741L16.5209 21.1742L17.1966 24.0972ZM16.7345 24.8241L17.8926 23.7225L15.8249 21.5489L14.6669 22.6505L16.7345 24.8241ZM17.4307 23.5965L16.9315 22.8799L14.4699 24.5946L14.969 25.3113L17.4307 23.5965ZM16.7285 22.7912L15.8604 22.9928L16.5393 25.915L17.4073 25.7133L16.7285 22.7912ZM17.9734 25.8359L18.4212 24.8993L15.7146 23.6052L15.2668 24.5418L17.9734 25.8359ZM17.4679 27.4487L18.0478 25.6489L15.1924 24.7288L14.6125 26.5286L17.4679 27.4487ZM17.5136 25.1064L15.7008 25.5276L16.3796 28.4497L18.1925 28.0286L17.5136 25.1064ZM20.2965 25.3953L18.0612 25.082L17.6448 28.053L19.8801 28.3663L20.2965 25.3953ZM21.8218 26.6225L21.2437 25.9243L18.9329 27.8373L19.511 28.5356L21.8218 26.6225ZM22.1914 28.3591L22.1657 27.5325L19.1671 27.6257L19.1928 28.4523L22.1914 28.3591ZM23.8424 28.0863L21.2658 27.0197L20.1184 29.7916L22.695 30.8582L23.8424 28.0863ZM24.6654 27.6079L22.9293 28.0112L23.6081 30.9334L25.3442 30.5301L24.6654 27.6079ZM27.6973 29.0485L25.8309 27.817L24.1787 30.321L26.045 31.5525L27.6973 29.0485ZM28.6551 29.5797L27.6035 28.9915L26.1388 31.6096L27.1904 32.1979L28.6551 29.5797ZM27.9779 29.3361L27.5833 29.4277L28.2622 32.3499L28.6568 32.2582L27.9779 29.3361ZM29.2228 32.3807L29.6706 31.4442L26.964 30.1501L26.5163 31.0867L29.2228 32.3807ZM27.5331 30.2719L27.5302 30.2726L28.2089 33.1948L28.2119 33.1941L27.5331 30.2719ZM26.967 30.1494L26.5192 31.086L29.2258 32.38L29.6736 31.4434L26.967 30.1494ZM28.2652 32.3492L28.6597 32.2575L27.9809 29.3353L27.5863 29.427L28.2652 32.3492ZM26.1418 31.6089L27.1934 32.1971L28.6581 29.579L27.6065 28.9907L26.1418 31.6089ZM24.1816 30.3202L26.048 31.5518L27.7003 29.0478L25.8339 27.8162L24.1816 30.3202ZM23.6111 30.9326L25.3472 30.5293L24.6684 27.6071L22.9322 28.0105L23.6111 30.9326ZM20.1213 29.7909L22.698 30.8575L23.8454 28.0856L21.2688 27.019L20.1213 29.7909ZM19.1701 27.6249L19.1958 28.4515L22.1943 28.3584L22.1686 27.5318L19.1701 27.6249ZM18.9359 27.8366L19.5139 28.5349L21.8248 26.6218L21.2467 25.9235L18.9359 27.8366ZM17.6478 28.0523L19.8831 28.3656L20.2995 25.3946L18.0642 25.0813L17.6478 28.0523ZM16.3804 28.4495L18.1954 28.0279L17.5166 25.1057L15.7016 25.5273L16.3804 28.4495ZM15.1932 24.7285L14.6133 26.5284L17.4687 27.4485L18.0487 25.6486L15.1932 24.7285ZM15.7155 23.6049L15.2677 24.5415L17.9742 25.8356L18.422 24.899L15.7155 23.6049ZM16.5401 25.9147L17.4082 25.7131L16.7293 22.7909L15.8613 22.9925L16.5401 25.9147ZM14.4707 24.5944L14.9699 25.311L17.4315 23.5963L16.9324 22.8797L14.4707 24.5944ZM15.8256 21.5487L14.6677 22.6502L16.7354 24.8238L17.8933 23.7223L15.8256 21.5487ZM16.9457 38.6433L16.9468 38.644L18.6401 36.1676L18.639 36.1668L16.9457 38.6433ZM18.5296 34.9892L16.898 36.2008L18.6866 38.6093L20.3182 37.3977L18.5296 34.9892ZM20.0624 33.8109L18.5098 35.0042L20.3379 37.3828L21.8905 36.1895L20.0624 33.8109ZM21.9077 33.8243L21.9066 33.8235L20.0463 36.177L20.0473 36.1778L21.9077 33.8243ZM20.339 37.3836L21.8916 36.1904L20.0634 33.8117L18.5109 35.0049L20.339 37.3836ZM18.6878 38.6101L20.3193 37.3985L18.5307 34.99L16.8992 36.2016L18.6878 38.6101ZM21.3703 37.3661L21.3713 37.3671L23.5275 35.2813L23.5266 35.2803L21.3703 37.3661ZM21.8984 34.4797L21.214 35.471L23.6829 37.1754L24.3672 36.184L21.8984 34.4797ZM23.5825 33.6874L22.7934 33.8708L23.4722 36.7929L24.2614 36.6096L23.5825 33.6874ZM24.8529 33.9723L24.8519 33.9715L22.9921 36.3255L22.9931 36.3263L24.8529 33.9723ZM23.4734 36.7937L24.2624 36.6104L23.5835 33.6882L22.7945 33.8715L23.4734 36.7937ZM23.6838 37.1764L24.3684 36.1848L21.8995 34.4804L21.215 35.472L23.6838 37.1764ZM23.807 36.9688L23.808 36.9695L25.6678 34.6156L25.6668 34.6148L23.807 36.9688ZM25.3443 34.1107L24.3975 34.3307L25.0763 37.2529L26.0232 37.0329L25.3443 34.1107ZM25.5906 33.48L24.5904 34.5449L26.7771 36.5987L27.7773 35.5338L25.5906 33.48ZM25.2015 34.2779L25.2012 34.2803L28.1667 34.7335L28.1671 34.7311L25.2015 34.2779ZM28.146 34.1677L28.1453 34.1645L25.2234 34.8444L25.2241 34.8476L28.146 34.1677ZM26.7782 36.5995L27.7784 35.5346L25.5917 33.4807L24.5915 34.5457L26.7782 36.5995ZM25.0773 37.2537L26.0243 37.0337L25.3454 34.1115L24.3985 34.3315L25.0773 37.2537ZM28.5069 32.3851L28.5092 32.3778L25.6538 31.4579L25.6514 31.4652L28.5069 32.3851ZM25.5976 31.6902L25.5964 31.6982L28.5619 32.152L28.5631 32.144L25.5976 31.6902ZM26.744 30.4553L26.741 30.456L27.4198 33.3782L27.4229 33.3775L26.744 30.4553ZM30.0716 31.6853L27.7318 30.5637L26.4351 33.269L28.7749 34.3905L30.0716 31.6853ZM31.6924 34.8036L30.8267 32.5085L28.0198 33.5673L28.8854 35.8623L31.6924 34.8036ZM31.201 36.5238L31.2029 36.5224L29.3749 34.1436L29.373 34.145L31.201 36.5238ZM28.0179 33.5688L28.8835 35.8638L31.6905 34.8051L30.8249 32.51L28.0179 33.5688ZM26.4331 33.2705L28.773 34.392L30.0697 31.6868L27.7299 30.5652L26.4331 33.2705ZM34.5687 32.9363L34.0707 32.2213L31.6091 33.9361L32.1071 34.651L34.5687 32.9363ZM35.0822 33.2596L34.2674 32.6163L32.4084 34.971L33.2233 35.6143L35.0822 33.2596ZM33.8022 32.9785L33.7987 32.9793L34.5067 35.8946L34.5102 35.8937L33.8022 32.9785ZM32.4119 34.9701L33.2267 35.6134L35.0857 33.2588L34.2708 32.6155L32.4119 34.9701ZM31.6114 33.9336L32.1106 34.6502L34.5722 32.9355L34.0731 32.2189L31.6114 33.9336ZM33.9336 34.1052L33.9359 34.1028L31.7485 32.0497L31.7462 32.0521L33.9336 34.1052ZM34.8962 29.3947L33.7152 29.669L34.3941 32.5912L35.575 32.3169L34.8962 29.3947ZM36.3955 29.0464L34.8962 29.3947L35.575 32.3169L37.0744 31.9685L36.3955 29.0464ZM35.2473 30.6995L35.2474 30.7002L38.2225 30.3147L38.2224 30.314L35.2473 30.6995ZM35.5766 32.3158L37.0743 31.9679L36.3954 29.0457L34.8978 29.3936L35.5766 32.3158ZM34.3929 32.5908L35.5766 32.3158L34.8978 29.3936L33.7141 29.6686L34.3929 32.5908ZM34.5834 29.7264L34.5822 29.726L33.5247 32.5334L33.5259 32.5338L34.5834 29.7264ZM38.9145 27.0833L37.6266 26.5502L36.4792 29.3221L37.7671 29.8552L38.9145 27.0833ZM37.2165 27.4763L37.2154 27.4776L39.4662 29.461L39.4673 29.4597L37.2165 27.4763ZM36.4804 29.3209L37.7682 29.8539L38.9156 27.082L37.6278 26.549L36.4804 29.3209ZM38.1456 28.9638L38.1468 28.9625L35.9614 26.9073L35.9602 26.9085L38.1456 28.9638ZM34.6018 34.635L34.9428 35.3877L37.6754 34.1495L37.3343 33.3968L34.6018 34.635ZM35.6313 32.5542L35.6297 32.5545L36.3063 35.4772L36.3079 35.4769L35.6313 32.5542ZM37.6772 34.1497L37.3359 33.3964L34.6034 34.6346L34.9447 35.3879L37.6772 34.1497ZM37.9935 35.0574L37.7311 34.2858L34.8909 35.2518L35.1533 36.0234L37.9935 35.0574ZM38.4344 34.6873L37.1471 34.1545L35.9997 36.9264L37.287 37.4592L38.4344 34.6873ZM38.1976 37.535L38.1985 37.5348L37.5229 34.6118L37.5221 34.612L38.1976 37.535ZM35.9978 36.9262L37.2861 37.4594L38.4335 34.6875L37.1452 34.1542L35.9978 36.9262ZM34.889 35.2515L35.1514 36.0232L37.9916 35.0572L37.7292 34.2856L34.889 35.2515ZM37.3886 35.7415L37.3354 36.5858L40.3295 36.7744L40.3827 35.9301L37.3886 35.7415ZM38.5486 34.3742L38.5467 34.3746L39.2247 37.297L39.2266 37.2966L38.5486 34.3742ZM40.3314 36.7746L40.3846 35.9297L37.3905 35.7411L37.3373 36.586L40.3314 36.7746ZM40.4265 37.2954L40.3219 36.4878L37.3468 36.8728L37.4513 37.6805L40.4265 37.2954ZM39.276 38.9496L39.2778 38.9492L38.6 36.0267L38.5982 36.0272L39.276 38.9496ZM37.3449 36.8726L37.4495 37.6809L40.4247 37.2959L40.3201 36.4876L37.3449 36.8726ZM40.2851 37.549L41.0464 39.0366L43.7171 37.67L42.9558 36.1823L40.2851 37.549ZM41.2808 35.4046L41.2793 35.405L41.9616 38.3263L41.9632 38.326L41.2808 35.4046ZM43.7189 37.6702L42.9573 36.1819L40.2867 37.5486L41.0483 39.0368L43.7189 37.6702ZM44.0092 39.8692L43.8789 38.2343L40.8884 38.4726L41.0186 40.1075L44.0092 39.8692ZM41.8754 42.3709L43.428 41.1777L41.5998 38.799L40.0472 39.9923L41.8754 42.3709ZM40.0302 43.6601L41.8195 42.4119L40.1031 39.9514L38.3137 41.1996L40.0302 43.6601ZM39.8197 45.5358L40.6107 42.8543L37.7332 42.0055L36.9422 44.687L39.8197 45.5358ZM39.4176 47.2238L39.8397 45.4606L36.9222 44.7621L36.5001 46.5253L39.4176 47.2238ZM37.0356 48.629L38.2983 48.3357L37.6194 45.4135L36.3568 45.7068L37.0356 48.629ZM35.8519 48.904L37.0356 48.629L36.3568 45.7068L35.1731 45.9818L35.8519 48.904ZM35.4574 48.9956L35.8519 48.904L35.1731 45.9818L34.7785 46.0734L35.4574 48.9956ZM36.4685 48.6248L36.6007 47.7615L33.6352 47.3076L33.5031 48.1708L36.4685 48.6248ZM34.2519 49.706L34.2537 49.707L35.7179 47.0886L35.7162 47.0876L34.2519 49.706ZM33.6333 47.3074L33.5013 48.1699L36.4668 48.6238L36.5988 47.7613L33.6333 47.3074ZM35.1712 45.9816L34.7767 46.0733L35.4555 48.9954L35.8501 48.9038L35.1712 45.9816ZM36.3549 45.7066L35.1712 45.9816L35.8501 48.9038L37.0338 48.6288L36.3549 45.7066ZM37.6175 45.4133L36.3549 45.7066L37.0338 48.6288L38.2964 48.3355L37.6175 45.4133ZM36.9203 44.7619L36.4982 46.5251L39.4157 47.2236L39.8379 45.4604L36.9203 44.7619ZM37.7314 42.0053L36.9404 44.6868L39.8178 45.5356L40.6088 42.8541L37.7314 42.0053ZM40.1012 39.9512L38.3119 41.1995L40.0283 43.6599L41.8176 42.4117L40.1012 39.9512ZM41.598 38.7988L40.0454 39.9921L41.8735 42.3708L43.4261 41.1775L41.598 38.7988ZM40.8865 38.4724L41.0168 40.1073L44.0073 39.869L43.877 38.2341L40.8865 38.4724ZM24.8163 43.0064L25.2103 43.5719L27.6719 41.8572L27.278 41.2917L24.8163 43.0064ZM26.8909 40.4131L25.7077 40.6879L26.3866 43.6101L27.5698 43.3352L26.8909 40.4131ZM27.5344 43.7414L28.3237 42.9011L26.137 40.8472L25.3477 41.6876L27.5344 43.7414ZM30.8315 36.2779L30.7245 36.9049L33.6818 37.4095L33.7888 36.7825L30.8315 36.2779ZM30.0954 37.6142L32.014 38.0006L32.6063 35.0597L30.6877 34.6732L30.0954 37.6142ZM32.9355 35.8481L31.1239 34.8346L29.6592 37.4528L31.4708 38.4663L32.9355 35.8481ZM28.6416 36.6739L28.642 36.6742L30.5102 34.3269L30.5098 34.3266L28.6416 36.6739ZM29.9457 33.8743L29.2363 34.0391L29.9151 36.9613L30.6246 36.7965L29.9457 33.8743ZM28.0718 36.4197L29.989 36.8059L30.5813 33.8649L28.6641 33.4788L28.0718 36.4197ZM28.4706 36.4654L28.7074 36.4104L28.0285 33.4882L27.7918 33.5432L28.4706 36.4654ZM28.4651 36.4666L28.4654 36.4666L27.797 33.542L27.7966 33.5421L28.4651 36.4666ZM29.8529 34.9941L29.433 34.2598L26.8287 35.7489L27.2486 36.4833L29.8529 34.9941ZM29.2367 34.0394L28.2114 34.2776L28.8902 37.1998L29.9155 36.9616L29.2367 34.0394ZM27.7878 39.1428L27.7879 39.1427L24.8922 38.3585L24.8922 38.3586L27.7878 39.1428ZM28.1058 38.0841L27.1338 37.4779L25.5462 40.0235L26.5182 40.6297L28.1058 38.0841ZM25.813 39.3013L25.813 39.3014L28.8109 39.4124L28.8109 39.4123L25.813 39.3013ZM25.5462 40.0234L26.5182 40.6295L28.1058 38.084L27.1338 37.4779L25.5462 40.0234Z" fill="#E0E0E0" mask="url(#path-1-outside-1_60_3165)"/>
</svg>
